<svg xmlns="http://www.w3.org/2000/svg" xmlns:xlink="http://www.w3.org/1999/xlink" viewBox="0 0 1601.8 453.2">
  <defs>
    <style>
      .\34 59d0b2e-d6b6-449e-a1a2-ff7b2d2e8cf8, .\36 f0c9245-ec7a-4e62-ac71-a918e7e11326 {
        fill: none;
      }

      .\36 04734fd-34ca-4349-b4cf-3d6a248ecdd4, .\36 f0c9245-ec7a-4e62-ac71-a918e7e11326 {
        clip-path: url(#d4cddbee-6411-4989-a4ee-c2b5a0fd8e27);
      }

      .\32 54bf225-b727-4103-8e94-46008e442022 {
        clip-path: url(#4f34f802-32f6-4a85-b3d0-6dbd4a2d9b80);
      }
    </style>
    <clipPath id="d4cddbee-6411-4989-a4ee-c2b5a0fd8e27">
      <rect class="459d0b2e-d6b6-449e-a1a2-ff7b2d2e8cf8" width="1601.7" height="453.13"/>
    </clipPath>
    <clipPath id="4f34f802-32f6-4a85-b3d0-6dbd4a2d9b80">
      <rect class="459d0b2e-d6b6-449e-a1a2-ff7b2d2e8cf8" width="1600" height="453.13"/>
    </clipPath>
  </defs>
  <title>bank-of-china-logo</title>
  <g id="915041ce-1105-4716-98fa-b07b3d245989" data-name="Слой 2" fill="#b7b8bc">
    <g id="2f25d4e1-cdb4-47ba-bce0-a68530c1c17c" data-name="Слой 1">
      <rect class="459d0b2e-d6b6-449e-a1a2-ff7b2d2e8cf8" width="1600" height="453.13"/>
      <g id="cab192ef-43b7-4bd8-a650-69d8ec0e5632" data-name="Clip-Path">
        <path id="2995048c-5ad5-4145-a53b-6d1a222caa65" data-name="Layer" d="M226.6,453.2A226.6,226.6,0,1,1,453.2,226.6,226.4,226.4,0,0,1,226.6,453.2Zm57.5-318.9c27.9,0,50.1,20.3,50.1,48.1v87.3c0,27.8-20.5,48.7-48.4,48.7H252.5v84.3a178,178,0,0,0-.1-352.1v83.7ZM118,182.5c0-27.8,16.9-48.3,44.8-48.3h37V50.9C114.3,63.8,48.7,137.5,48.7,226.6a178,178,0,0,0,151.1,176V319h-31c-27.9,0-50.7-21.5-50.7-49.3Zm163.4,87.8a9.6,9.6,0,0,0,2.6-1.4,9.4,9.4,0,0,0,1.8-2.9V188.4s-.9-3.6-2.6-4.5a6.1,6.1,0,0,0-3.7-.8h-107a5.7,5.7,0,0,0-3.9,1.6,7.1,7.1,0,0,0-1.3,4.3v75.6s-.4,1.2.9,3.3a5.3,5.3,0,0,0,3.7,2.4H281.4Z"/>
      </g>
      <g class="254bf225-b727-4103-8e94-46008e442022">
        <g id="b1489f29-bc80-43b6-b495-4a88a0aee481" data-name="Clip-Path">
          <path id="8414e99d-5f35-42c8-8d99-bd7c835b5b52" data-name="Layer" d="M1513.9,433.7a6.2,6.2,0,0,1,1-2.4c.7-.6,4.7-1.7,6.3-3.7s34.8-77.1,34.8-77.1l2-.5,30.5,70c2,4.6,3.4,7.6,4.5,8.8a13.1,13.1,0,0,0,6.4,2.5c1.2.1.5,1.9.5,1.9h-33.5s-2.2-1.7,0-2.6,6.8-2.2,7.6-5.6c.4-1.5-.4-5.1-1.9-9.1s-4.1-9.2-5.8-10.4-7.8-.5-13.6-.7-12.2-.4-14.5.8-5.8,13.1-6.4,14.8,0,5.8,1.5,7,7.7,3.6,9.5,4.1.5,2.1.5,2.1Zm50.7-34.4c.9-1.1-2.3-7.3-5.3-13.9-2.2-4.9-5.9-14.5-7.1-14.1s-3.9,7.8-6.3,13.2-5.7,13.3-4.4,14.5,6.4,1.2,11.2,1,11.1.4,11.9-.7ZM576.8,430.4c4.1-1.1,7.1-2.2,8.3-3.7s1.9-2.8,1.9-7.4V364.8a9.2,9.2,0,0,0-2.7-7.2c-3.7-4-8-1.4-8.7-2.9a8.3,8.3,0,0,1-.3-3.2h34.3c9.8,0,16.4.4,22.2,3.4a17.5,17.5,0,0,1,9.7,15.4c0,11-8.8,14.9-12.4,17.4,6.8,1.9,18,5.8,18,18.6s-7.3,21.6-14.3,23.8a59.1,59.1,0,0,1-17.6,2.5H576.8v-2.2Zm273.5,0c.1.2,4.3-1,6.2-3.9s2.2-3.6,2.2-8.8V365.6c0-3.3-1.1-6.4-2.4-7.7s-3.5-2.7-8.2-3c0,0-3.6-2.3,0-3.3.2.2,31.5,0,31.5,0s2.9.9.4,2.2-4.3.4-6.2,2.4-2,4.2-2,8.7v25.7a4.2,4.2,0,0,0,1.3,2.6c1.7.1,2.7-2,3.6-2.4,3.4-2.9,8.7-8.6,13.4-13.2,8.6-8.1,12.9-12.3,14.3-14.2s2.3-6.2,1.2-7.4-3.7-1.3-5.9-2c0,0-2.1-1.4.3-2.2h28.1s1,2.5-.5,3.2a17.9,17.9,0,0,0-7.7,2.4,51.3,51.3,0,0,0-10.8,8.4s-20.6,17.6-19.8,19.7,13,17.1,21.1,28.3c3.4,4.7,6.9,10.7,8.9,12.2s4.9,4.3,7.5,4.3,1.5,2.7,1.5,2.7-16-.6-18.7-.3-4.2-3.3-4.1-3.3c-6.3-8.1-24.2-33.2-25.6-34.7s-8,4.9-8.1,9.5c.1-.1,0,15.2,0,15.2,0,4.5,1,6.8,2.3,8.1s7.9,2.9,7.9,2.8c2.5.7.8,2.4.8,2.4H848.9s-1.1-1.7,1.4-2.3Zm-105,.1a27.7,27.7,0,0,0,8.1-5.3c1.6-1.9,2.7-3.4,2.7-9.9,0,0-.3-39.5-.3-45.3s-1.7-11.1-3.9-12.8a14.6,14.6,0,0,0-7.7-2.9s-2.2-2.3.2-2.9h21.3l50.4,55.7s1.9,2.5,3,1.9a11.7,11.7,0,0,0,.5-2.7c.2-4.3.1-37,.1-37,0-3.5.7-7.5-1.8-10.2s-9.1-4.1-10.8-4.8-1.4-2,.1-2.5,26.9,0,26.9,0c1.9.1.5,2,.5,2-3,.9-6,1.5-7.4,3.4s-2.6,5.6-2.6,12.1v64.8h-2.3S767,374,763.6,370.7c-1.5-1.6-2,.5-2,2.5s-.2,41.4-.2,41.4c0,6.8,1.4,10.9,5.7,13.2a51.4,51.4,0,0,0,7.9,2.3c.9.2,1.3,2.6,1.3,2.6h-31s-.8-1.9,0-2.2Zm-91.8,2.4a5.4,5.4,0,0,1,1-2.3c.7-.7,4.7-1.7,6.3-3.7s34.7-77.2,34.7-77.2l2.1-.5,30.5,70c2,4.6,3.3,7.7,4.6,8.9a13.3,13.3,0,0,0,6.3,2.5c1.2.1.5,1.9.5,1.9l-33.9.8a1.7,1.7,0,0,1,1-2.7c1.4-.5,6.1-2.9,7-6.3.4-1.6-.4-5.1-1.9-9.2s-4.1-9.2-5.8-10.4-7.8-.5-13.6-.6-12.3-.4-14.5.8-5.8,13-6.5,14.8,0,5.8,1.6,7,7.7,3.6,9.5,4.1.5,2,.5,2Zm50.7-34.3c.9-1.1-2.3-7.4-5.2-14-2.3-4.9-6-14.5-7.2-14.1s-3.9,7.8-6.3,13.3-5.7,13.2-4.4,14.4,6.4,1.2,11.2,1,11.2.4,11.9-.6Zm-75.7-26c0-5.5-3.2-10.6-6.7-13.5a17.1,17.1,0,0,0-10.4-3.8c-6.1,0-10.2.9-10.2,6.7v21.6c-.5,5.1,11.7,3.8,11.7,3.8,10.3,0,15.4-1.4,15.6-14.8Zm4,43.2c1.8-8.7-.1-14.5-5.2-18.8-2.5-2-8.9-5.1-14.2-5.1-7.2,0-12-.6-12,7.4V419c0,11.1,13.8,9.9,13.8,9.9,11.2,0,16.2-6.5,17.5-13.1Zm438,15.3a18.7,18.7,0,0,0,6.1-2.9c1.4-1.1,2.4-3.3,2.4-8.7l.2-51.5c0-4.4-.5-6.4-2-8.7s-5.3-2.9-9.7-3.6c0,0-3.3-2.4-1-3.4l35.5.3c12,.2,23.8-1,25.1-.1s.7,12.4,1,14.6-.8,3.6-1.9,3.7-1.7-2.2-1.7-3.7c0-3.1-2.6-6.6-3.2-7.5s-4.8-2.6-6.3-2.6h-18.3c-1.7,0-2.1,0-2.7.5a7.4,7.4,0,0,0-1.2,3.6v22.7c0,1.3.1,3.2.9,3.5s14.1.5,14.1.5c2.1,0,4.4-2,5.2-3.2s2.8-4.1,3.7-6.8,3.2-2.7,3.2.7.4,26.5.4,26.5c-1.4,1.9-2.6-.5-2.6-.5-.9-4.7-1.7-6.4-3.3-8s-3.5-3.4-6.6-3.4h-10.5c-4-.4-4.1,3.8-4.3,5.4s-.2,21.8-.2,21.8c.2,2.2.7,5.2,2.1,6.5a16.9,16.9,0,0,0,9.5,4c2.2.2.7,2.8.7,2.8h-35.4s-1.7-1.2.8-2.4Zm-84.8-69.6c7.6-7.2,18.5-10.4,29.5-10.4s20.1,1.7,27.8,9,12.3,17.5,12.4,30.7-4.3,24.1-12.8,31.9a43.5,43.5,0,0,1-29,11.3c-11.4,0-22.5-3.1-30.1-10.9s-10.5-18.5-10.5-31S977.5,369.4,985.7,361.5Zm10.6,59.2c6.7,7.7,11.4,9.4,20.8,9.4,6.4,0,13-3.8,18-9.9s6.3-14.1,6.3-27.4-3.7-22.3-8.7-28.4-12-8.8-19.2-8.9-14.7,1.9-19.5,7.3-7.5,15.5-7.6,28.5,6.1,25.2,9.9,29.4Zm427.2,9.7c0,.2,5.5-1.7,7.5-4.8s2.1-3.7,2.1-10.2l-.7-50.9a9.9,9.9,0,0,0-4.6-7.3c-1.7-.8-4.5-.7-6-1.9,0,0-3.4-2.5-.5-3-.2.1,20.6-.7,20.9.1,2.3,1.4,34.8,37.5,48.2,53,4.5,5.3,6.2,4.4,6-.7.2,0,.2-38.1.2-38.1,0-5.5-2.7-7.3-3.9-8.2a19.2,19.2,0,0,0-8.9-3.8s-3.4-1.1,0-2.2c.2.1,26.8,0,26.8,0,1.8-.1,1.8,1.4,0,1.9s-5.3,1.9-6.8,3.7-2.4,5.9-2.4,12.4v62.3c-.2,2.8-2.9,1.3-2.9,1.3s-50.8-55.3-56.8-62.1c-.1-.1-1-1.7-2.4-.7s-1.1,1-1,2.5.2,41.7.2,41.7c0,6.8,2.3,10.5,4.3,12.5s3.3,2.4,7.8,2.8c2.7-.1,2.2,2.8,2.2,2.8h-31.1a2.7,2.7,0,0,1,1.8-3.1Zm-47.3.9a21.8,21.8,0,0,0,5.3-2.9c1.4-1.2,2.2-3.4,2.3-8.2l.2-52.6c-.2-3.4-.2-7.5-1.8-9.2s-5.3-3.5-10.3-3.8c0,0-2.2-1.1,0-2.2.1.2,33.8,0,33.8,0,2.7.4-.4,2.2-.4,2.2a8.1,8.1,0,0,0-5.9,2.8c-1.6,1.9-1.5,5.7-1.8,8.5v54.3c0,4.7,1.6,7.5,3.1,8.7s3.2,2,8.2,2.4c3.2.5,0,2.2,0,2.2h-32.7c-2.6-.8,0-2.2,0-2.2Zm-106.3-.3c-.1,0,5.1-3.5,6.3-4.8s2.3-3.4,2.3-8.7l.3-50.7c0-4.4-.9-6.9-1.9-8.6s-3.9-2.3-8.5-2.7c0,0-6.5-1.5-.5-3-.1.2,31.8,0,31.8,0,3.4.1.6,2.1.6,2.1-2.6.1-4.7.9-5.9,2.5s-2.3,4-2.1,8.5v18s-.2,4.2,3.5,4.1c5.5-.3,30,.5,33.8.2s5.2-3.1,5.2-5.2c.2-5.1,0-16.5,0-16.5,0-4.4-1.2-7.8-2.5-9.1s-4.2-2.1-8.8-2.5-.9-2.2-.9-2.2h33.8s1.7,1.9-1,2.3-3.8,1-5.2,2.4-1.9,4.1-1.9,8.5v54.1c0,4.4.8,5.8,2.2,7.2s2.8,3.2,7.3,3.7c2.4.4,3.4,2.7.7,2.9.2.3-31,.7-31,.7s-4.1-1.9.5-3.5a9,9,0,0,0,5-3.3c.8-1.5,1.5-5.5,1.5-8.2,0,0,.2-18.9.2-21.8s-.7-4.8-3.5-4.3c0,0-33.2-.1-35.9-.3s-3.1.8-3.1,4.4c.1-.1,0,21.5,0,21.5a13.7,13.7,0,0,0,3.8,9.3c1.3,1.3,3.8,2.5,8.3,3s1,2.5,1,2.5h-36.2s-2-1.9.8-2.5ZM1236,354.7c4.4,2.2,7.9,4.1,9.8,3.9s2.1-2.5,2.5-3.9c1.9-2.6,2.5,2,2.5,1.8l1.6,23s-1.6,2.2-3.1,0c-1.6-5.4-5.9-11.5-8.8-14.6-4.5-4.8-12.5-9.6-21-9.7a25.3,25.3,0,0,0-21.4,10c-4.3,5.3-6.8,14.2-6.8,23.4,0,10.8,4.6,23.4,11.1,29.6s12.9,8.9,21.8,9c6.3,0,9.8-1.7,15.2-4.8,3.1-1.7,7.2-6.1,11-9.7a1.9,1.9,0,0,1,3.3.7c.4,1.9-6.7,9.2-12.4,13.8-4.2,3.4-15.3,7.3-20.9,7.3-13.2,0-20.8-.7-32.4-11-6.5-5.9-10.2-18.1-10.3-29.8s3.8-21.9,11.3-30,18.2-12.8,31.1-12.8a41.1,41.1,0,0,1,15.9,3.8Z"/>
        </g>
      </g>
      <rect class="459d0b2e-d6b6-449e-a1a2-ff7b2d2e8cf8" width="1600" height="453.13"/>
      <g id="9d6c4ff1-80dc-4537-814a-76ad503fad29" data-name="Layer">
        <g id="734889ce-f9b5-4180-b7e4-bc5f1dd69dbe" data-name="Clip-Path">
          <g id="7252fefc-42d1-4627-87c4-cf115cab2218" data-name="Layer">
            <g class="604734fd-34ca-4349-b4cf-3d6a248ecdd4">
              <g id="727886a4-6e58-4a9d-be0a-0c581f1c557b" data-name="Clip-Path">
                <path id="acea09d4-199f-4a4b-9330-119e7286fb13" data-name="Layer" d="M847,56.9c-.7-1.6,3.5-7.1,14.5-20.9S891.7,15.6,900,12.6l9.8-2.8c1.5-.2,7.7-.5,9.2-1s7.7-.6,8.6-1.1a30.8,30.8,0,0,1,6.9-2.1c2.8-.7,6.4.9,9,.4,5-.9,8.9,1.9,11.7,3.4,9.6,5.1,20.1,22.9,24,32.9s12.1,38.4,13.6,61.6c.9,14.8.3,53.7-.2,59.6-1.1,10.6-1.5,35.6-2.2,40.3s-1.6,15.6-3.7,19.2c-3.8,6.5-19.5,18.2-22.8,21.3s-14.7,12.8-16,12.7-3.7-3.6-7.4-7.2c-6.6-6.5-23.9-12.6-31.1-16.6s-30.5-6.1-44.8-7c-10.2-.6-25.8-2-26.3-3.1s-1.7-.9-3.2-1-1.6,1.7-1.9,2.4.6.5.1,3.4.9,1,1.2,3.4,1.3,1.4.4,3.6,3.6,3.8,4.4,6.2.9,6.4-2.1,6.6-6.2,1.4-9.7.2-11.3-8.8-11.8-13.8-1-13.9-1.3-17c-.6-5.4-2.6-19.7-3.2-26.9s-1.3-5.6.1-8.5-2.2-3.3-1-7.1-.2-8,1.4-11.4c.7-1.5-1.2-1.5-1-3.1a33.8,33.8,0,0,1,.9-5.4c.4-1.6.2-3.4.1-6.3s-.1-4.1,1.1-6.1-.7-1.9-.5-4.4,1.9-14.8,2.6-19.9,1.9-18.6,2.8-20.3c2.7-4.9,4.2-16,5.2-19.9s4.7-7.8,5.6-11c.3-1.3,2.5-2.5,3.4-2s1.7,4.3,1.6,5.7-1.3,10.6-2.1,12.4S829.2,93,829,94.2s-.4,4.6-.6,6.1a33.2,33.2,0,0,1-1.8,5.3c-.4,1.4.4,4.2,0,5.6s-.4,3.1-1.3,4.6.5,2.9,0,4,.6,2.9-.4,4.6.7,2.2.1,4.5-.6,4.9-1.3,6.2,1.3,3.2.6,5.7-.2,22.6-.8,26.5-.4,16.1.1,18.3.5,4.6,1.8,4.4,2-5.6,3.7-5.3.3,3.3.6,5.4c.5,3.9.2.6,1.1,7.5.6,4.6-.2,12.2.5,14.6s.3,4.6,2.8,4.7,1.4-1.7,3.1-3.9,1.9-2.5,3.3-1.5,9.5.8,12.2.3,6-3.5,8.4-5.3,14.3-12.9,20-17.8c2.5-2.2,9.6-10.6,12.4-13.3,4.5-4.4,11.6-11.8,12.7-13s1.2-2.4.2-4.3-1.5-1.4-2.7-.7c-2.9,1.6-6.7,6.5-9.6,8.3-5.1,3.3-11.6,7.6-15.1,9.7s-9.6,5-13.2,7a68.6,68.6,0,0,1-10.6,4.6c-1.7.9-2.3,1.4-3.9.2s-.9-.5.4-4.8-1.4-6,1.9-10.2c2-2.7,4-9.6,7.3-13.7,1.1-1.4,7.5-9.3,8.8-11.4s3.1-2.6,3.4-3.2,2.4-4.6,3-4.9c2.1-1.1,4.3-4.3,4.6-4.7a2.3,2.3,0,0,0,.6-2.7c-.2-.5-1.3-2.4-2.6-.9s-3.9,2.2-4.9,2.9-1.4,3.5-3.3,3.6-2.5-4.2-2.1-5.7-1-2.3-.2-4.2c2-4.2,1.4-4.7,2-5.5s.9-.2,2-1.5-.6-2.1.2-3.1,2.3-4.5,4-5.6,5.2-5.5,5.5-6.7.6-2.9,1.1-4.4-1.8-.8-2.5-1.7-.2-1.7.2-3.6-1.9-2.2-1.9-3.6-.1-2.2-1.9-2-6,4.3-9.3,4.9-6.1-1.7-4.4-5.1,7.3-10.3,8.3-11.5,1.3-3.4,1.1-5.1-1.7-5.6-2.2-9.7a84.3,84.3,0,0,0-3.5-12.3c-.3-.7-1.1-2.8.9-3.5s2.6,1.5,3.7,3.3a101.3,101.3,0,0,1,5.4,9,45.6,45.6,0,0,1,2.5,6c.3,1.2,1.1,3.4,2.8,3.6s2.7.1,3.8-1,10.8-5.2,14.6-6.6c1.9-.6,3-1,5,.3s2.5,4.6,3.2,4.9,2,.6,1.6,1.6,0,.3-1.7,2.3-.2,2.7-1.9,5.5a47.4,47.4,0,0,0-3.9,8c-.6,1.7-2.2,2.4-3.4,3.6s-.9,3.2-1.6,3.5-2.1.8-2.7,2.2-1.1,3.9.6,7c.8,1.5,2.3,1.9,2.6,3.1s2.2,2.2,3.1,3.4,1.1,2,2,3.3,1.3,1.4,3.1,2.7,2.2,3.6,3.6,5,5,4,7,6.4,1.7,2.9,1.5,4.6.3,1.2-.7,3.2,0,3.6-.1,4.6,0,3.2-1.2,4.9-4.7,6.1-5.4,7.8-1.1,2.9-.4,3.5,1.7,1.4,2.9.6,8.6-12.2,14.2-19.2a172.3,172.3,0,0,0,10.4-16.6c1.4-2.7,5.7-7.9,6.6-9a1.3,1.3,0,0,1,2.3.5c.3,1.1-.2,2.2.2,2.9s1.7.4,1.8,1.9.3,2.2-.2,3,1,1,.2,2.4.1,3.6-1.8,5.8-9.4,11.9-12.1,15.5-14.8,18-16.6,19.5-2.1,2.6-1.5,3.7,3.9,7.2,5.8,8.8,7.4,5,9.6,5,4.4-.7,5.3-1.5c4.1-3.2,7.4-10.1,8.8-13.5a135.7,135.7,0,0,0,5.4-15.9c.2-2.4-.8-4.9-.7-5.8s1.8-.8,2.1.2.8,3.9,1.1,5.6-3.7,17.3-4.5,22.2-8.1,16.1-8.7,17.6-.2,2.2-1.9,2.4a9.4,9.4,0,0,1-3.9-.7c-4.4-1.3-8.1-4.4-11-7a114.1,114.1,0,0,1-10.4-12.2c-.6-1-2.8-2.6-3.9-1.7s-4.7,5.7-6,6.7-3.1,1.6-4.3,2.8-3.8,4.2-5.8,6.1-8.1,6.2-9.3,7.3-4.2,4.9-5.5,5.9-6,3.9-7.4,5.4-3.7,5.1-5.5,5.9-2.8,2.5-1.6,3.5,5.1-.8,7.7-1.3,5.1-.4,7.3-.6,2.6-1.5,5.8-2.4,4.6.3,5.8,0,2.3-1,4.8-1.6,6.3-.3,7.8-.9,1-.9,3.1-2.2,3.1-.1,4.6-.5a76.7,76.7,0,0,0,8.9-2.7,100.3,100.3,0,0,1,13.3-3.4c1.3-.2,3.2-3.1,5.4-3.9s8.2-.1,10.4-1.4,4.4.9,5.8,3.5-.3,4.9-.8,6.8c-1.3,4.6-2.6,6.7-4.1,8.4s-2.1,4.7-4.7,5.4-4.5,1.2-7.7-.3c-5.7-2.6-8.8-.1-12.2-.8-5-1.1-7,1.5-9.4,1.3s-5-.8-6.1-.1c-3.3,1.9-5.9,1.4-8.2,2.1s-2.6,2.3-1.5,3.2,7.6,3,12.4,2.7c7.6-.5,13.2,1.2,16.2,1.4,4.6.3,7.8,2.8,10.1,2.8s3.5,1.2,6,2a21.1,21.1,0,0,0,5.6.9c2.1-.2,3.6,1.4,4.5,1a21,21,0,0,1,4.7-1.2c1.4-.4,4.1-3.9,6-5.2s7.5-6.4,8.5-9.3,1.4-4.2,2.5-7.9-.5-3.5.7-8.5,0-11.6.9-14.3.4-2.6.9-4.1a7.7,7.7,0,0,0-.1-4.4c-.2-1,1.4-3.2,1.4-4.6s-1.3-2.2-.5-4.5.3-6.2,1.2-7.2-1-2.7-.5-4.3.9-11.7.4-16.6.3-14.5.5-17.5-2-2.7-1.3-4.1-.1-4.8-.4-7.1-1.4-9.1-1.6-12.6c-.1-6.2-5.9-41.7-9.5-50.8-5.2-12.8-18.7-26.3-24.4-28.7s-12.2-2-16.6-2.1-15.5,1.9-26.2,5.3a151.7,151.7,0,0,0-23.1,9.7c-3.9,2.4-8.4,7.8-11.3,10.8s-4,7.2-4.9,9c-2.4,4.8,0,11,.5,12.7s.1,4.9-1.1,5.4-1.5,1.2-6.5,1.8c-1.6.2-4.5-1.2-4.7-2.4-.5-3-3-7.9-4.3-10.9Zm39.1,77.2a11.1,11.1,0,0,0-5.2,5.4c-1,1.9-.2,2.4-3,5.4s-2.5,1.2-4.2,2.5,1.6,1.6.1,2.9-1.2,0-3.3,2.5-2.2,3.4.8,4.6,2.6,2.1,6.2-.4,5.3-1.5,9.2-5,7.9-3.1,10.8-6.5,3.3-1.6,2.1-5.2-1.2-2.9-2.5-6.2-3.1-6.3-4.1-5.7-4,4.4-6.9,5.7ZM915.3,56c1.1-.5,3.2-.5,5.6-.1s-1-.4,5-.6c3-.2,4.7,1.4,7.4,3,6.4,3.6,10.8,4.9,12.2,6.9a12.3,12.3,0,0,1,1.6,7.5c-.4,2-.6,5.9-3.2,8.1a62.2,62.2,0,0,0-4.6,4.7c-1,1-.7,4.1-2.5,4.7s-3.9-.7-6.6-.7-5.1,1.6-5.9.8a10.9,10.9,0,0,0-2.4-2.4c-1-.7-2.5-.2-2.7-1.5a25,25,0,0,0-4.5-8.7c-.7-.7,1.1-4.2.1-5.4s-.8-3.1-1-4.3a20.2,20.2,0,0,1-.1-3.5c0-1.2-1.6-3.1-.8-4.7S914.2,56.5,915.3,56ZM888.6,81.1c1.2,1.9.8,3.8,3.2,2.1s2.4-1,3.3-4.7,2.9-1.1,1.9-3.9.7-3.2-2.7-1.4-7.1,1-6.5,4.2S887.4,79.3,888.6,81.1Zm9.8,42.3c-.5,3.1-.3,3.1,1.9,5s.2,5.1,2.4,7.3.4,3.1,2.5,1.2,2.8-1.3,3.2-3.8.3-1.4-1.2-3.6,0-3.1-2.5-5.8-2.6-4.7-3.2-3.6-2.5.3-3.1,3.3Z"/>
              </g>
              <g id="0e295607-e6c4-4406-ac93-b4ed65437d62" data-name="Clip-Path">
                <path id="976310b3-99f8-4ff0-9d6d-08dfe8e0f022" data-name="Layer" d="M1600,118.8c-2.9,1.5-11.5,11.2-13.8,12.2s-5.2-1.4-7.1-1.1c-4.9.8-16.7,3.6-25,5.1a113.9,113.9,0,0,0-21.7,7.2c-2.2,1.2-2.3,2.8-1.1,3.9,4.2,4,7.8,5.9,9.8,8.5s-.7,2.5-1.3,5.4-2.9,20.2-1.8,29.2,5,31.6,6.1,38.2,1.8,13.7,2.5,16.7-.4,11.5-2,13.2c-5.7,6.2-14.7,15.3-17,16.1s-8.4,1.1-11.7-1.7-6.1-10.1-7.4-13.5c-2.2-5.8-8.7-10.3-13.2-13.6-8.1-5.8-25.7-14.7-28.3-21.1-.4-.9-1-2.7.9-3.3,3.5-1.3,5.2,3.1,7.5,4.8,4.5,3.3,8.3,4.2,11.6,5.2,5,1.7,14,3.9,16.2,4.7,5.1,1.7,7.8,2.4,11.7,1.1s7.1-9.2,7.3-12.8c.5-8.7-1.4-18.9-1.2-23.1.6-12.3.3-14.6,1.6-23.8,1-6.8-.8-11.9-.6-15s.2-9.3,1.3-12-1.9-2.2-3.9-1.6c-9.4,2.8-13.8,7.1-21.9,10.9-5.6,2.7-15.8,8.8-19.9,10.3s-5.1,5.1-6.8,3.5-4.6-1.2-6.2-4.3,1.4-8.7,4.5-10.5,7.9-.9,20.3-7,26-14.4,36.2-18.3,36.7-11.9,40.6-12.8,12.4-1.6,13.8-2.2c5.3-2.3,10-2.2,11.7-2.6s5.8.4,7.8.6,3.3,2,.5,3.5Zm-110.8-16.2c.8,3.1,2.1,10.1,5.1,11.8s5.5-2.2,7.5-4.3c5.4-5.7,16-10.9,22-13.5s20.5-8.5,24.4-7.4c1.6.5,3.4,1.9,4,1.8s6.9-3.7,9.4-3.7h6a6.3,6.3,0,0,0,5.3-2.5c1-1.3.5-5.1,1.8-6.3s2.5-5,4.8-6.3,1.9-2.6-.2-2.8c-6.1-.4-23.6,4.5-36.1,7.6-7.3,1.8-28.9,12.6-32.3,13.7s-7.7,1.1-11.2,1.1c-1.2,0-2.2-4.3-5.8-2.5-5.1,2.6-5.4,10.6-4.7,13.2ZM1462.3,6.7c-7.9,4.2-7.2,7.9-8.8,9.4-7.4,7.6-26.4,35.8-36.7,47.7s-24.6,28.3-29.9,32.8c-2.8,2.4-5.5,5.4-9.4,8.4s-2,6.4-3.4,9.3,2,5.9,4,7.3,3.4,2.8,5.7,4.6,4.8-.5,7.4.9,4.3,4.3,6.7,3.3a11.8,11.8,0,0,1,10.2,1.5c3.1,2.1-1.8,5.7-2.7,7.8s-3.1,6-5,7.6c-4.6,3.8-12.2,11.7-16.7,16.6-8.5,9.2-11.7,13.6-20.1,21.3-3.5,3.2-2.3,4.8-3.5,8.2-2.3,6.2,3.7,15,6.4,17.2,4.2,3.6,2,2.1,6.9,4,2.9,1.1,4.6,3.5,7.1,2.8s4.3-1.6,6.8-.3,3.1-1.2,3.5-3.8a18.5,18.5,0,0,1,4-9c2-2.3,6.8-5.1,11-7.2s10.7-5.6,12.6-5.3,1.6,9.6.7,12.3a66.5,66.5,0,0,0-2.5,10.8c-.9,5.3-1,17,.6,19.6s4.2,3.5,6.2,5.7,5.3,3,7.8,5.5,3.6,4.3,4.7,4.5c4.1.8,4.8-.6,5.7-3.8,1.7-6.4,5.9-15.8,5.5-21.9-.7-9.3-2.3-20.8-6-26.1s-13.9-12.4-17.3-13.6-3.7-4.1-1.5-5.8c4-3,14.6-14.3,17.5-16.8s5.6-8.4,8-10.4c4.7-4,6.2-8,8.4-9.3s4-5.2,1.5-9.3-8.2-8.6-14.1-11.3c-9-4-15.6-2.9-18-4.9s.2-4,1.6-5.1,9.1-8.7,12.5-11.1,11-5.3,14.6-7.8a41.4,41.4,0,0,1,11.1-5.6c4.7-1.4,11.3-1.3,13.8-4.6,1.4-1.8,2.8-7.4,4.9-9.5s3.6-4.5,3.6-5.9,2.8-4,3.5-5.7.2-7.7.5-10.6c.6-5.7-1.8-10.5-2.1-13.1-.6-5.4-1.3-8.8-2.4-10.9-3.3-6.5-9.3-21-12.5-21.6s-7.6-1.3-12.4,1.2Z"/>
              </g>
            </g>
          </g>
        </g>
        <g class="254bf225-b727-4103-8e94-46008e442022">
          <g id="874d4cb0-c399-4896-a18f-a4147d0f7564" data-name="Clip-Path">
            <path id="d86499d8-60ca-4f19-9cb5-ac9ffac17b83" data-name="Layer" d="M1128.6,113.8c3.4-.3,3.5,1.4,3.8,1.6s2.6,5.4,3.9,6.9,2.2,2.9,4.1,3.6,1.1,4.9.9,7-5.5,3.1-8.2,5.1a23,23,0,0,0-3.8,3.9c-1.4,1.9-1.7,2.9-3.6,4.6s.3,8.7-.8,12c-.6,1.5,1.5,1.4,3.2,1.4s1.1-1.6,2.2-2.5a68,68,0,0,1,7.1-5c1.3-.9-.5-5.5,1.5-5.9s1.5,4.7,2.4,6.6,2.8,7.3,2.2,9.6-.9,4.3-1.6,5.6-8.9,4.8-8.1,8.3,6.6-.8,9.7-.5,6.9-.3,9-.3,6,3.1,8.3,7.1c1.1,2.1-7.3,9.4-11.6,15s-21.2,19.8-24.6,23.2c-1.7,1.7-.6,8-2,8.8s-3.1,0-4.9.5-3.7,1.2-4.5,2.8-.8,2.7.5,3.4,19.5-8.1,28.1-15.8,21.3-20.5,25.8-26.2,2.1-22.9,6.1-41.1c1.9-8.3,5.9-35.3,8.8-48,3.3-14.5,14.6-37.1,16.8-40.4.9-1.4-.1-2.7.7-3.9s1.2-2.4,4.3-1c1.2.6,3.2,2.9,4.4,2.4s-1.4,1.2,8.3-8.2,18.8-14,23.9-17.9,8.7-8.2,11.2-9.4a3.5,3.5,0,0,1,4.9,2.2c.8,2.2,1,5.4-.1,9.5-.7,2.5-2.6,6.1-4.9,11.5-.9,2.1-3.7,12.9-5.7,18.8s-4.3,19.9-5.7,22.3.3,4.7-1.1,8.7c-.5,1.3-3.2,7.5-4.9,11s-6.8,14.7-7.9,15.7-.4,4,.3,5.1,5.5,4.3,8.7,12c1,2.4.7,4.9-1.3,7.5s-6.9,3.6-10.1,5.1-20.5,10.3-26,14.8c-1.2,1-3.2.8-2.7-1s-.2-13.1,1-16.5c1.9-5,1.1-3,5.3-8.8,2.1-3,6.8-14.2,11.7-19.7.6-.6,1.6-3.4-.1-4.4s-3,.9-4.7,1.4-1.2,2.9-2.5,3.4-3.5-1.1-5.2.3-3.4,5.8-3.9,9.1c-.1,1.4-2.5,3.2-3.1,4.1s-.2,5.4-.6,8.5-4,13.1-4.8,17.1-1.6,8.2-1.3,11.5,1,3.2,2.3,2.9,2.6-2.9,4.1-3.2,8.1-.4,10.7.4,3.6,1.9,7.7,1.1c2.3-.5,5.9-1.5,8.7-1.4h21.5c2.1.1,13.5-5.6,17.1-7.2s10.1-8.1,15-13.1c2.8-2.9,9.2-4.8,12.6-3.2,1.7.7.7,5.8-1.9,7.7s-7.1,4.2-9.5,5.9-10,10.3-12.9,15.3c-1.4,2.4-5.9,8.7-8.2,12.8-.4.8-.4,2.8,1.3,4.6s15.8,5.5,22.4,7.8c.6.2,1.5,1.3,2.9.9s2.2-.9,2.3,1.5,9.3,1.4,10.4,2.2c3.5,2.6,17.1,5.6,21.5,8.4a14,14,0,0,1,3.7,3.3c1,1.2,3.5,1.1,3.2,2.9s-26.5,8.3-35.9,7.9-16.2-1.4-23.9-4-19.7-12.2-21.6-12.2-2.7.6-4.8,2.7a37.4,37.4,0,0,1-3.1,3.8c-1.7,1.7-7.7,7.6-9,9.3s-5.8,3.3-8.3,5.3-5.6,5.6-7.8,7.1c-4.1,2.7-9.2,6.1-12.3,7.4s-8.6-.6-13.3-1.3-11.3-6.1-13.6-10.7c-1.4-2.7-1.3-9.6-2-13.6s1.6-11.1-.1-12.3-3.6.2-4.7,1.5-4.2,5.9-10.2,10.1c-2.6,1.8-2.7,3.1-5.7,6s-7.5,5.3-11.2,8.4-10,4.8-14.3,5.6c-1.5.3-5.8,2.9-8.2,4s-9.3,3.4-13.6,4.7c-2.8.9-4.1-5.1-4.7-9.2s1-8.3,3.4-9.6c4-2.2,10.2-9.6,13.7-13.3.9-1-.9-3.2-2.5-3.1a15.7,15.7,0,0,1-9.2-2.2c4.1-.6,11.1-.8,13.5-3.9a4,4,0,0,0,1.6-2.8c0-2-.6-2.5-.8-3.8s1.1-2.6.7-3.6-1.4-3.4-3.2-2.4c-3.5,2.2-9.7,8.3-11.3,11.5a12.1,12.1,0,0,0-1.3,4.2c-1,1-2.9.1-2.9.1-3.3,3.4-8.4,9.1-11,11.3s-4.5,2.8-6.6,1.8-4.3-6.5-5.4-8.3.4-3.7,1.9-4.7,8.4-4.6,10.2-6.2,10-9.7,11.8-11.2,7.2-5.2,9.6-7.7-.4-4.1-1.6-3.1a2,2,0,0,1-3.2-1c-1.7-3.9-5.2-13.4-5.1-16.9a12.8,12.8,0,0,1,.9-5.5c2.6-6,11.3-17.4,14-19.5s1.1-3.9.2-5.4-6-8.1-5.8-10.3,5.2-6.2,10-9.6,9.6-7,13-7.4Zm83.2,26.4c-.2,1.7-4.6,3.7-3.8,7.4s1,2.4,2.5,1.8,13.8-5.1,15.9-7.7.9-3.9.4-6.3c-.9-4.3-2.2-3.5-3-2.5s-2.3,3-3.8,3.3-2.2-4.4-4.7-2.6S1212.2,137.1,1211.8,140.2Zm27.1,51a55.8,55.8,0,0,0,6.6,3c1,.3,2.4-.6,2.9-1.9s4.9-6.9,6.1-8.9-.7-4-2.6-2.6-8.7,5.5-11.1,5.1-4.3,3.9-1.9,5.3Zm-56,16.1a120.3,120.3,0,0,0,.8,20.6,13.6,13.6,0,0,0,4.1,7.7c2.1,1.9,8.3,3.4,11.6.6s21.9-12.3,27.7-16.3c2.3-1.5,3-3.1,4.2-4.5s1.5-3,.2-4.3c-3.3-3.4-7.2-4.2-10.1-6.2a56,56,0,0,0-15.7-7.7c-4.1-1-7.8-2.5-11.1-3.3s-7.8-6.3-8.5-4.4c-2.7,6.1-2.8,13.2-3.2,17.8Zm-59.4-5.5c.1,2.4,2,6.3,3,5.2,4.6-5.1,17.9-17.8,18.8-20.7a2.3,2.3,0,0,0-2.6-2.9c-2.8.3-5.9,1.7-9.2,3.3s-9.5,4.4-9.6,5.6-.5,6.8-.4,9.5Zm20.3-184.7c1.3-.3,2.3,2,4.4,3s2.1,2,3.7,2.1,2.1,3.2,3.3,4.2,2.4,4.1,3.5,5.2,1.9,2.8,3.2,3.8,1.9,4.9.1,7.1-3.6,4-6.5,4.9-8.8,1-12.1,3.1a54.5,54.5,0,0,0-10.7,8.7c-5.3,5.7-11.4,15.6-16.3,24.1-3.3,5.7-15.6,26.8-19.3,35.1-1.5,3.4-9.4,20.2-12.2,26.4-3.6,7.9-12.6,25.2-14.4,29.9-2.5,6.3-1.1,11.5-2.8,13.9s-4.6,2-6.5.6-4.8-4.2-5.5-7.1.7-8.4,1.5-11.5a6,6,0,0,1,3.3-4.2c1-.5,2.7,0,4.2-.6s6.1-8.6,8.5-13.2,11.8-24.1,13.8-28.4c1.2-2.6,6.2-13.6,9.8-20.4,2.2-4.3,13.3-34.7,18.7-42.1,1.3-1.7,6.9-13.8,10.4-19.3s15.8-24.8,17.9-25.3Zm78,43.3c-4.8,5.7-11.1,13.5-11.2,19.3,0,3-1.4,7.8-2.2,10.1s-3.2,5.1-3,8a45.4,45.4,0,0,0,.4,6.6c.5,2.6,3,3.3,4.2,1.9s10.6-7.6,14.6-11.5c6.5-6.4,3.1-3.4,4.7-5s3.7.1,4.9-3.6c2.7-8.3,3.4-11.3,6.4-20.5s5.5-19.8,4.9-22.7c0,0-18.9,11.7-23.7,17.4Zm-76.9,2.5c1.3-2.6,9.6-3.1,13.3-2.4s7.4,7.3,8.7,10.5,2.3,6.3,1.6,8-4.4,2.2-7.8,3.1a40.5,40.5,0,0,0-6.7,2.6,39,39,0,0,0-7.7,5.9,6,6,0,0,1-4.8,1.7c-.7-.2-.7-2.2.5-3.4s5.1-9,4.4-11.6-1.6-1.8-1.8-5.9c0-2.1-.7-6.4.3-8.5Zm-33.4,103.4c-1.7,1.2-2.7,2.5-1.6,3.9s3.6.1,4.6-1.4.8-5-1.1-4.8S1113,165.3,1111.5,166.3Z"/>
          </g>
        </g>
        <g class="254bf225-b727-4103-8e94-46008e442022">
          <g id="668435d2-485b-4ecc-a1cc-035d05f707d8" data-name="Clip-Path">
            <path id="0df80073-6aa8-495a-ba8d-33a01d6c1687" data-name="Layer" d="M567.8,91.6c2.1-.6,6.1,7.3,10.1,11.6s10,9.6,11.2,10.8,4.5,5.9,5.7,5.9,4.4-3.3,7.6-5.5l13.5-9.1c1.9-1.3,7.8-5.5,11.4-8.3s11.5-7.9,11.8-8.6a15.9,15.9,0,0,1,1-5.6c.8-2-.9-2.9-1-3.3s.9-3.4,1.1-4.8-.2-7.7.1-8.7c.9-2.7,1.2-8.4,1.3-10,.4-4.6-.1-6.6.5-8.4a37.7,37.7,0,0,0,1.7-15.7c-.4-3.9-1.3-4.2-.2-10.1s5.8-11,8-13.6,5.8-2,9.2,1.3c1.2,1.2,4.2,2.6,7,5.5s7.9,9.1,9.7,10.7,8.3,9.6,11.8,14,4.1,9.5,4.4,11.7-.3,7.8,2,8.2,9.6-4.8,19.7-6.7c6.8-1.3,17.8-1,25.1-.9,3.2,0,9.4-.2,9.9,1.2s-.7,11.2-4.8,20.5-5.6,9.8-9.8,15-3.9,7.1-10.2,15.3-17.9,19.3-15.6,21.6,7.9-1,8.9,3.5-3.1,5.8-4.5,9.3-.8,8.5-5.2,10.6-6.4,1.3-9,3-1.9,7-3.8,10.7c-3.5,6.5-1.7,12.8-3.8,18.1-3.2,7.9-2.4,4.8-5,13.1-.6,1.8-1.9,10.9-2.6,14.1s-2.7,4.9-2.8,5.9c-.2,2.7-1.6,9.9-1.4,10.7s-1.8,2.4-1.6,4.2-1.7,6-2,9c-1.2,11.7-.2,13.2.3,19.7s-.8,7.9-1.5,9.7-3,1.9-4.7,2.4-1.7,2.5-2.9,2.9-3.3-1-4,.1-2.7,5.2-4.4,5.3-2.3-.9-2.8-3.6c-.2-.7-1.8-.9-2.1-2.3s-1.1-1-3.2-4.9-.3-4.5-.5-7.4-3.2-4.4-2.4-8c.4-1.9-.1-5.8-.5-9.1a59.9,59.9,0,0,1-.6-7.2c0-1.7-.5-.1-.1-5.4s-1.1-8.7-1.1-10-.6-2.9-1.9-2.9-1.7.6-2.3,3.3a47.5,47.5,0,0,0-.3,11.4c.3,3,2.2,11.5,2.4,14.2s-.2,1.8-.1,6.7a62.8,62.8,0,0,0,2,11.6c.9,3.2,2.7,3.1,3.3,5.4a21.2,21.2,0,0,0,2.2,5.7c1,1.8,5.2,2.8,4.6,3.8s-2.4,3.7-3.7,3.9-7.7-5.4-8.7-7.9c-1.8-4.4-3-20.2-3.9-25.9-1.6-9.7-3.3-13.9-4.4-24.7s-3.9-40.3-3.8-46.5c0-4-2.7-5.4-4.1-5.5a4.5,4.5,0,0,0-4.2,3.7c-.2,2.4.3,8-2.1,9s-16.5-3.3-27.8-10.7c-18.3-12.1-24.8-42.1-27.9-47.9-4.2-7.8-4.3-24.1-3.4-27.3s2.1-6.8,5.2-7.8Zm122.4,1c-.3,4.2,1.2,9.8,1.5,11.3s1.2,2.4.5,3.9-.2,3.4.1,5.9,1.4,4.9,2.8,4.1,13.1-14.4,18-20.2S727.4,76.8,727.8,75s1.1-4.1-.6-6.1-5.9-.4-9.2-.6-5.6-.8-9.3,1.2-5,4.2-8,6.1-10.1,6.3-9.9,8.2S690.4,89.5,690.2,92.6Zm-79,47.8c2.2,2.6,1.6,4,3.5,7s2.3,5.7,5.6,8.1,2,6.1,4,5.5,8.5-5.8,9.8-8.2.2-4.4.3-5.7.8-2.5.6-3.7-.9-2.2-.8-4.1.9-2.9.7-5.5.4-10.3.1-14.6-2.7-2.7-4.4-1.5a45.3,45.3,0,0,0-7,5.1c-1.4,1.2-4.9,3.5-6.3,4.7s-6.5,3.9-7,4.9c-1.2,2.9-1.2,5.4.9,8Zm49,80.1c0,3.6.7,3.9.6,6.7s-3.4,5.9-3.5,8.8.6,5.4.3,7.9a63.8,63.8,0,0,0-1,8.1c0,1.9,2,6.9,2.6,8.5s2.9,2.7,4.7,2.9,2.6.2,2.6-1.6-2.5-5.6-2.3-8.2,1.4-6.2,1.5-8.2-.8-2.9-.1-5.1.5-5.4.2-8.9a23.7,23.7,0,0,0-.4-5.3c-.4-1.6.4-2.2,0-4.2s0-2-.4-4.4-1-2.5-2-2.5-2.7,2-2.8,5.5Z"/>
          </g>
        </g>
      </g>
    </g>
  </g>
</svg>
