<svg xmlns="http://www.w3.org/2000/svg" viewBox="0 0 99 46.2">
  <defs>
    <style>
      .af1d2dca-b1f8-4883-8644-97ca07b9dc75 {
        fill: #222;
      }

      .\37 17d5966-7796-4300-a681-e76fe08166a7 {
        fill: #343434;
      }

      .a244a34c-4d5e-45e2-afce-133948089077 {
        fill: #2e2e2e;
      }

      .c8f4fbcf-fbb7-4588-b7b2-3014fe74ebb7 {
        fill: #303030;
      }

      .eb427bed-6cc5-4100-afc9-579d1d2c203b {
        fill: #242424;
      }

      .\34 2701b45-bc69-44f4-b5c6-76d0590d2b11 {
        fill: #1d1d1d;
      }

      .\38 0061e88-291b-4417-9e1b-d4a98ec0ef9b {
        fill: #1e1e1e;
      }

      .\37 a98582e-52f6-4254-a912-67f06d16a1ae {
        fill: #313131;
      }

      .\33 0dfdf6f-1676-40ce-ba2c-55bc0e757b9c {
        fill: #2f2f2f;
      }

      .\33 9c942c1-3141-496d-bf28-55792d2b3590 {
        fill: #272727;
      }

      .\32 8eaeaf1-cc06-4f47-9f2f-a96f1d42f0d5 {
        fill: #292929;
      }

      .f71f47e1-9da3-41bc-a178-c1d134f0c115 {
        fill: #1c1c1c;
      }

      .\30 fc5c830-6b77-4284-a354-2c8d7817d260 {
        fill: #262626;
      }

      .\30 7c70756-c781-4109-abc0-b524ab351329 {
        fill: #1f1f1f;
      }

      .f46ca843-9dc7-4a86-9279-8db55dd99280 {
        fill: #232323;
      }

      .cd8be5a9-1e7e-4555-ad57-f7ef5d07c8a6 {
        fill: #2d2d2d;
      }

      .c4a2fb4e-60e6-42d6-ac15-ce491af2000b {
        fill: #202020;
      }

      .f210dc4e-55d3-40d2-b1be-cf2ae13d4501 {
        fill: #323232;
      }

      .\30 fe0509b-8801-408e-89cd-e71e9d40c21b {
        fill: #212121;
      }

      .dacbbc74-7f30-480e-b754-251f69800861 {
        fill: #3d3d3d;
      }

      .\39 3ef9f1a-d39b-48f0-866a-8f1d9b3e6199 {
        fill: #2c2c2c;
      }

      .\37 528690b-856e-4665-bfae-e9df0c07956e {
        fill: #252525;
      }

      .\32 3651960-ea5d-403a-b301-539d5d097b27 {
        fill: #3a3a3a;
      }

      .\38 34d2106-df73-41d0-988d-2c22533406c5 {
        fill: #353535;
      }

      .f622c4f2-274f-4f8e-a02a-b11deae4dbe5 {
        fill: #333;
      }

      .\35 993c818-18ce-49c8-8290-50f874b752b9 {
        fill: #535353;
      }

      .\30 e3cb297-0e22-4b4f-8080-4ee4d869d278 {
        fill: #464646;
      }

      .\38 71250a1-0f9d-40a5-8f3e-e594518754f5 {
        fill: #787878;
      }

      .\30 5028aca-a2b3-4d7d-9623-8c7ecd0e0eb3 {
        fill: #545454;
      }

      .bdebfca3-8fdb-4b12-b89a-57873d002aa1 {
        fill: #6a6a6a;
      }

      .\34 f8b5475-582c-4022-b9c8-34fd99708c3a {
        fill: #444;
      }

      .\35 2a8abad-9dba-4e03-a7fa-5348c41b03c2 {
        fill: #484848;
      }

      .\30 a18e039-a395-4473-a179-99678fe3f8e1 {
        fill: #414141;
      }

      .\36 248da60-dac9-4235-b284-999c53b5d6a3 {
        fill: #282828;
      }

      .\32 9435854-82bc-423d-92eb-dd420bd3d33f {
        fill: #2a2a2a;
      }

      .\39 c488b8d-30d0-4a46-8dcc-21eb52e9ab0b {
        fill: #6e6e6e;
      }

      .\36 ccaf7fd-b213-474b-86ef-58608b1cb80f {
        fill: #3e3e3e;
      }

      .\33 c3b60ac-1960-4854-b08d-45629f0593dc {
        fill: #939393;
      }

      .\31 0e6c994-0c23-49c7-b863-c89d9e85451c {
        fill: #5b5b5b;
      }

      .c555480d-1d26-4272-bd41-bbd20b31ed2a {
        fill: #434343;
      }

      .d71426b8-3492-4200-b3cd-5eeab565d8ba {
        fill: #5e5e5e;
      }

      .e9934135-7dfa-44e2-8841-953d24acbceb {
        fill: #666;
      }

      .\32 1fa109b-e1e7-4de5-b3d5-ea64c58196a0 {
        fill: #363636;
      }

      .\33 9de380d-e52c-4356-857f-c9ad1e095f63 {
        fill: #474747;
      }

      .a8ec9440-9570-42c5-9d2a-a0423b2e7603 {
        fill: #4d4d4d;
      }

      .a450288b-411a-4bec-add5-e6c8ac0c4bed {
        fill: #393939;
      }

      .\33 61c2b94-c912-4421-bc24-ea4bfc88494c {
        fill: #949494;
      }

      .\38 a0d450d-dfc5-4a28-ba53-696d4f67f078 {
        fill: #909090;
      }

      .\38 260b1b0-0403-4eeb-b889-aa9ade68e982 {
        fill: #515151;
      }

      .\33 a9630f3-5a87-46a4-a6de-f95bb90f344d {
        fill: #424242;
      }

      .c1eec256-8b10-4555-a578-634fe209ad59 {
        fill: #585858;
      }

      .\38 d5b62bc-2efb-47e0-9633-c06b316a400e {
        fill: #373737;
      }

      .c463e669-ebe6-44be-a6f6-bc07c9517939 {
        fill: #3b3b3b;
      }

      .eee15b1c-a97e-4aaf-b32e-45d6a0615c4e {
        fill: #616161;
      }

      .\31 48abc87-7be4-46dd-87cb-400fda19743f {
        fill: #404040;
      }

      .aa3a04ab-af5e-4ea1-a95a-0f2fc70ffef8 {
        fill: #454545;
      }

      .\37 196b018-fc6a-4dd8-b669-073f28646d52 {
        fill: #4e4e4e;
      }

      .fb2a8603-5d58-4618-bd2b-7490264497ec {
        fill: #3f3f3f;
      }

      .a6ba8a71-ce6f-495d-b82b-f56e0b3371bb {
        fill: #575757;
      }

      .fcec8f32-0ebe-4f8f-a858-c97c566ee6d7 {
        fill: #757575;
      }

      .dec75f7c-98db-4818-b6ae-e24aa27ed539 {
        fill: #7a7a7a;
      }

      .d7cd2fa5-b2bb-4df2-aafd-3dd82f6c3543 {
        fill: #b7b7b7;
      }

      .b6c99bee-ad3c-44e1-8866-a843296655b6 {
        fill: #4f4f4f;
      }

      .\32 0a0a955-5e4c-4424-a576-867ea7bac88e {
        fill: #4b4b4b;
      }

      .\32 8b55c80-ff69-4885-b616-c1d26e23635f {
        fill: #878787;
      }

      .\32 5ef0337-5187-4976-b75f-be003d4d8dd2 {
        fill: #8c8c8c;
      }

      .\39 f922f4b-6d82-4a55-8d03-ed39c4a23905 {
        fill: #888;
      }

      .\30 e176df0-67d1-48f4-a9aa-c69367798d6f {
        fill: #595959;
      }

      .fc991a80-6326-43cf-ad90-95914fdc5702 {
        fill: #9f9f9f;
      }

      .\39 5fdb57f-2a8a-48ec-8b9b-8c3a4d58d4d1 {
        fill: #5a5a5a;
      }

      .\34 124c354-4813-4cfa-beed-f91e342bfb27 {
        fill: #9d9d9d;
      }

      .\36 3b76a24-7ebe-4aa9-a0fb-e860519edf21 {
        fill: #8e8e8e;
      }

      .\39 862cbf0-a8df-4b9d-aed1-064223824f44 {
        fill: #626262;
      }

      .\38 19e00a2-4260-48d3-be80-13e79c725c60 {
        fill: #818181;
      }

      .\35 3011de2-a05b-4d50-8040-ad83ba15a68f {
        fill: gray;
      }

      .\37 9f531f5-95fd-47d8-86b9-f7e96118421c {
        fill: #717171;
      }

      .\31 6134f34-6224-4b2c-bf1c-6b4159d76d7d {
        fill: #a4a4a4;
      }

      .\31 1b3d743-7ac1-48e6-baec-5cf2a8e22cc6 {
        fill: #5c5c5c;
      }

      .\37 f6ec31d-9afe-4a04-affc-0ce0660e0048 {
        fill: #898989;
      }

      .b6a79d52-3351-47ad-9008-0210bd44905c {
        fill: #767676;
      }

      .\30 45c3ff5-ab1c-421b-ac66-6c70e50ed26a {
        fill: #494949;
      }

      .a510acc2-2088-4843-b2e2-4f1e677c0c06 {
        fill: #acacac;
      }

      .\33 47579ed-e315-4a70-a458-fbb3e9619371 {
        fill: #919191;
      }

      .\35 69e485b-2f24-43e2-aa24-ab8996f77c2f {
        fill: #aaa;
      }

      .d321e1ef-7720-4ebc-b062-fedd789fcf5e {
        fill: #525252;
      }

      .fc4da919-d78b-416f-970a-268d1c011c87 {
        fill: #181818;
      }

      .\31 4aca0a5-ca9b-4048-8d46-96a0d1205d9a {
        fill: #656565;
      }

      .\34 1f12dff-4a21-4f49-8647-98ef3c8f0e8a {
        fill: #505050;
      }

      .\33 35ba11f-083b-4b28-a863-5cf2189bd8bc {
        fill: #4c4c4c;
      }

      .\34 5f19e7f-da5e-4346-b5b2-945dad675691 {
        fill: #1a1a1a;
      }

      .\30 3f11f14-773c-4cc0-bfad-b24e34183920 {
        fill: #191919;
      }

      .\31 832450c-23cd-4c4e-ac3f-7935a4ed77f0 {
        fill: #7d7d7d;
      }

      .\33 ed7e0a0-cd09-4b9f-aae1-1b0f3884571a {
        fill: #4a4a4a;
      }

      .b4423cc3-f8a8-440b-8b34-fd87fcc2ce3f {
        fill: #555;
      }

      .\32 4af7333-b7a3-427b-bd87-e7daf7a079c3 {
        fill: #606060;
      }

      .\38 261d448-6e4e-446d-ba68-e9652b78353f {
        fill: #a1a1a1;
      }

      .\31 f3cdb2c-15e7-45f8-9fda-335abdcee455 {
        fill: #646464;
      }

      .\35 a7105cc-df66-4a4f-805f-c76977be3b85 {
        fill: #6c6c6c;
      }

      .a56c977f-3d11-4f88-9a68-ef264baed0e5 {
        fill: #707070;
      }

      .f594de48-e0a9-4c54-8f02-60b8b46b7465 {
        fill: #8a8a8a;
      }

      .b4e059f7-50fb-4c6e-ab51-8e698edf574a {
        fill: #7e7e7e;
      }

      .\36 ae1c4e8-098c-49e6-a0fb-f08382b64baa {
        fill: #636363;
      }

      .\37 c69f1dc-a3ed-4401-8923-e59bd2b1697d {
        fill: #a0a0a0;
      }

      .\37 6218cc7-578b-4bff-9321-3e4a151231bb {
        fill: #383838;
      }

      .a492d6c3-1254-49c5-9853-f1edbcb52e61 {
        fill: #5d5d5d;
      }

      .bc7b171f-ee93-4fb1-b17e-924272c289fc {
        fill: #8f8f8f;
      }

      .\37 3d5aabf-53dc-45db-8359-35f6360a5554 {
        fill: #5f5f5f;
      }

      .\31 998b298-f078-4df5-b23d-da8deabe6a47 {
        fill: #828282;
      }

      .e2a3c369-c19f-4907-b0b4-edbc49762c69 {
        fill: #696969;
      }

      .\37 521ef12-d03f-438e-900f-9889bafa2109 {
        fill: #737373;
      }

      .\36 4ce87ab-d940-4c59-893a-246913101997 {
        fill: #868686;
      }

      .a4c77dea-90de-4b8e-b01f-924fdac01143 {
        fill: #676767;
      }

      .\33 c772970-d9e7-43d2-b66c-96b00416df3c {
        fill: #a3a3a3;
      }

      .a6f7ae09-09a6-4c03-95c3-f04ef6173956 {
        fill: #adadad;
      }

      .b4a8f15e-af1f-4f57-8fa3-50b8bfb94d44 {
        fill: #727272;
      }

      .c3fa91b7-6c6e-4bbd-a3da-fdcbcc063108 {
        fill: #838383;
      }

      .df343a04-4a80-4290-b851-4fce33b9e91c {
        fill: #858585;
      }

      .\37 a68bc81-bd68-4ec7-ba07-3faa21ac20d0 {
        fill: #b2b2b2;
      }

      .\36 a4299f0-6f03-4c06-8d4e-53ce577481e9 {
        fill: #777;
      }

      .\34 261ee59-cddc-4be5-8464-3a2e31680579 {
        fill: #7f7f7f;
      }
    </style>
  </defs>
  <title>Ресурс 22</title>
  <g id="e2a0f57d-45f5-488b-a743-2164c8f3e414" data-name="Слой 2">
    <g id="90eac651-b4e7-4b6d-a5f7-d1f15e8113b8" data-name="cfa9541e-7173-4a22-a3c3-cee2ba466642">
      <g>
        <path class="af1d2dca-b1f8-4883-8644-97ca07b9dc75" d="M94.4,26.6c.6,1,1.6,1.7,2.2,2.7a4.9,4.9,0,0,1,.8,2.3c.1,1.1.4,2.3.6,3.5s.3,1.6.5,2.4.4,1,.5,1.6V43h-.1a.4.4,0,0,1-.4-.4.9.9,0,0,0-.3-.5v-.2a3.3,3.3,0,0,0-2.4.3c-.2.2-.5,0-.8,0h-.1c-.2-.5.2-.6.6-.7s.8,0,.8-.5.2-.2.4-.2h.6c.2-.1.6,0,.7-.3a.9.9,0,0,0-.4-.9l-.5-.5c-.2-.2,0-.4.1-.6s.4-.8-.4-1h-.3a1.3,1.3,0,0,0-1-.3c-.2-.1-.5-.1-.5-.3s.2-.3.4-.3h.9c-.4-.1-.8,0-1.1-.5s-.2-.9.6-1.1a.8.8,0,0,0,.7-.3c-.2-.2-.3,0-.5,0s-.8.2-1-.2a.8.8,0,0,1,.4-1,.9.9,0,0,1,.5-.3c.5-.2.5-.5.4-.9a3.6,3.6,0,0,0-.4-.9c-.1-.2-.3-.2-.4-.4v-.2c.2-.6-.1-1-.8-1.2s-.4-.5-.5-.8.6-.8-.1-1.2l-.3-.3C93.8,26.7,94.1,26.6,94.4,26.6Z"/>
        <path class="717d5966-7796-4300-a681-e76fe08166a7" d="M1.6,44c-.5.1-1.1-.2-1.6-.1V42.6c.4-.1.7.2,1,.2l3.1.4c.3.5-.2.6-.6.8H3c-.2-.1-.4-.1-.3-.3s.2-.2.4-.3H2.8C2.6,44,2,43.9,1.6,44Z"/>
        <path class="a244a34c-4d5e-45e2-afce-133948089077" d="M0,44.2c.2-.1.5-.1.6.1s-.1.4-.3.5L0,45Z"/>
        <path class="c8f4fbcf-fbb7-4588-b7b2-3014fe74ebb7" d="M96,31c.6.4.6,1.1.8,1.7a.4.4,0,0,1-.4.4c-.5,0-.7.3-1.2.5s.4-.1.5.1h-.1c-.1.1-.5,0-.4.3s.4.2.6.1.5-.4.9-.4.5.3.3.5a1.7,1.7,0,0,1-1.4.8c-.4-.1-.4.3-.2.5s-.5.6-1.2.4-.2-.2-.2-.4a1.2,1.2,0,0,1-1.2.2h-.1a1.5,1.5,0,0,0-1.7.5c-.2.1-.4,0-.6,0l-.7-.2-1,.4c-.3.1-.4-.1-.4-.3a.2.2,0,0,1,.1-.4l1.3-.3a8,8,0,0,1,2-.7l.7-.2,1.2-.2h.1c-.4,0-.7.3-1-.1V34a1,1,0,0,1,.5-.4c.4-.1.5-.3.4-.6h0c0-.1-.1-.1-.2-.1h.2c0,.5-.5.6-.9.7l-.3-.2-.5-.3c-.2-.2-.7-.1-.6-.4s.5-.3.8-.3a11.1,11.1,0,0,0,3-.8l.3-.4C95.5,30.9,95.7,30.9,96,31Z"/>
        <path class="eb427bed-6cc5-4100-afc9-579d1d2c203b" d="M71.1,4.3a3.4,3.4,0,0,1,1.2.6c.3.2.5.5.9.6s.3.2.3.4a8.8,8.8,0,0,1-.2,1.7c-.1.2.1.4.2.5a1.4,1.4,0,0,1,.1,1.5c-.1.4-.4.8-.3,1.3l-.2.2h-.2c-.2-.2-.3-.4-.6-.5A.7.7,0,0,1,72,10c.1-.2,0-.4-.2-.6l-.3.2A22,22,0,0,1,69,11.3c-.5.2-.6.7-1,1l-.7.6a.4.4,0,0,1-.5.1c-.2-.1-.2-.3-.1-.5a4.5,4.5,0,0,1,1-1.4l1.1-1c.5-.1.5-.7.9-.8a.5.5,0,0,0,.3-.5V8.2c-.1-.4.1-.6.5-.8s.3-.2.3-.4a7.3,7.3,0,0,1,.9-.8c.1-.1.2-.1.3-.3h-.1l-.2-.3c0-.4-.1-.5-.5-.5s-.4-.2-.5-.4S70.9,4.3,71.1,4.3Z"/>
        <path class="a244a34c-4d5e-45e2-afce-133948089077" d="M94.8,29.2c.3,0,.7-.3.9.2s.6.8-.1,1.2-.9.4-1.4.5-.4-.2-.6-.3.1-.3.5-.7a4.6,4.6,0,0,0-1.6.7c-.2.2-.6.2-1,.3s-1.3.7-2.1.6-.7-.1-1,.1-.6-.2-.6-.4.4-.2.4-.4l.3-.2a9.1,9.1,0,0,0,1.4-.7,5,5,0,0,1-1.2.2c-.3.1-.4-.1-.4-.4a2.4,2.4,0,0,1,1.3-1.1c.1,0,.2-.1.1-.3h-.2a.3.3,0,0,1-.3-.3c0-.2.2-.3.4-.3l1.3-.2c.4.1.6-.1.6-.5s.2-.5.6-.4a3.8,3.8,0,0,0,1,.3c.4.3-.2.3-.1.6s.5.7.4,1.2-.3.2-.2.4a.4.4,0,0,0,.5,0C94.1,29.2,94.4,28.9,94.8,29.2Z"/>
        <path class="42701b45-bc69-44f4-b5c6-76d0590d2b11" d="M64.6,8.9c-.2,0-.1-.6-.5-.2s-.1-.2-.1-.3.1-.6-.2-.9l-.3.7c-.1.1-.3.3-.5.1s-.2-.3-.1-.5A2.2,2.2,0,0,0,63,6.2c-.3-.4,0-.7,0-1.1s-.2-1.2-.1-1.8a.8.8,0,0,1,.2-.7c.3,0,.6-.2.9,0s.8.4,1,.8a1,1,0,0,1-.1,1.2c.3-.1.5-.6,1-.5s.3.3.3.5a15.5,15.5,0,0,1-.4,2.1c-.1.2-.1.3.1.4s.3.4.1.7-.1,1.1-.7,1.5S64.9,9,64.6,8.9Z"/>
        <path class="80061e88-291b-4417-9e1b-d4a98ec0ef9b" d="M74.2,18.8c-.8-.1-1.1-.4-.7-1l.2-.3a.9.9,0,0,1,.4-.8c.2-.2.3-.3.2-.5a2.1,2.1,0,0,1,1-1.4c.2-.1.4-.3.3-.5s-.4.8-.9.4a1,1,0,0,1-.5-.4c-.2-.1-.1-.4-.1-.6h0a4,4,0,0,0,1.3-1.3c.3,0,.6.3,1,.2a1.4,1.4,0,0,0,1.1.1h.1c.3,0,.1-.3.3-.3s.7-.4,1.2.1h.2c.5.4.5.6.2,1.2h-.1c-.9-.2-1.1.4-1.4.9a.2.2,0,0,1-.2.2.9.9,0,0,0-.9,1.1l-.6.4h-.2l-.3.4v.2l-.5.7-.4.3Z"/>
        <path class="7a98582e-52f6-4254-a912-67f06d16a1ae" d="M2.2,39.6a8.3,8.3,0,0,1,3.5.5c.6.3,1.1,1.3.8,1.8s-.8.5-1.3.6a13.7,13.7,0,0,1-3.5,0c-.5,0-.9-.3-1.3-.2s-.3-.1-.2-.2a5.2,5.2,0,0,1,1.2-2.6C1.7,39.3,2,39.5,2.2,39.6Z"/>
        <path class="30dfdf6f-1676-40ce-ba2c-55bc0e757b9c" d="M96.7,37.1h.2c0,.2-.2.4,0,.7s-.1.5-.4.6-.7.3-.7.7-.5.3-.8.1l-.4-.2c.3.1.5.3.3.6H92.5a6,6,0,0,0-2.3.1H89c-.3.1-.4-.1-.4-.4a.5.5,0,0,1,.5-.4l1.6-.2c.2-.1.4-.1.5-.3s.4.1.6,0-.4-.1-.6,0l-.5-.2c-.1-.2-.7-.1-.5-.5a5.3,5.3,0,0,1,1.2-.3l1-.2c.1,0,.2,0,.2.1h1c.2,0,.3.1.5,0a2.8,2.8,0,0,0,1.2-.4h1.3A.1.1,0,0,1,96.7,37.1Z"/>
        <path class="39c942c1-3141-496d-bf28-55792d2b3590" d="M92.4,41.9h-.3a13.3,13.3,0,0,1-2,0c-.3,0-.6.1-.6-.2a6.5,6.5,0,0,1,2-.4.9.9,0,0,0,.8-.4H91a8.1,8.1,0,0,0-2.2,0h-.2c0-.2,0-.3.2-.4a1.6,1.6,0,0,1,1-.2,6.6,6.6,0,0,0,1.4,0c.4,0,.7-.3,1.1-.3h1.2c.4-.2.9,0,1.3-.2h0c.4-.2,1-.1,1.4-.4a.7.7,0,0,1,.6.2h.1c.7.5.8.5,0,1.1s.5,0,.5.2-.2.1-.4.1-.7-.1-.7.4-.5.2-.7.2l-1.5.2c-.4,0-.7-.1-1,.1S92.7,41.8,92.4,41.9Z"/>
        <path class="28eaeaf1-cc06-4f47-9f2f-a96f1d42f0d5" d="M42.3,6.3A8.6,8.6,0,0,1,42,4.6a1.1,1.1,0,0,0-.3-.8c-.2-.2-.4-.3-.5-.5a1.3,1.3,0,0,0-.6-.9H40c-.3,0-.6,0-.6-.4l.6-.2a1.9,1.9,0,0,1,1-.5l1.7-.2c.6,0,.7.1.6.7a23,23,0,0,0,.3,2.6,24.8,24.8,0,0,1,.3,2.7c-.1.2.2.4-.1.6a.6.6,0,0,1-.6,0c-.3-.2-.5-.4-.2-.7s.1-.3-.2-.4Z"/>
        <path class="f71f47e1-9da3-41bc-a178-c1d134f0c115" d="M74.7,19.3c-.4,0-.4-.1-.2-.3a.9.9,0,0,1,.4-.6l.6-.4h.4l.5-.4c.3-.2.9,0,.9-.5s.3-.4.4-.7h0l.2-.2c.4-.1.5-.6.9-.8a2.8,2.8,0,0,1,1.6-.5c.4.1.6.4.9.6a.7.7,0,0,1,0,1.1c-.6.1-1,.6-1.5.8s-.6.2-.7.5a.6.6,0,0,1-.5.6,1.2,1.2,0,0,0-1,1l-.5.5c-.2,0-.2.3-.4.3s-.6-.5-.9-.7S75.1,19.4,74.7,19.3Z"/>
        <path class="39c942c1-3141-496d-bf28-55792d2b3590" d="M89.3,31.4a3.6,3.6,0,0,0,2.2-.7c.3-.1.6-.3,1,0s0-.5.4-.6a5.1,5.1,0,0,1,1.7-.3c.1,0,.3,0,.3.2s-.1.2-.2.2a3.3,3.3,0,0,0-1,.6h0l-.4.4c-.2.6-.5.7-1.5.7h-.2c.2.3.4.3.6.2a8.3,8.3,0,0,1,1.5-.4,1.4,1.4,0,0,1,1.1-.1c.2,0,.4,0,.5.3l-3.8.8c.2.1.5.1.6.3a1.4,1.4,0,0,1-1.2.4,5.3,5.3,0,0,0-1.3.1c-.5-.1-.6-.3-.4-.7s.1-.4.2-.5-.5.3-.8,0-.3-.3,0-.4S89.1,31.7,89.3,31.4Z"/>
        <path class="c8f4fbcf-fbb7-4588-b7b2-3014fe74ebb7" d="M53.4,3.6c0,.5-.1,1.1-.1,1.6s-.2.3-.4.1a.9.9,0,0,1-.1-.5A3.4,3.4,0,0,0,52,2.7c-.4.3,0,.7-.4.8a.8.8,0,0,0-.4.7c-.1,1.4.2,2.7.1,4.1s.1.4-.1.5-1.9-4.7-.5-6.5c.2-.3.3-.6.7-.7a.9.9,0,0,1,1.2.7,1.4,1.4,0,0,1,.7.8C53.4,3.2,53.3,3.4,53.4,3.6Z"/>
        <path class="0fc5c830-6b77-4284-a354-2c8d7817d260" d="M11.9,36.1a28.6,28.6,0,0,1-.7,2.8c-.1.8-.3.8-1.1.7a19.4,19.4,0,0,0-2.4-.2l-1-.2c-.3-.2-.6-.1-1-.1a.8.8,0,0,1-.8-.3c0-.7.5-.1.8-.2s-.4-.2-.1-.4.5-.1.8-.1a21.8,21.8,0,0,1,2.9.5,10.9,10.9,0,0,0-2.2-.4,1.4,1.4,0,0,1-.2-.6.7.7,0,0,1,.6-.2,2.5,2.5,0,0,1,1.9.2l.8.2a1.2,1.2,0,0,0,1.2-.8,6.9,6.9,0,0,0,.4-1C11.9,36,11.9,36,11.9,36.1Z"/>
        <path class="80061e88-291b-4417-9e1b-d4a98ec0ef9b" d="M71,7.1h.3c-.2.1-.3.4-.6.4a.5.5,0,0,0-.5.5c0,.1,0,.3-.1.3a1.4,1.4,0,0,0-.8.7c-.4.2-.6.6-1.1.6a10.1,10.1,0,0,0-1.9,2.7c-.2.2-.2.4-.4.6s-.6-.7-.4-1.2a9.2,9.2,0,0,1,2.4-3.5l.8-.5.4-.2,1.1-.4.5-.2Z"/>
        <path class="07c70756-c781-4109-abc0-b524ab351329" d="M84.8,27.8a2.5,2.5,0,0,0-1.5.6c-.3.2-.5.2-.7-.2s-.3-.6-.8-.7l1.6-.8c.2-.3.4-.3.6-.5s.6-.2.8-.5a1.1,1.1,0,0,1,.6-.3h.5a1.2,1.2,0,0,0,1-.3c.2-.1.6-.2.8,0a1,1,0,0,1,.2.9.8.8,0,0,1-.8.3c-.4-.2-.7,0-1,.1a.1.1,0,0,1-.1.1l-.5.4c-.4.1-.2.4-.2.5s-.1.2-.2.2Z"/>
        <path class="f46ca843-9dc7-4a86-9279-8db55dd99280" d="M11.9,36.1h-.1c.2-.6-.1-.8-.6-1s-1.4-.2-2-.5-1.7-.1-2.4-.6-.3-.1-.5-.2-.4-.2-.1-.5.2-.1.3-.3.2-.2.4-.1a5,5,0,0,1,1.3.4l1.2.4,2.6.7a.5.5,0,0,1,.4.8A9.3,9.3,0,0,0,11.9,36.1Z"/>
        <path class="7a98582e-52f6-4254-a912-67f06d16a1ae" d="M63.2,2.8a3.5,3.5,0,0,0,.2,1.7c.2.2-.1.4-.2.6s-.3.4-.3.6a1.2,1.2,0,0,1-.5.7l-.7,2.1-1.1-.4.9-2.2c0-.7.4-1.2.4-1.8V3.9h0c-.1-.4-.6-.6-.1-1l.5-.4c.3,0,.6-.1.8.1S63.3,2.7,63.2,2.8Z"/>
        <path class="30dfdf6f-1676-40ce-ba2c-55bc0e757b9c" d="M39.4,2.1c.2.2.5.1.8,0s.3-.1.5,0,.2.5.3.8a.7.7,0,0,1-.1.5V5.5c0,.6-.3.8-1,.7s-.3-.3-.3-.4-.3-2.2-.6-3.3S39,2.1,39.4,2.1Z"/>
        <path class="eb427bed-6cc5-4100-afc9-579d1d2c203b" d="M12.3,21.3a2.3,2.3,0,0,1,2.1-.4,6.6,6.6,0,0,1,3,1.2,1.5,1.5,0,0,1,.7,1.8c-.1.2-.2.4-.4.3s-.1-.2,0-.3a.7.7,0,0,0-.4-.7,14,14,0,0,0-1.7-.9l-2-.7C13.2,21.4,12.7,21.5,12.3,21.3Z"/>
        <path class="c8f4fbcf-fbb7-4588-b7b2-3014fe74ebb7" d="M60.7,4.9c-.3-.1-.3.2-.3.3a5,5,0,0,0-.5,1.3h-.4c-.7.2-1-.1-.8-.7s.1-.3-.1-.5-.1-.4-.2-.6-.2-.6-.1-.9a1.9,1.9,0,0,1,.1-.8l.3-.2a1.8,1.8,0,0,1,1-.2c.3.1.5.2.5.5a.9.9,0,0,0,.1.5.3.3,0,0,0,.3.3.6.6,0,0,1,.6.2c.5.3.2.7,0,1S60.8,5,60.7,4.9Z"/>
        <path class="717d5966-7796-4300-a681-e76fe08166a7" d="M7.5,37.4l-.5.2a.2.2,0,0,1-.2.2H5.6c-.2,0-.4,0-.5.2s.6,0,.6.4,0,.2.3.3-.8-.1-1.1.3a5.7,5.7,0,0,1-1.3,0H2.2c-.3,0-.7.1-.7-.4a1.1,1.1,0,0,1,.3-.7l.3-.7a1.8,1.8,0,0,1,1.6-.1,11.1,11.1,0,0,0,2.6.1C6.7,37.3,7.2,37.1,7.5,37.4Z"/>
        <path class="f46ca843-9dc7-4a86-9279-8db55dd99280" d="M58.6,5.3c.3,0,.5.2.4.5s-.2.6.4.5a.4.4,0,0,1,.5.2,6.7,6.7,0,0,1-.7,1.8,3.5,3.5,0,0,1-.3,1.1,1.5,1.5,0,0,0-.5.7c-.9-.3-.8-.3-.6-1.1a25.1,25.1,0,0,0,.4-2.7A4.2,4.2,0,0,1,58.6,5.3Z"/>
        <path class="a244a34c-4d5e-45e2-afce-133948089077" d="M8.6,29c1.5,1.1,3.4,1.2,5,1.9s.6,0,.4.4-.2.5-.7.4a19.5,19.5,0,0,0-2.2-.8c-.4-.1-1.1-.1-1.3-.6s-.7-.2-1-.3-.9-.6-.8-1.1S8.4,28.8,8.6,29Z"/>
        <path class="cd8be5a9-1e7e-4555-ad57-f7ef5d07c8a6" d="M74.4,14.3a.9.9,0,0,1,.5.3c.3.1.3.1.6-.2s-.4.1-.6-.1a.5.5,0,0,1,.7-.1.4.4,0,0,1,0,.5,8.3,8.3,0,0,0-1.1,1.5,2.4,2.4,0,0,1-1.2,1c-.3-.1-.3.2-.5.2s-.3.2-.4,0-.5-.4-.7-.6.2-.8.5-1h.7c.3-.1.5-.2.5-.5s.7-.5.8-.9Z"/>
        <path class="42701b45-bc69-44f4-b5c6-76d0590d2b11" d="M72,9.2c.4.2.8.4.3.9s.1.2.2.3a.5.5,0,0,1,.4.6h0c-.3.1-.8-.1-.8.4s-.6.7-1.1.9-.6.1-.8.4a.7.7,0,0,1-.7.5c-.7-.3-.8-.4-.5-1s.6-.4.7-.8l1-.8c.4-.3.5-.8.9-1.2S71.7,9.2,72,9.2Z"/>
        <path class="42701b45-bc69-44f4-b5c6-76d0590d2b11" d="M29.6,8.1v.2c.1.2-.1.4,0,.6s-.2.4-.4.6-.4-.1-.6-.2L27.4,6.7c-.2-.2,0-.4.1-.5a2.6,2.6,0,0,1,.9-.5c.6.1.4.7.8,1V7A1.5,1.5,0,0,1,29.6,8.1Z"/>
        <path class="0fc5c830-6b77-4284-a354-2c8d7817d260" d="M53.2,4.7c0,.2-.3.5.1.5h0a.8.8,0,0,1,0,1.1c-.1.9-.2,1.8-1.1,2.3s-.3.2-.4.1-.2-.2-.1-.4.5-2.8.3-4.2h0c.1-.3.3-.2.4,0A2.7,2.7,0,0,1,53.2,4.7Z"/>
        <path class="39c942c1-3141-496d-bf28-55792d2b3590" d="M9.7,32.4a1.8,1.8,0,0,1-1.2-.3c-.2-.2-.6,0-.9-.3s.1-.6.6-.6h.6c1.4-.3,2.4.7,3.6,1.1l.5.2c.1.2.4.3.2.6s-.2.4-.6.2L11.4,33l-.9-.5c-.1-.2-.4-.2-.7-.1Z"/>
        <path class="0fc5c830-6b77-4284-a354-2c8d7817d260" d="M63.1,6.3l.3.9a.8.8,0,0,1-.3.9c.1.2.3,0,.4.1a6.6,6.6,0,0,1-1.1,2.6c-.1.1.1.5-.3.5s-.7-.1-.5-.6.9-2.5,1.3-3.8.1-.4.1-.6Z"/>
        <path class="c4a2fb4e-60e6-42d6-ac15-ce491af2000b" d="M54.8,7.3l.3-2.8a.8.8,0,0,1,.9.1l.6.8c-.1,1-.3,2-.5,3s0,.2-.2.3-.2,0-.3,0a.9.9,0,0,1-.1-.7c0-.2,0-.4-.3-.3S54.7,7.6,54.8,7.3Z"/>
        <path class="f210dc4e-55d3-40d2-b1be-cf2ae13d4501" d="M37,5a9.4,9.4,0,0,0-.6-2.4.4.4,0,0,1,.1-.3,3.3,3.3,0,0,1,1.4-.4c.2,0,.2.1.2.2s.3,1.7.3,2.6S37.6,5.1,37,5Z"/>
        <path class="80061e88-291b-4417-9e1b-d4a98ec0ef9b" d="M98.5,42c.5.2.2.7.4,1s0,.3-.2.4-.8.3-.7.8a3.9,3.9,0,0,1-1.7,1.1c-.4,0-.4-.2-.3-.4a.5.5,0,0,1,.3-.5c.1-.2.2-.2.4-.1h-1c-.1-.3.1-.5.1-.8h.4c.3.1.6.1.6-.3s.3-.2.3-.4S97.8,41.6,98.5,42Z"/>
        <path class="f46ca843-9dc7-4a86-9279-8db55dd99280" d="M28.6,9.3a.5.5,0,0,0,.7-.4c0-.2.2-.4.3-.6s.5,1.4.9,2.1,0,.6.4.7a1.1,1.1,0,0,1,.1.5c0,.4-.5.4-.6.7h-.6a8.9,8.9,0,0,0-.8-1.7v-.4c0-.1-.1-.1-.2-.1A3.2,3.2,0,0,1,28.6,9.3Z"/>
        <path class="30dfdf6f-1676-40ce-ba2c-55bc0e757b9c" d="M56.6,5.4c-.6-.1-.9-.7-1.5-.9V3.7c.1-.6.5-.7,1-.7a1.6,1.6,0,0,0,.9-.9c.2-.3.4-.3.7-.1s-.3.6-.2,1,.1.3,0,.5-.1.4-.4.5Z"/>
        <path class="0fe0509b-8801-408e-89cd-e71e9d40c21b" d="M46.5,3.5l-.3-.2V2.9c.1-.3.4-.3.6-.4s-.1-1.1.3-1.6A1.6,1.6,0,0,1,48.3.5a.4.4,0,0,1,.2.5c0,.4-.1.8.1,1.1v.5a.9.9,0,0,1-.2.9,1.5,1.5,0,0,1-1.3.1h-.6Z"/>
        <path class="30dfdf6f-1676-40ce-ba2c-55bc0e757b9c" d="M92.7,33.5c.2-.3.6-.3.9-.6s0-.1.1,0h.1c.5.6.5.6-.2.8l-.7.3a.8.8,0,0,1-.7.3,1.2,1.2,0,0,0-.8.4c-.3.2-.6-.1-.9-.1a5.8,5.8,0,0,0-1.9-.2.2.2,0,0,1,0-.3l1.2-.5c.3-.1.7.1,1-.1l1.2-.2C92.3,33.4,92.5,33.3,92.7,33.5Z"/>
        <path class="0fc5c830-6b77-4284-a354-2c8d7817d260" d="M69.6,13.1c.2-.2.5-.4.3-.8s0-.1.1-.1h.9c.2.2.1.4,0,.6a1.7,1.7,0,0,0-.3,1,.7.7,0,0,0,.3.9c.1.3.5.5.4.8l-.5.5c-.3-.1-.7,0-.9-.3s-1.1-.8-.6-1.6,0-.4.1-.7-.1-.1,0-.2Z"/>
        <path class="0fc5c830-6b77-4284-a354-2c8d7817d260" d="M66,7.8c0-.2,0-.5-.4-.4s-.8,0-.3-.5a3.5,3.5,0,0,0,.5-2c.1-.2.3-.5.1-.7s.2-.5.5-.6A.4.4,0,0,1,67,4a.3.3,0,0,1,.1.2c.1.4,0,.7.1,1.1a.7.7,0,0,1-.2.6c-.1.2,0,.5-.2.7l-.6,1Z"/>
        <path class="0fc5c830-6b77-4284-a354-2c8d7817d260" d="M16.9,26.3l-.2.3c-.1.3-.2.3-.5.1A6.8,6.8,0,0,0,14,25.5c-.4-.1-.6-.5-1-.5s-.3-.2-.2-.3-.2-.5.1-.5h.4a12.3,12.3,0,0,0,2.6,1.2,1,1,0,0,1,.5.4C16.5,25.9,16.9,26,16.9,26.3Z"/>
        <path class="28eaeaf1-cc06-4f47-9f2f-a96f1d42f0d5" d="M37,5c.3-.6.9-.3,1.4-.3s.2,1.4.2,2.1a1.7,1.7,0,0,1-.1.7c.1.2,0,.3-.2.3s-.2-.2-.3-.4h0c.3.6.2.6-.3.6Z"/>
        <path class="af1d2dca-b1f8-4883-8644-97ca07b9dc75" d="M42.3,6.3c.3-.1.6.1,1,0s.4.5.2.7l-.4.4.2.2c.3,0,.3,0,.3-.2s.2-.1.3-.2a1.5,1.5,0,0,1,0,1.8h-.3a.2.2,0,0,0-.4-.1l-.4.4c-.3-.1-.1-.3-.2-.5A19.7,19.7,0,0,0,42.3,6.3Z"/>
        <path class="30dfdf6f-1676-40ce-ba2c-55bc0e757b9c" d="M13.9,22.6c1.1.5,2.4.7,3.1,1.7h.2c.2.1.6-.1.5.2a.7.7,0,0,1-.8.2l-3.3-1.5c-.1-.2-.5-.3-.4-.6S13.7,22.6,13.9,22.6Z"/>
        <path class="39c942c1-3141-496d-bf28-55792d2b3590" d="M60.6,8.1h.1c.4,0,.3-.6.7-.4s.2.5.3.8l-.6,2c-.1.2-.2.5-.4.3s-.9,0-.7-.5S60.5,8.8,60.6,8.1Z"/>
        <path class="dacbbc74-7f30-480e-b754-251f69800861" d="M24.7,9.1V8.9c.1-.2.2-.5.4-.5s.3.3.4.5a10.8,10.8,0,0,0,1.2,2.4c.3.4-.2.7-.1,1s-.4.3-.7.3a.5.5,0,0,1-.5-.4,7.8,7.8,0,0,1-.5-1.4c.1-.3.5-.5.4-.8s0-.4-.3-.5S24.8,9.2,24.7,9.1Z"/>
        <path class="c8f4fbcf-fbb7-4588-b7b2-3014fe74ebb7" d="M6.2,33.2a.4.4,0,0,0,.4.4c.4-.1.2.2.2.3a4.1,4.1,0,0,0-3,.8c-.2.2-.3,0-.3-.2s0-.4.1-.6.2-.1.1-.2-.1-.2-.2-.3a1.5,1.5,0,0,1,.4-1.1c.4-.3.6,0,.9.2s.2.4.4.6Z"/>
        <path class="c4a2fb4e-60e6-42d6-ac15-ce491af2000b" d="M46.7,3.5c.5,0,1.1-.4,1.7,0s.2-.1.3.1a13.4,13.4,0,0,1,.7,1.8c-.3.4-.7.3-1,.3s-.4-.2-.3-.4-.1-.4-.3-.5h-.4c0,.1-.1.1-.3.1S46.6,4.1,46.7,3.5Z"/>
        <path class="cd8be5a9-1e7e-4555-ad57-f7ef5d07c8a6" d="M41.1,6.4c.1.7.1,1.3.2,1.9s.1.4-.1.6-.3.6-.9.4a25.4,25.4,0,0,1-.4-2.9l.7-.2C40.9,6.1,41,6.2,41.1,6.4Z"/>
        <path class="39c942c1-3141-496d-bf28-55792d2b3590" d="M90,28.4c.2.1.2.2.2.4s-.3.2-.5.2-.5-.1-.1.2,0,.1-.1.1-.6.5-1,.7a2.2,2.2,0,0,1-1.5.6,2.4,2.4,0,0,0-.2-.8.4.4,0,0,1,.2-.5l.7-.6c.6.3,1.1-.1,1.6-.3S89.7,28.3,90,28.4Z"/>
        <path class="cd8be5a9-1e7e-4555-ad57-f7ef5d07c8a6" d="M13,25.9a14.7,14.7,0,0,1,2.8,1.4c.1.1.3.1.2.3l-.3.3c-.5,0-.9-.1-1.1-.5s-.8-.1-1-.4-.9-.4-1.4-.4v-.2c.1-.2.2-.5.6-.5Z"/>
        <path class="39c942c1-3141-496d-bf28-55792d2b3590" d="M7.5,40.8c-.2.1-.5,0-.7,0s-.1-.3,0-.5.1,0,0-.1-.1-.1,0-.2a28.1,28.1,0,0,1,2.9,0h.7c.5.1.5.3.3.6s-.7.1-1.1.1A5,5,0,0,0,7.5,40.8Z"/>
        <path class="0fe0509b-8801-408e-89cd-e71e9d40c21b" d="M32,7.9h-.1a1.2,1.2,0,0,1-1.4.1l-.3-.5c-.5-1.1-.5-1.1.6-1.7s.6.6.9.8A2.4,2.4,0,0,1,32,7.9Z"/>
        <path class="eb427bed-6cc5-4100-afc9-579d1d2c203b" d="M6,45.3a1.8,1.8,0,0,1,1-.2H9.3c.2.1.5.2.4.4s-.4.1-.6.2H6.3c-.2-.1-.5.1-.6-.1S5.9,45.4,6,45.3Z"/>
        <path class="28eaeaf1-cc06-4f47-9f2f-a96f1d42f0d5" d="M82,25.5h-.3c-.6.1-.7,0-.6-.5s.4-.9,1-.6.7.2,1.1-.1h.3a.5.5,0,0,1,.5.3.7.7,0,0,1,.4.8,2,2,0,0,1-1.2.6h-.4A1.4,1.4,0,0,1,82,25.5Z"/>
        <path class="93ef9f1a-d39b-48f0-866a-8f1d9b3e6199" d="M12,26.4c-.5.1-.1-.4-.4-.4a3.2,3.2,0,0,1-.9-.3c-.3-.1-.6-.1-.8-.4s-.6.1-.3-.2.4-.7.8-.5L13,25.9h-.1C12.6,26,12.4,26.3,12,26.4Z"/>
        <path class="f210dc4e-55d3-40d2-b1be-cf2ae13d4501" d="M35.4,7.4l-.2-1.1c.1-.3-.2-.8.6-.7s.3.3.5.4.3.2.3.3a5.2,5.2,0,0,1,.2,1.1v.2a.6.6,0,0,1-1.1.1Q35.7,7.5,35.4,7.4Z"/>
        <path class="7528690b-856e-4665-bfae-e9df0c07956e" d="M46.8,5.1a13.1,13.1,0,0,0,.9,3.4c.1.4-.4.4-.6.6s-.5,0-.5-.4,0-2.1-.1-3.1S46.3,5.1,46.8,5.1Z"/>
        <path class="80061e88-291b-4417-9e1b-d4a98ec0ef9b" d="M53.2,4.7A2.4,2.4,0,0,1,52,4a1,1,0,0,0-.4-.5c-.1-.2-.1-.5-.2-.7s-.3-.4.1-.5a.5.5,0,0,1,.7.2A4.4,4.4,0,0,1,53.2,4.7Z"/>
        <path class="c8f4fbcf-fbb7-4588-b7b2-3014fe74ebb7" d="M6.3,37.2a3.3,3.3,0,0,1-2.4.2,11,11,0,0,0-1.8-.2c.1-.2,0-.6.5-.6s.8,0,1.2,0A11.4,11.4,0,0,0,6.3,37.2Z"/>
        <path class="cd8be5a9-1e7e-4555-ad57-f7ef5d07c8a6" d="M14.3,29.2c-.6,0-1-.5-1.6-.7s-.1-.2-.2-.1-.5-.2-.5-.5l-.3-.6h0a1.7,1.7,0,0,1,1.4.5,7.5,7.5,0,0,0,1.3.6C14.3,28.7,14.7,29,14.3,29.2Z"/>
        <path class="93ef9f1a-d39b-48f0-866a-8f1d9b3e6199" d="M7.8,42.5c.3-1,.3-1,1.5-.8l1,.2c.4.2.2.5.2.7s-.4.1-.6,0H9.1C8.7,42.4,8.3,42.6,7.8,42.5Z"/>
        <path class="93ef9f1a-d39b-48f0-866a-8f1d9b3e6199" d="M3.6,43.8c0-.2.4-.3.5-.6a7.2,7.2,0,0,0,2.1.1c0,.4-.3.7-.4,1s-.2.2-.3.1H4.6L4,44.1C3.9,44,3.7,44.1,3.6,43.8Z"/>
        <path class="30dfdf6f-1676-40ce-ba2c-55bc0e757b9c" d="M9.1,43.3h.3c.3.1.7-.1.8.1a.9.9,0,0,1-.3.9,17.7,17.7,0,0,0-2.3-.1c-.2,0-.5.1-.7-.1a.2.2,0,0,1,0-.3v-.2c.3-.2.7-.1,1-.3H8C8.4,43.5,8.8,43.3,9.1,43.3Z"/>
        <path class="23651960-ea5d-403a-b301-539d5d097b27" d="M11.7,27.3c-.5.5-1.1.2-1.5-.1s-1,0-1.3-.5.5-.4,1-.3l1.5.4c.2.1.6.2.3.5Z"/>
        <path class="c8f4fbcf-fbb7-4588-b7b2-3014fe74ebb7" d="M13.3,24.1c0,.3-.6.1-.5.6a5.3,5.3,0,0,1-1.2-.3h0c-.1-.5-.4-.3-.7-.3s-.2-.5-.1-.7.4-.5.8-.2.3.2.3.4S12.9,23.9,13.3,24.1Z"/>
        <path class="cd8be5a9-1e7e-4555-ad57-f7ef5d07c8a6" d="M47.4,4.8c.1-.3.2-.2.4-.1s.6.3.9-.2-.5.6-.4,1.1.7-.2,1.1-.2a1.5,1.5,0,0,1-.1,1.3H49c-.1-.2-.5-.3-.6-.5s-.4-.7-.6-1S47.7,4.8,47.4,4.8Z"/>
        <path class="834d2106-df73-41d0-988d-2c22533406c5" d="M83.2,24.6h-.1c-.2.7-.5.8-1,.3s-.7-.2-1,.1-.9-.2-.3-.7a1.5,1.5,0,0,1,.9-.6,5,5,0,0,1,1.2.2A.4.4,0,0,1,83.2,24.6Z"/>
        <path class="f622c4f2-274f-4f8e-a02a-b11deae4dbe5" d="M21.8,14.4a9,9,0,0,1-1.5-1.9c-.2-.2-.2-.4.1-.4s.2-.2.4-.1l.9.6c.3.2.7.3.4.8s-.1.4-.1.6S22.1,14.3,21.8,14.4Z"/>
        <path class="f46ca843-9dc7-4a86-9279-8db55dd99280" d="M38.1,7.3c.2,0,0,.6.4.2A3.1,3.1,0,0,1,39,9.3c-.2.4-.5.2-.7,0s-.8-.7-.6-1.2.1-.5.2-.7Z"/>
        <path class="5993c818-18ce-49c8-8290-50f874b752b9" d="M26.2,13.5a2.1,2.1,0,0,1,0,1.1.5.5,0,0,1-.9.2l-.5-.5a.8.8,0,0,1,.5-.9A.6.6,0,0,1,26.2,13.5Z"/>
        <path class="a244a34c-4d5e-45e2-afce-133948089077" d="M54.8,7.3v.4c.1-.3.1-.6.3-.8s.9,1,.5,1.7-.1.4-.4.5h-.1c-.3-.3-.8-.5-.5-1S54.6,7.5,54.8,7.3Z"/>
        <path class="717d5966-7796-4300-a681-e76fe08166a7" d="M90.1,37.4l-1.3.3c-.3,0-.3-.1-.4-.2s.1-.3.3-.3l1.2-.3a.8.8,0,0,1,.8-.3c.4.2.7.3.6.8A.9.9,0,0,1,90.1,37.4Z"/>
        <path class="0e3cb297-0e22-4b4f-8080-4ee4d869d278" d="M6,45.3c-.3.5.1.5.4.6a1.4,1.4,0,0,1-1.1,0H3.9c-.1-.1,0-.2.1-.4A1.8,1.8,0,0,1,6,45.3Z"/>
        <path class="39c942c1-3141-496d-bf28-55792d2b3590" d="M77.4,21.7h-.1c0-.5-.6-.4-.7-.8s.2-.3.5-.4l1.6-.2h.1c.1.1.2.2.1.3s-.1.6-.3.8S77.9,22.1,77.4,21.7Z"/>
        <path class="871250a1-0f9d-40a5-8f3e-e594518754f5" d="M18.6,22.3c-.3.1-.4,0-.2-.3s.1-.4-.1-.4-.5-.4-.5-.6.5-.5.8-.5.5.1.5.4.1.4.3.5.2.4,0,.5S19,22.5,18.6,22.3Z"/>
        <path class="05028aca-a2b3-4d7d-9623-8c7ecd0e0eb3" d="M21,20.2l.5.2c.3.1.4.3.2.5s-.7.3-1,.1l-.9-.7c-.1-.1-.4-.3-.1-.5s.3.1.4.2.2.2.2.3S20.8,20.1,21,20.2Z"/>
        <path class="bdebfca3-8fdb-4b12-b89a-57873d002aa1" d="M35.4,7.4h.4c.3.3.6.3,1,0A1.6,1.6,0,0,1,36.5,9a.5.5,0,0,1-.8,0c0-.3-.2-.7.5-.8A1,1,0,0,1,35.4,7.4Z"/>
        <path class="23651960-ea5d-403a-b301-539d5d097b27" d="M13.6,30.2a6.4,6.4,0,0,1-1.9-.8c-.2,0-.5,0-.6-.2s0-.5.4-.5.5.3.8.3a1.3,1.3,0,0,1,.9.5l.4.4C13.7,30,13.9,30.2,13.6,30.2Z"/>
        <path class="f210dc4e-55d3-40d2-b1be-cf2ae13d4501" d="M11.5,29c-.2-.1-.3.1-.4.2s-.9-.2-1.3-.5-.3-.4,0-.6.4-.1.6,0l1.4.6C12,29,11.6,28.9,11.5,29Z"/>
        <path class="4f8b5475-582c-4022-b9c8-34fd99708c3a" d="M1.5,38.6c.1.2.4.2.6.2a26.2,26.2,0,0,1,2.8.1,14.1,14.1,0,0,0,2,.1c0,.2-.2.1-.2.2s-2.4-.4-3.6-.2L2,39.2a.4.4,0,0,1-.6,0C1.4,39,1.3,38.8,1.5,38.6Z"/>
        <path class="7a98582e-52f6-4254-a912-67f06d16a1ae" d="M89.5,41.6a9.6,9.6,0,0,0,1.7,0,1.5,1.5,0,0,1,.9.2,7.6,7.6,0,0,1-2.1.3H89c-.2.1-.3,0-.4-.2a.3.3,0,0,1,.3-.3Z"/>
        <path class="52a8abad-9dba-4e03-a7fa-5348c41b03c2" d="M38.3,9.3H39a1.9,1.9,0,0,0,.2.7c.2.7.1.9-.8.9s-.4-.5-.1-.8S38.3,9.6,38.3,9.3Z"/>
        <path class="0a18e039-a395-4473-a179-99678fe3f8e1" d="M45.9,1.7c-.1-.8.5-.7,1-.7h.2c.1.2.2.3.1.5s0,.8-.2,1.2l-.7-.4c-.1-.1.1-.2-.1-.2h-.3Z"/>
        <path class="05028aca-a2b3-4d7d-9623-8c7ecd0e0eb3" d="M74.7,19.3c.8-.7.9-.7,1.6-.1a.6.6,0,0,0-.2.5c.1.3-.1.5-.4.4S75.1,19.5,74.7,19.3Z"/>
        <path class="6248da60-dac9-4235-b284-999c53b5d6a3" d="M49.1,6.6h.2c0,.2.4.4.1.7l-.4.4a.4.4,0,0,1-.6,0c-.2-.4-.1-.8-.2-1.1S48.8,6.4,49.1,6.6Z"/>
        <path class="52a8abad-9dba-4e03-a7fa-5348c41b03c2" d="M24.2,11.2a8.3,8.3,0,0,1,.9,1.6h0a.5.5,0,0,1-.5.1l-.7-.2h-.1c-.3-.3-.2-.8-.3-1.2l.2-.2A.4.4,0,0,1,24.2,11.2Z"/>
        <path class="29435854-82bc-423d-92eb-dd420bd3d33f" d="M29.8,12.4h.3c.3,0,.5-.1.7,0s.8.6.2,1-.1.5-.5.4S29.8,12.9,29.8,12.4Z"/>
        <path class="9c488b8d-30d0-4a46-8dcc-21eb52e9ab0b" d="M23,13.8c-.2.2-.2.5-.5.6h-.2c-.5-.2-.3-.7-.5-1s-.2-.4-.3-.5-.1-.4.1-.5.2-.1.4,0A4.4,4.4,0,0,0,23,13.8Z"/>
        <path class="a244a34c-4d5e-45e2-afce-133948089077" d="M13.9,22.6l-.6.2a.4.4,0,0,1-.6,0c-.1-.1-.4-.1-.5-.3s-.3-.4-.1-.6.4-.2.7,0A10.5,10.5,0,0,0,13.9,22.6Z"/>
        <path class="6ccaf7fd-b213-474b-86ef-58608b1cb80f" d="M4.4,31a1.1,1.1,0,0,1,.8-.9c.3.1.2.4.2.5l.3,1.1c0,.1-.1.2-.2.3a.6.6,0,0,1-.7-.1c-.2,0-.2-.1-.3-.3A1.3,1.3,0,0,1,4.4,31Z"/>
        <path class="3c3b60ac-1960-4854-b08d-45629f0593dc" d="M91.9,33.5l-1.2.4c-.2-.3-.6-.1-.9-.4h-.2a11.1,11.1,0,0,1,2.5-.5c.2.1.4,0,.6.2S92.2,33.4,91.9,33.5Z"/>
        <path class="10e6c994-0c23-49c7-b863-c89d9e85451c" d="M8.8,31.3c-.4.2-1-.1-1.1.6H6.9c-.2,0-.4,0-.5-.2s.4-.5.7-.7.3-.2.3-.3l.3-.2C7.9,31,8.5,31,8.8,31.3Z"/>
        <path class="c555480d-1d26-4272-bd41-bbd20b31ed2a" d="M40.3,9.3a2.5,2.5,0,0,0,.9-.4v.2a.5.5,0,0,1,.1.8,1.4,1.4,0,0,1-.9.1C40.2,9.9,40.2,9.6,40.3,9.3Z"/>
        <path class="c555480d-1d26-4272-bd41-bbd20b31ed2a" d="M33.9,6.5c-.1-.6.1-1,.9-1.3s.5,0,.4.4-.5-.1-.4.2-.1.5-.2.7S34.1,6.6,33.9,6.5Z"/>
        <path class="d71426b8-3492-4200-b3cd-5eeab565d8ba" d="M24.5,12.8H25c.4.1.6.3.4.6s-.4.6-.6.8a4.6,4.6,0,0,1-.7-.7C24.3,13.3,23.9,12.8,24.5,12.8Z"/>
        <path class="e9934135-7dfa-44e2-8841-953d24acbceb" d="M48.4,7.8c.4,0,.5-.5,1-.4a1.9,1.9,0,0,1-.5,1.1c-.3.1-.6.3-.9,0S48,7.9,48.4,7.8Z"/>
        <path class="21fa109b-e1e7-4de5-b3d5-ea64c58196a0" d="M30.5,8.1A2.3,2.3,0,0,1,31.9,8c.1.2-.1.3-.1.4s.1.6-.5.5S30.8,8.4,30.5,8.1Z"/>
        <path class="39de380d-e52c-4356-857f-c9ad1e095f63" d="M69.5,13.2v.2a1.3,1.3,0,0,0-.6.7c-.3.5-.6.4-.8,0s.1-.4.2-.7.3-.6.9-.4Z"/>
        <path class="a8ec9440-9570-42c5-9d2a-a0423b2e7603" d="M30.5,13.7c.2-.2.3-.5.6-.7s-.1-.4-.3-.6.1-.4.4-.3.2.5.4.7a.2.2,0,0,1-.1.4c-.3.2-.6.3-.7.7s-.1.2-.2.1S30.5,13.9,30.5,13.7Z"/>
        <path class="a450288b-411a-4bec-add5-e6c8ac0c4bed" d="M13.6,30.2c-.1-.2-.5-.4-.4-.7s.5.3.8.3.5,0,.6.3a.5.5,0,0,1-.3.5c-.2.1-.4-.1-.6-.2S13.6,30.3,13.6,30.2Z"/>
        <path class="f210dc4e-55d3-40d2-b1be-cf2ae13d4501" d="M69.5,13.2c-.4.1-.9-.3-1.1.3s-.5.1-.7-.2a6.4,6.4,0,0,1,1.3-1c0,.4.1.8.6.8Z"/>
        <path class="361c2b94-c912-4421-bc24-ea4bfc88494c" d="M70.8,16c.1-.2,0-.4.4-.5s.4-.5,1.1-.1a.5.5,0,0,1,0,.5c-.2.2-.6.4-.6.9s-.2-.1-.3-.3.3-.4.2-.7S71.1,16.1,70.8,16Z"/>
        <path class="21fa109b-e1e7-4de5-b3d5-ea64c58196a0" d="M24.2,11.2l-.4.2c-.2-.1-.5-.1-.5-.4s-.2-.6.3-.8H24l.3.2Z"/>
        <path class="8a0d450d-dfc5-4a28-ba53-696d4f67f078" d="M25.4,13.5l-.4-.6h.1a1.1,1.1,0,0,0,.7-.3c.4.1.1.6.4.7s.2.2,0,.3-.2.4-.4,0Z"/>
        <path class="6ccaf7fd-b213-474b-86ef-58608b1cb80f" d="M33.9,6.5h.7v.9c-.1.3-.2.6-.6.4V7.5a.8.8,0,0,1-.2-.9Z"/>
        <path class="834d2106-df73-41d0-988d-2c22533406c5" d="M90,37.9h.2c.2.1.6,0,.5.4s-1.1-.1-1.6.2-.4.1-.4,0,.1-.3.2-.3S89.7,38.2,90,37.9Z"/>
        <path class="8260b1b0-0403-4eeb-b889-aa9ade68e982" d="M5.6,31.7c-.4-.1-.5-.3-.4-.6a1.2,1.2,0,0,0,0-1c.1-.1.2-.1.2.1l.3.5c.1.2.4.1.5.3s.1.3,0,.5H6.1c0,.1,0,.1-.1.2s-.2.1-.3,0Z"/>
        <path class="3a9630f3-5a87-46a4-a6de-f95bb90f344d" d="M23.7,11.5c.2.4.4.8.1,1.2s-.5-.5-.7-.7S23.2,11.4,23.7,11.5Z"/>
        <path class="c555480d-1d26-4272-bd41-bbd20b31ed2a" d="M4.7,31.5v.3c.4.5.3.6-.1.8s-.5-.2-.8-.3.2-.4.3-.6A.4.4,0,0,1,4.7,31.5Z"/>
        <path class="52a8abad-9dba-4e03-a7fa-5348c41b03c2" d="M3.5,33.4c.2-.1.3-.1.5.1s-.1.3-.2.5-.1.4-.3.5-.6.2-.4-.2A1.8,1.8,0,0,1,3.5,33.4Z"/>
        <path class="c1eec256-8b10-4555-a578-634fe209ad59" d="M16.8,18.3l-.3-.2c-.6-.3-.6-.4,0-.7s.5-.1.5.2a.5.5,0,0,0,.3.5C17.3,18.4,17,18.3,16.8,18.3Z"/>
        <path class="8d5b62bc-2efb-47e0-9633-c06b316a400e" d="M28.9,6.9l-.5-1.2c.3-.3.6-.4.8.2a4.3,4.3,0,0,1,.1.5C29.3,6.7,29.1,6.8,28.9,6.9Z"/>
        <path class="bdebfca3-8fdb-4b12-b89a-57873d002aa1" d="M4.7,32.6c.2-.2-.1-.6.1-.8h.6c.3.2,0,.4,0,.6a1.4,1.4,0,0,0-.2.6C4.8,33.1,4.9,32.7,4.7,32.6Z"/>
        <path class="c463e669-ebe6-44be-a6f6-bc07c9517939" d="M31.4,6.8c-.2.1-.2-.1-.3-.3s-.2-.4-.3-.6l.9-.4c.1.2,0,.4,0,.6a.2.2,0,0,1,0,.3A.4.4,0,0,1,31.4,6.8Z"/>
        <path class="eee15b1c-a97e-4aaf-b32e-45d6a0615c4e" d="M23.7,11.5c-.3.1-.6.2-.6.5s-.4-.9.2-1,.5.1.5.4Z"/>
        <path class="834d2106-df73-41d0-988d-2c22533406c5" d="M18.6,22.3c.2-.1.4-.4.7-.4a.3.3,0,0,1,.5,0c-.3.2-.3.6-.7.7s-.2.3-.4.2S18.6,22.5,18.6,22.3Z"/>
        <path class="148abc87-7be4-46dd-87cb-400fda19743f" d="M75.7,20.1c.1-.2.3-.4.3-.6a.3.3,0,0,1,.3-.3c-.1.4,0,.6.4.8s-.1.1-.2.2S75.9,20.6,75.7,20.1Z"/>
        <path class="a450288b-411a-4bec-add5-e6c8ac0c4bed" d="M7.5,40.8a2.2,2.2,0,0,1,2.1-.1c-.1.3-.4.2-.6.2Z"/>
        <path class="d71426b8-3492-4200-b3cd-5eeab565d8ba" d="M78.8,21.8h-.4c-.3.3-.6.2-.9,0v-.2c.3,0,.6.1.8-.3s.2.1.3,0h.3Z"/>
        <path class="c4a2fb4e-60e6-42d6-ac15-ce491af2000b" d="M46.4,2.2c.4-.1.5.2.6.5s-.1.2-.3.1-.4.1-.5.1-.3-.5,0-.8h0C46.3,2,46.3,2.1,46.4,2.2Z"/>
        <path class="af1d2dca-b1f8-4883-8644-97ca07b9dc75" d="M98,44.2c-.2-.2-.5-.4-.3-.6s.7-.2,1-.2A1.4,1.4,0,0,1,98,44.2Z"/>
        <path class="aa3a04ab-af5e-4ea1-a95a-0f2fc70ffef8" d="M43.6,9h.3c.4.1.6.4.5.6s-.7,0-.9-.1S43.6,9.2,43.6,9Z"/>
        <path class="7a98582e-52f6-4254-a912-67f06d16a1ae" d="M14.3,29.2c-.1-.3-.2-.5.1-.8l.2.2c.5-.1.5.2.3.5S14.5,29.3,14.3,29.2Z"/>
        <path class="7196b018-fc6a-4dd8-b669-073f28646d52" d="M69.6,11.3a.8.8,0,0,1,.9-.4H71c-.5.1-.7.6-1.3.5Z"/>
        <path class="4f8b5475-582c-4022-b9c8-34fd99708c3a" d="M10.6,32.4a.7.7,0,0,1,.8.6,3.5,3.5,0,0,1-1.7-.6h.1C10,32.3,10.3,32.1,10.6,32.4Z"/>
        <path class="39de380d-e52c-4356-857f-c9ad1e095f63" d="M67.7,13.3l.7.2c.2.4-.1.5-.4.6S67.2,13.7,67.7,13.3Z"/>
        <path class="8d5b62bc-2efb-47e0-9633-c06b316a400e" d="M85.2,29.1c.2-.1.3-.1.4.1a3.9,3.9,0,0,1-1.5.6l-.2-.2Z"/>
        <path class="fb2a8603-5d58-4618-bd2b-7490264497ec" d="M65.1,11a1.7,1.7,0,0,1-.3,1.2c-.1.1-.2.2-.3.1s-.1-.2-.1-.3A3,3,0,0,1,65.1,11Z"/>
        <path class="8d5b62bc-2efb-47e0-9633-c06b316a400e" d="M82.8,25.9c-.2.1-.1.2-.1.3h-.5c-.2-.1-.3.4-.5.1s.2-.3.3-.5v-.3C82.3,25.7,82.7,25.6,82.8,25.9Z"/>
        <path class="a6ba8a71-ce6f-495d-b82b-f56e0b3371bb" d="M96.4,44.4c0,.3-.5.6-.1.9s-.3.1-.4.1-.3-.2-.5-.3a.1.1,0,0,1-.1-.1.7.7,0,0,1-.1-.5c.1-.2.3-.2.5-.3h.4C96.2,44.2,96.4,44.3,96.4,44.4Z"/>
        <path class="eee15b1c-a97e-4aaf-b32e-45d6a0615c4e" d="M64.6,8.9c.4-.1.5.2.7.4s-.2.4-.5.4a.4.4,0,0,1-.3-.6C64.6,9.1,64.6,9,64.6,8.9Z"/>
        <path class="c555480d-1d26-4272-bd41-bbd20b31ed2a" d="M36.3,6c-.2.1-.3-.2-.5-.2s-.8-.3-.4-.7S36.4,5.3,36.3,6Z"/>
        <path class="fcec8f32-0ebe-4f8f-a858-c97c566ee6d7" d="M3.6,43.8h.6c0,.4-.5.1-.6.3s-1.3,0-1.9-.2a1.3,1.3,0,0,1,1.2-.1Z"/>
        <path class="dec75f7c-98db-4818-b6ae-e24aa27ed539" d="M16.8,18.3l.5-.2c.5.1.5.4.5.9S17,18.7,16.8,18.3Z"/>
        <path class="d7cd2fa5-b2bb-4df2-aafd-3dd82f6c3543" d="M21.8,13.3c.4.3.3.7.5,1s-.2.4-.5.1S21.6,13.7,21.8,13.3Z"/>
        <path class="93ef9f1a-d39b-48f0-866a-8f1d9b3e6199" d="M6.1,31.1c-.2-.1-.4-.2-.4-.4s.7-.3,1.1,0,.1.1.1.2S6.4,31.4,6.1,31.1Z"/>
        <path class="b6c99bee-ad3c-44e1-8866-a843296655b6" d="M85.5,34.7h.4a.2.2,0,0,1-.2.2c-.5-.1-.8.4-1.3.3s-.2.1-.2,0,0-.2.1-.2Z"/>
        <path class="af1d2dca-b1f8-4883-8644-97ca07b9dc75" d="M35.4,5.1c-.1.3.4.4.4.7s-.4.3-.6.5-.2-.5,0-.7-.2-.3-.4-.4S35.2,5.1,35.4,5.1Z"/>
        <path class="834d2106-df73-41d0-988d-2c22533406c5" d="M32.2,7.5a2.3,2.3,0,0,0-.6-1.2V6.1c.6.2.5.7.8,1.1S32.5,7.5,32.2,7.5Z"/>
        <path class="dacbbc74-7f30-480e-b754-251f69800861" d="M92.4,41.9c.5-.3.9-.7,1.5-.5s.1.3-.1.4a1.7,1.7,0,0,1-1.2.1Z"/>
        <path class="20a0a955-5e4c-4424-a576-867ea7bac88e" d="M93.8,43.6c-.3-.3-.6-.4-.7.1h-.3c-.4-.1-.2-.3-.1-.5s.8-.4,1.1.1S93.8,43.5,93.8,43.6Z"/>
        <path class="28b55c80-ff69-4885-b616-c1d26e23635f" d="M20.3,19.7c.2-.4.5-.2.7-.2s-.1.5,0,.7a.8.8,0,0,1-.7.1C20.7,20.1,20.5,19.9,20.3,19.7Z"/>
        <path class="25ef0337-5187-4976-b75f-be003d4d8dd2" d="M18.5,16.4c-.7,0-.2.3-.2.6s-.4-.7-.4-1.1.2-.2.3,0S18.4,16.2,18.5,16.4Z"/>
        <path class="9f922f4b-6d82-4a55-8d03-ed39c4a23905" d="M26.2,13.2c-.4-.1-.3-.4-.4-.7h0c.3,0,.5.1.8-.1s.2.5-.2.6S26.2,13.1,26.2,13.2Z"/>
        <path class="0e176df0-67d1-48f4-a9aa-c69367798d6f" d="M54.7,8.1c0,.1,0,.3.1.3s.4.4.4.7S54.5,8.8,54.7,8.1Z"/>
        <path class="fb2a8603-5d58-4618-bd2b-7490264497ec" d="M38.3,10.1a1.9,1.9,0,0,1,.1.8c-.4.1-.4-.2-.5-.4s-.1-.5.1-.7S38.3,9.9,38.3,10.1Z"/>
        <path class="fc991a80-6326-43cf-ad90-95914fdc5702" d="M34.3,10.1c-.5-.4-.4-.7.1-1l.3.8Z"/>
        <path class="95fdb57f-2a8a-48ec-8b9b-8c3a4d58d4d1" d="M4,45.4v.3a.8.8,0,0,1-.8.2H2.8c-.1-.1-.2-.2-.1-.3s.1-.2.3-.1S3.6,45.5,4,45.4Z"/>
        <path class="7528690b-856e-4665-bfae-e9df0c07956e" d="M9.8,28.2c0,.1.1.2.2.3s-.2.1-.2.2H9.6a.8.8,0,0,0-.6-.2c-.1-.1-.4,0-.4-.3s.4-.2.7-.2S9.8,27.9,9.8,28.2Z"/>
        <path class="39de380d-e52c-4356-857f-c9ad1e095f63" d="M8.6,28.1c.3.2,1-.1,1,.5s-.7-.3-1.1.1-.2-.1-.1-.5Z"/>
        <path class="4124c354-4813-4cfa-beed-f91e342bfb27" d="M35.7,9c.2-.2.5.1.7,0s.1.1,0,.2a.5.5,0,0,1-.6.3C35.6,9.5,35.6,9.2,35.7,9Z"/>
        <path class="63b76a24-7ebe-4aa9-a0fb-e860519edf21" d="M32,9.5V8.6c.5.1.4.5.5.9Z"/>
        <path class="9862cbf0-a8df-4b9d-aed1-064223824f44" d="M28.9,6.9c0-.3-.1-.6.4-.5s.2.4.2.6-.2.2-.4.1Z"/>
        <path class="c463e669-ebe6-44be-a6f6-bc07c9517939" d="M12.2,22.5c.4,0,.7.4,1.1.3l.3.5C13.1,23.1,12.5,23,12.2,22.5Z"/>
        <path class="a8ec9440-9570-42c5-9d2a-a0423b2e7603" d="M30.2,12.2l-.3-.4a1.1,1.1,0,0,0,1.1-.2c.2.1.2.2.2.4S30.7,12.5,30.2,12.2Z"/>
        <path class="819e00a2-4260-48d3-be80-13e79c725c60" d="M88.9,43.7c.3-.7.8-.3,1.1-.5s.2.3.1.4a.3.3,0,0,1-.5.1C89.4,43.5,89.3,43.4,88.9,43.7Z"/>
        <path class="53011de2-a05b-4d50-8040-ad83ba15a68f" d="M20.7,18.9l-.6.3a.5.5,0,0,1-.4-.2c.3-.2.4-.5.8-.5l.2.3h0Z"/>
        <path class="93ef9f1a-d39b-48f0-866a-8f1d9b3e6199" d="M2.9,43.9a2.5,2.5,0,0,0-1.2.1H1.6c.7-.2,1.2-.8,2-.5C2.9,43.6,2.9,43.6,2.9,43.9Z"/>
        <path class="79f531f5-95fd-47d8-86b9-f7e96118421c" d="M19.8,21.9h-.5c0-.2.1-.3-.1-.5s0-.3.2-.4S20,21.5,19.8,21.9Z"/>
        <path class="a244a34c-4d5e-45e2-afce-133948089077" d="M88.6,34.2v.3c-.3,0-.4.3-.7.3s-.2,0-.2-.2,0-.1.1-.2Z"/>
        <path class="21fa109b-e1e7-4de5-b3d5-ea64c58196a0" d="M6.8,32.1c0-.1.2-.2.2-.3h.7c.3-.1.7-.2.8.2S7.4,31.8,6.8,32.1Z"/>
        <path class="23651960-ea5d-403a-b301-539d5d097b27" d="M3.3,35.9c-.2-.1-.5.1-.6-.2s0-.2.2-.3.3.1.6,0S3.5,35.7,3.3,35.9Z"/>
        <path class="9f922f4b-6d82-4a55-8d03-ed39c4a23905" d="M23.9,10.4c-.1,0-.3,0-.3-.2s.2-.9.8-.9a1.4,1.4,0,0,0-.2.7C24,10.1,24.2,10.3,23.9,10.4Z"/>
        <path class="aa3a04ab-af5e-4ea1-a95a-0f2fc70ffef8" d="M9.1,45.8c0-.4.3-.1.4-.3l-.2-.4c.8.1.3.6.4,1.1Z"/>
        <path class="16134f34-6224-4b2c-bf1c-6b4159d76d7d" d="M20.1,18.1a.7.7,0,0,1-.6-.3v-.3c.2,0,.3,0,.4-.2h0a1.3,1.3,0,0,0,.3.5C20.4,17.9,20.2,18,20.1,18.1Z"/>
        <path class="871250a1-0f9d-40a5-8f3e-e594518754f5" d="M19.5,19.6c0,.2-.1.2-.2.2a.9.9,0,0,1-.6-.6c-.1-.1.1-.1.2-.1S19.3,19.4,19.5,19.6Z"/>
        <path class="95fdb57f-2a8a-48ec-8b9b-8c3a4d58d4d1" d="M10.9,24a.4.4,0,0,1,.6-.2c.1.1.5.3.1.5Z"/>
        <path class="39c942c1-3141-496d-bf28-55792d2b3590" d="M6.9,44.1c.6.3,1.2,0,1.8.1H7.2c-.6,0-.5-.2-.3-.5Z"/>
        <path class="95fdb57f-2a8a-48ec-8b9b-8c3a4d58d4d1" d="M19.4,21c-.1.1-.1.3-.2.4s-.2.4-.4.2,0-.3,0-.4.2-.2.3-.3Z"/>
        <path class="b6c99bee-ad3c-44e1-8866-a843296655b6" d="M76.7,21c.4-.1.6.2.8.5s-.1.1-.2.2l-.7-.6C76.6,21,76.6,21,76.7,21Z"/>
        <path class="39c942c1-3141-496d-bf28-55792d2b3590" d="M7.9,43.3a.7.7,0,0,1-1,.3C7,43,7.6,43.4,7.9,43.3Z"/>
        <path class="c555480d-1d26-4272-bd41-bbd20b31ed2a" d="M16.9,26.3c-.3-.1-.6-.2-.5-.6h.4C17.2,25.9,17.3,26.1,16.9,26.3Z"/>
        <path class="11b3d743-7ac1-48e6-baec-5cf2a8e22cc6" d="M92.6,44.8c-.1.2-.3.2-.5.2s-.2-.1-.2-.2,0-.3.3-.3S92.5,44.6,92.6,44.8Z"/>
        <path class="28b55c80-ff69-4885-b616-c1d26e23635f" d="M34.3,10.1l.4-.2a3.2,3.2,0,0,0,.3.9c.1.1.2.2,0,.3s-.2-.1-.2-.2S34.5,10.4,34.3,10.1Z"/>
        <path class="6248da60-dac9-4235-b284-999c53b5d6a3" d="M8.4,28.2c.2.1,0,.3.1.5s.2.1.1.3H8A.8.8,0,0,1,8.4,28.2Z"/>
        <path class="20a0a955-5e4c-4424-a576-867ea7bac88e" d="M3.6,44.2c.1-.3.4-.2.6-.3s.4.1.4.4Z"/>
        <path class="7f6ec31d-9afe-4a04-affc-0ce0660e0048" d="M34.4,8.1h0c0,.1.3.4-.1.5s-.3.1-.4-.1.1-.4.3-.5Z"/>
        <path class="30dfdf6f-1676-40ce-ba2c-55bc0e757b9c" d="M12,26.4a.9.9,0,0,1,.9-.5,1,1,0,0,1-.6.5Z"/>
        <path class="52a8abad-9dba-4e03-a7fa-5348c41b03c2" d="M10.4,46.2c0-.6.5-.3.7-.4s.2.1.1.2,0,.3-.2.2S10.6,46.2,10.4,46.2Z"/>
        <path class="b6a79d52-3351-47ad-9008-0210bd44905c" d="M58.4,10.1l.4-1.2c.1.2-.1.4.1.5A.6.6,0,0,1,58.4,10.1Z"/>
        <path class="5993c818-18ce-49c8-8290-50f874b752b9" d="M86.6,34.1c-.3-.1-.4.4-.7.1s-.2-.2,0-.3A.5.5,0,0,1,86.6,34.1Z"/>
        <path class="7a98582e-52f6-4254-a912-67f06d16a1ae" d="M95.5,45.4c-.3-.1.3-.3,0-.4l.4-.3a1.6,1.6,0,0,1,0,.7Z"/>
        <path class="045c3ff5-ab1c-421b-ac66-6c70e50ed26a" d="M13.6,27c.3.1.8,0,1,.4S13.8,27.4,13.6,27Z"/>
        <path class="95fdb57f-2a8a-48ec-8b9b-8c3a4d58d4d1" d="M85.1,33.5a4.3,4.3,0,0,1,1.3-.5C86.2,33.4,86.2,33.4,85.1,33.5Z"/>
        <path class="a510acc2-2088-4843-b2e2-4f1e677c0c06" d="M34.4,8.1h-.2c-.2-.1-.1-.2-.1-.3s.4-.2.6-.4A.5.5,0,0,1,34.4,8.1Z"/>
        <path class="347579ed-e315-4a70-a458-fbb3e9619371" d="M48,8.5c.1.2-.6.2-.2.5h-.7c0-.4.4-.4.6-.6Z"/>
        <path class="79f531f5-95fd-47d8-86b9-f7e96118421c" d="M3.3,35.9l.2-.5.6.2A1.1,1.1,0,0,1,3.3,35.9Z"/>
        <path class="6ccaf7fd-b213-474b-86ef-58608b1cb80f" d="M84.1,31.5h-.2c-.1-.1,0-.1.1-.2h.3c.1,0,.4-.3.5,0s-.3.1-.4.1S84.2,31.5,84.1,31.5Z"/>
        <path class="fcec8f32-0ebe-4f8f-a858-c97c566ee6d7" d="M30.9,11.1c-.5-.1-.6-.2-.4-.7S30.8,10.8,30.9,11.1Z"/>
        <path class="f210dc4e-55d3-40d2-b1be-cf2ae13d4501" d="M28.9,10.2H29c.1-.1,0-.3.3-.3h.1c.1.3-.1.3-.3.4S28.9,10.3,28.9,10.2Z"/>
        <path class="c555480d-1d26-4272-bd41-bbd20b31ed2a" d="M33.9,6.6c.3.3,0,.7.2.9S33.6,7,33.9,6.6Z"/>
        <path class="045c3ff5-ab1c-421b-ac66-6c70e50ed26a" d="M86.1,41.1c-.1,0-.4.1-.4-.1a.2.2,0,0,1,.4-.1c0,.1.1.1.1,0s.4-.2.4,0S86.3,41,86.1,41.1Z"/>
        <path class="fb2a8603-5d58-4618-bd2b-7490264497ec" d="M6.8,40c.1.2.4.2.6.1s.2,0,.2.1-.1.2-.2.2H6.8c-.1-.1-.2-.2-.2-.3S6.7,39.9,6.8,40Z"/>
        <path class="aa3a04ab-af5e-4ea1-a95a-0f2fc70ffef8" d="M83.9,29.6l.2.2-.3.2c-.1,0-.2.2-.4,0s.1-.2.3-.3Z"/>
        <path class="717d5966-7796-4300-a681-e76fe08166a7" d="M84.9,30.1c.4-.1.5-.3.8-.3s.1.2,0,.2S85.3,30.2,84.9,30.1Z"/>
        <path class="b6c99bee-ad3c-44e1-8866-a843296655b6" d="M11.5,29c.1-.1.3-.2.3-.3s.5.1.5.3S11.8,28.9,11.5,29Z"/>
        <path class="39de380d-e52c-4356-857f-c9ad1e095f63" d="M9.8,28.2l-.5-.3c.4-.1.7.1,1.1.2Z"/>
        <path class="39c942c1-3141-496d-bf28-55792d2b3590" d="M9.1,43.3a.8.8,0,0,1-1.1,0Z"/>
        <path class="52a8abad-9dba-4e03-a7fa-5348c41b03c2" d="M46.8,5.1c-.2.1-.2.3-.3.5s0-.6-.1-.9S46.7,4.9,46.8,5.1Z"/>
        <path class="569e485b-2f24-43e2-aa24-ab8996f77c2f" d="M19.9,17.3h0Z"/>
        <path class="d321e1ef-7720-4ebc-b062-fedd789fcf5e" d="M20.7,18.9h0Z"/>
        <path class="fc4da919-d78b-416f-970a-268d1c011c87" d="M81.1,16.3c.2-.4.3-.8-.4-.9s-.2-.4-.4-.5-1.1-.4-.9-1,.1-.7,0-.7a1.9,1.9,0,0,1-.8-.7c-.2-.1-.4.1-.6.1s-.3.2-.5.3h-.1c-.2-.1-.5.2-.7-.1s.2-.4.2-.6h0c-.1-.2-.1-.3-.3-.2s-.4-.2-.4-.3-.4-.6-.1-.9.1-.3.3-.4.2-.4,0-.6a1.9,1.9,0,0,1-.8-.7,4.9,4.9,0,0,0-1.2-1.3,1.1,1.1,0,0,1-.5-1.1c-.2-.3-.7-.3-.6-.7a1.4,1.4,0,0,1-1-1,24.2,24.2,0,0,1,3.6,1.8c.3.1.4.3.5.6A8.8,8.8,0,0,0,78.8,10a.2.2,0,0,1,.2.2c.1.5.5.4.9.3h.2c-.1.6.4.9.7,1.4a3.5,3.5,0,0,0,1.4,1.3c.3.2.7.4.8.9s.2.3.4.5.5.9,1.1,1.2a.1.1,0,0,1,0,.2v.2c0,.1-.3,0-.2.2h.2c.1.3.4.3.6.3s.7.2.8.7.1,1.1,1.3.9a1.2,1.2,0,0,1,1.1.4,1.4,1.4,0,0,0,.8.7c.5.1.6.7.8,1s-.2.6-.4.9l-.9.5a.6.6,0,0,1-.8,0,.8.8,0,0,1-.1-.4c0-.2-.1-.3,0-.5s-.2.1-.3.1h-.6c-.3-.1-.4,0-.6.2s-.3.3-.6.2a.5.5,0,0,1-.3-.4c0-.3.3-.4.5-.5a.5.5,0,0,0,.1-.6c-.1-.3-.3-.2-.5-.1a1.6,1.6,0,0,1-1,.2.8.8,0,0,1-.4-.4h0c-.1-.2-.2.1-.2,0h-.5c-.6-.3-.1-.7-.1-1s.2-.6-.3-.6-.6-.4-1.1-.2-.4-.2-.6-.4h-.3c-.6.1-.8.1-1-.4V17Z"/>
        <path class="7a98582e-52f6-4254-a912-67f06d16a1ae" d="M82.4,12a7.1,7.1,0,0,1,2.7,1.8l2.2,1.9a11.4,11.4,0,0,1,1.8,2.5c-.3.3-.7.1-1,.3a1.3,1.3,0,0,1-1.5-.3h-.3c-.4-.1-.7-.2-.5-.6s-.1-.4-.4-.5-.8.1-1.1-.2h0c-.2-.2,0-.4.1-.5h0c.1-.1.2-.3.4-.3h0c0-.2-.2-.2-.4-.3s-.6-.3-.5-.7-.2-.5-.5-.6-.5-.3-.4-.6-.2-.7-.6-.9S81.9,12.3,82.4,12Z"/>
        <path class="7528690b-856e-4665-bfae-e9df0c07956e" d="M85,16.1l-.6.2c-.2-.6-.8-.3-1.2-.3s.1-.2.2-.3a.3.3,0,0,0,0-.5,1.3,1.3,0,0,1-.8-1.1,1,1,0,0,0-.5-.4c-.3-.1-.6-.2-.7-.5s-.2-.1-.3-.1h-.2c.3-.6-1.1-.7-.6-1.3s-.1-.2-.3-.2-.3.2-.6,0,.6-.6.6-1A11.6,11.6,0,0,1,82.4,12c.1.2-.1.3-.1.5s.5.4.9.4.3.5.1.9.2.3.4.3.7.2.5.7,0,.6.4.5h.2c.7.2.7.2.2.8Z"/>
        <path class="7a98582e-52f6-4254-a912-67f06d16a1ae" d="M92.6,23.6a4.1,4.1,0,0,0,.7,1.5.8.8,0,0,1-.5.5l-1.7.7c-.5.3-1.1,0-1.6-.1a2.4,2.4,0,0,1-.9-1.5.8.8,0,0,1,.8-.7,6.4,6.4,0,0,0,2.3-.5Z"/>
        <path class="7528690b-856e-4665-bfae-e9df0c07956e" d="M84.3,16.8h1.2c.7,0,.8.2.6.8v.2c.3.2.6-.2.9,0s.2.4.1.7a1.2,1.2,0,0,0,1-.1c.5,0,.7.3,1.1.5a10,10,0,0,0,1.4,1.5v.3a3.2,3.2,0,0,1-.3.9c-.5.4-.7.4-.9-.1a1,1,0,0,0-.3-1.4h-.3c-.3.1-.5,0-.5-.3s-.4-.1-.5-.1.3-.4,0-.6a1.1,1.1,0,0,0-.8-.1c-.3.1-.5.3-.9.1s-.5-.7-.5-1-.2-.6-.6-.6S84.4,17.1,84.3,16.8Z"/>
        <path class="f71f47e1-9da3-41bc-a178-c1d134f0c115" d="M89.6,26.1c1.4.1,2.5-.6,3.7-1l.7,1.1a.5.5,0,0,1-.4.5,3.2,3.2,0,0,1-1.7.3c-.2-.1-.1.2-.2.2a1.4,1.4,0,0,1-1.8.2v-.3c-.1-.2-.1-.4-.3-.6S89.3,26.2,89.6,26.1Z"/>
        <path class="148abc87-7be4-46dd-87cb-400fda19743f" d="M63.2,2.8V2.6c-.1-.1-.1-.2.1-.3s.3-.5.3-.8.6.1.9-.1A20.6,20.6,0,0,1,68.1,3l1,.4.3.2c.1.1,0,.3-.2.4h-.3c-.5,0-1,.1-1.2-.4s-.2-.1-.4-.1a.7.7,0,0,1-1-.2c-.3-.2-.7-.1-.9-.3s-.3-.2-.5-.2a1.7,1.7,0,0,1-1,0C63.7,2.6,63.4,2.8,63.2,2.8Z"/>
        <path class="93ef9f1a-d39b-48f0-866a-8f1d9b3e6199" d="M92.6,23.6c-.3.1-.6.4-.9.3s-.6-.2-.8-.1-.7.1-.9-.1-.2-.6-.1-.9.3-.7.7-.8.3-.1.3-.3.2-.4.4-.3A5.6,5.6,0,0,1,92.6,23.6Z"/>
        <path class="717d5966-7796-4300-a681-e76fe08166a7" d="M69.2,3.9c0-.2.1-.3.2-.3a12.2,12.2,0,0,1,1.7.7c-.2.2-.2.4,0,.4s.9.6,1.1,1.1a.6.6,0,0,1-.8,0L71,5.6h-.2c-.2-.5-.8-.6-1.2-.9A2.5,2.5,0,0,1,69.2,3.9Z"/>
        <path class="93ef9f1a-d39b-48f0-866a-8f1d9b3e6199" d="M90.5,20.3a.6.6,0,0,1-.8-.5c0-.1-.1-.3-.2-.3s-.9-.9-1.5-1.2.7-.2,1.1-.1Z"/>
        <path class="f622c4f2-274f-4f8e-a02a-b11deae4dbe5" d="M91.9,27l2.1-.8c.1.2.4.2.4.4l-.5.5c-.1.4-.3.3-.6.2v-.2A2.9,2.9,0,0,1,91.9,27Z"/>
        <path class="14aca0a5-ca9b-4048-8d46-96a0d1205d9a" d="M60.5.3h.7c.3.2.4.4.2.6s-1.1.4-1.7.5l-.3-.2a.4.4,0,0,1-.2-.4c0-.4.4-.4.6-.5h.7Z"/>
        <path class="41f12dff-4a21-4f49-8647-98ef3c8f0e8a" d="M61.2,1a.6.6,0,0,0,0-.6,10.3,10.3,0,0,1,2.1.7h0a2.6,2.6,0,0,1-1.5.4C61.5,1.4,61.2,1.3,61.2,1Z"/>
        <path class="93ef9f1a-d39b-48f0-866a-8f1d9b3e6199" d="M91.3,21.4c-.2.1-.1.3-.1.5s-.2.4-.5.2-.3-.2-.4-.3.1-.4-.1-.5.1-.5.4-.7A5,5,0,0,1,91.3,21.4Z"/>
        <path class="7528690b-856e-4665-bfae-e9df0c07956e" d="M79.9,10.5a5.7,5.7,0,0,1-1.3.8c.1-.4.4-.7.4-1.1Z"/>
        <path class="335ba11f-083b-4b28-a863-5cf2189bd8bc" d="M64.4,1.4l-.8.2c-.3.3-.6.2-.9.2s-.1-.6.3-.6h.3A3.5,3.5,0,0,1,64.4,1.4Z"/>
        <path class="41f12dff-4a21-4f49-8647-98ef3c8f0e8a" d="M60,.5c0-.2-.3-.3-.4-.5a1.6,1.6,0,0,1,.9.3C60.4.5,60.2.5,60,.5Z"/>
        <path class="717d5966-7796-4300-a681-e76fe08166a7" d="M69.1,3.4a.8.8,0,0,1-1-.4Z"/>
        <path class="f622c4f2-274f-4f8e-a02a-b11deae4dbe5" d="M91.8,37.5a1.1,1.1,0,0,0-.6-.2.7.7,0,0,0-.5-.4c.2-.3.6-.2.9-.4s.4-.2.7-.3l.8-.2c.3-.2.7-.1,1.1-.1l1.2-.3c.1.1.3,0,.3.1s.1.3.3.2.8.2,1.2.3a.2.2,0,0,1,.2.2h-.3a6.5,6.5,0,0,0-1.9.2l1.3.2c.2,0,.3,0,.2.2a6.5,6.5,0,0,0-2,.5.7.7,0,0,1-.6.2c0-.3,0-.3.3-.4l-.7.3a4.5,4.5,0,0,0-1.1-.3C92.3,37.2,92.1,37.4,91.8,37.5Z"/>
        <path class="f210dc4e-55d3-40d2-b1be-cf2ae13d4501" d="M95.6,41.3h.5c-.1-.2-.4,0-.4-.3s.3-.1.5-.1h.1c.6,0,.6-.5.9-.7s-.5.1-.7-.1.1-.2.1-.3.1-.5.5-.5h.1c.2,0,.4.2.7.1H98a10.5,10.5,0,0,1,.4,1.7c-.1.2-.3.2-.6.2a2.8,2.8,0,0,0-1.3-.1c.2.2.5,0,.5.2s-.3.3-.5.3h-.9Z"/>
        <path class="dacbbc74-7f30-480e-b754-251f69800861" d="M95.8,39.2c-.2-.1-.5-.2-.4-.3a1.2,1.2,0,0,1,.6-.6c.2-.1.6,0,.6-.3s-.4-.2-.7-.3a.1.1,0,0,0-.1-.1c.3-.3.7-.2,1.1-.4s.6-.3.8,0a1,1,0,0,1-.2,1.4c-.1.1-.3.2-.3.4h-.1l-1.1.3Z"/>
        <path class="834d2106-df73-41d0-988d-2c22533406c5" d="M93.3,27.2h.6c.9-.3.8.4,1,.8s-.4.4-.6.6-.5.6-1,.3-.4-.9-.9-1.3S93.1,27.4,93.3,27.2Z"/>
        <path class="45f19e7f-da5e-4346-b5b2-945dad675691" d="M93.3,28.8c.3-.1.6-.4,1-.3s.7.3.5.7l-1.7.5c-.2.1-.3,0-.4-.2s-.1-.5.2-.7Z"/>
        <path class="f210dc4e-55d3-40d2-b1be-cf2ae13d4501" d="M98.5,42h-.7c-.2,0-.4,0-.3.3s-.4.3-.5.6h-.2a.3.3,0,0,1-.1-.2c-.1-.4-.3-.6-.7-.5a.2.2,0,0,1-.2-.2c0-.2.1-.4.3-.4a5.5,5.5,0,0,1,1.8-.1A.5.5,0,0,1,98.5,42Z"/>
        <path class="03f11f14-773c-4cc0-bfad-b24e34183920" d="M95.3,31.9h-.6c-.1-.1-.2-.2-.2-.3s-.5-.2-.3-.5a1.8,1.8,0,0,1,1.4-.4.8.8,0,0,1,.4.4.7.7,0,0,0-.4.5C95.6,31.7,95.5,31.8,95.3,31.9Z"/>
        <path class="11b3d743-7ac1-48e6-baec-5cf2a8e22cc6" d="M95.8,42.1H96a.7.7,0,0,1,.9.6V43c-.1.3-.4.3-.6.4h-.4c-.2.3-.4.3-.7.2a3.8,3.8,0,0,1-.1-1.5C95.3,42,95.6,42.1,95.8,42.1Z"/>
        <path class="717d5966-7796-4300-a681-e76fe08166a7" d="M97.5,35.5a.3.3,0,0,1-.3.3c-.2-.1-.6-.1-.5-.4a.4.4,0,0,1,.5-.3C97.5,35.1,97.5,35.3,97.5,35.5Z"/>
        <path class="1832450c-23cd-4c4e-ac3f-7935a4ed77f0" d="M94.2,35.9c-.2.4-.7.2-1,.3s-.3-.1-.4-.3-.1-.2,0-.2l1-.2C94.1,35.5,94.2,35.6,94.2,35.9Z"/>
        <path class="3ed7e0a0-cd09-4b9f-aae1-1b0f3884571a" d="M92.4,34.7H91.3c.1-.3.5-.3.8-.4h.8v.2C92.7,34.5,92.7,34.7,92.4,34.7Z"/>
        <path class="4f8b5475-582c-4022-b9c8-34fd99708c3a" d="M92.7,35.6c-.4.3-.8.2-1.3.4s-.2.2-.4.2-.1-.2,0-.3S92.3,35.5,92.7,35.6Z"/>
        <path class="20a0a955-5e4c-4424-a576-867ea7bac88e" d="M91.9,33.5c.1-.5.5-.2.8-.3v.3Z"/>
        <path class="3c3b60ac-1960-4854-b08d-45629f0593dc" d="M93.7,34.4h0c.2-.2.5-.1.7-.4S94.1,34.4,93.7,34.4Z"/>
        <path class="39c942c1-3141-496d-bf28-55792d2b3590" d="M93.7,32.9h-1C93,32.7,93.4,32.4,93.7,32.9Z"/>
        <path class="42701b45-bc69-44f4-b5c6-76d0590d2b11" d="M73.3,5.9c.2.2.7.2.8.6s.2,1.3.7,1.8.4.4.5.7a3.2,3.2,0,0,0,.3.9.7.7,0,0,1-.3.9c-.2.1-.5.2-.4.5s.3.6.3,1-.9.4-1.3.5h-.8c-.4.3-.7.2-.8-.2a5.8,5.8,0,0,1,.8-1.8c-.3-.4.4-.9,0-1.4h0c.2-.8.2-.8-.3-1.5s-.2-.2,0-.3.3-.9.3-1.4S73.1,5.9,73.3,5.9Z"/>
        <path class="c1eec256-8b10-4555-a578-634fe209ad59" d="M71,7.1h-.3a.3.3,0,0,1,0-.5c.3-.2-.1-.4-.2-.6a.8.8,0,0,1,.2-.5c0-.1.1-.2.3-.2h0a7.1,7.1,0,0,0,.9.7c0,.1,0,.1-.1.2Z"/>
        <path class="4f8b5475-582c-4022-b9c8-34fd99708c3a" d="M71.8,6.1a.8.8,0,0,1-.8-.7c.1-.1.2-.5.4,0s.5.4.8.4h.1C72.3,6,72.2,6.2,71.8,6.1Z"/>
        <path class="717d5966-7796-4300-a681-e76fe08166a7" d="M71.8,6.1l.5-.3c.1,0,.3,0,.2.2a.9.9,0,0,1-.7.3Z"/>
        <path class="f622c4f2-274f-4f8e-a02a-b11deae4dbe5" d="M90.1,27.3c.3.3.7,0,1,0h.6c.1.3,0,.7-.4.6s-1.2.4-1.9.3.7-.2.6.3l-.7.3c-.3.1-.5-.2-.8-.3s-.3-.5.3-1l.4-.2C89.6,27.1,89.8,27,90.1,27.3Z"/>
        <path class="39c942c1-3141-496d-bf28-55792d2b3590" d="M94.2,31a1,1,0,0,0,.5.4c-.3.4-.7.2-1,.1h-.2a.4.4,0,0,1,.2-.6h0Z"/>
        <path class="0fe0509b-8801-408e-89cd-e71e9d40c21b" d="M93.3,27.2c-.1.4-.5.3-.9.3a2,2,0,0,1,.8-.4Z"/>
        <path class="5993c818-18ce-49c8-8290-50f874b752b9" d="M66.4,3.1c.3.2.5.4.9.1s.2.1.2.3,0,.6-.6.6-.7,0-1,.1-1.1.6-1.3,1.3.4-1.4.3-2.1H65a5.9,5.9,0,0,1,1.3-.2Z"/>
        <path class="05028aca-a2b3-4d7d-9623-8c7ecd0e0eb3" d="M63.9,2.8c.6-.2,1.1-.4,1.6.1s0,.2-.1.2-.3.2-.5.3h0C64.7,3.1,64,3.2,63.9,2.8Z"/>
        <path class="30dfdf6f-1676-40ce-ba2c-55bc0e757b9c" d="M79.4,13.9c.2.2.6.2.5.7l.4.3c-.1.1-.1.4-.4.1h-.2a.9.9,0,0,1-.9.5c.1.5-.5.5-.8.7s-.6-.4-.7-.8a.5.5,0,0,1,.5-.3,1.7,1.7,0,0,1,.5-1.3C78.5,13.4,78.9,13.4,79.4,13.9Z"/>
        <path class="b4423cc3-f8a8-440b-8b34-fd87fcc2ce3f" d="M75.1,12.3c-.4-.3-.6-.6-.4-1s.1-.4.4-.3a2.5,2.5,0,0,1,.9.4l.3.3a.8.8,0,0,0,.2.4c.1.2.2.5-.1.7s-.8.3-1-.3S75.1,12.5,75.1,12.3Z"/>
        <path class="f210dc4e-55d3-40d2-b1be-cf2ae13d4501" d="M75.1,12.3l.3.2a.4.4,0,0,1-.1.3c-.2.2.7.5,0,.7l-1,.2c-.2.1-.3,0-.5,0v-.2c0-.3.1-.6.1-1Z"/>
        <path class="39c942c1-3141-496d-bf28-55792d2b3590" d="M77.8,15.1l-.3.3c0,.4.4.6.4,1h0c-.4.4-.8.2-1.1-.1h0l-.3-.3c-.1-.1-.4-.1-.3-.3s.2-.1.4-.2.1-.4.5-.4.1-.5.3-.4S77.6,14.9,77.8,15.1Z"/>
        <path class="24af7333-b7a3-427b-bd87-e7daf7a079c3" d="M76.5,17.8a1,1,0,0,1-.5.4c-.5-.2-.7-.4-.5-.9v-.2l.7-.2h.5C77,17.4,76.8,17.6,76.5,17.8Z"/>
        <path class="29435854-82bc-423d-92eb-dd420bd3d33f" d="M76.4,12.8v-.6c.2-.4.5-.4,1,0s-.2.3-.4.6h.6C77.1,13,76.7,13.3,76.4,12.8Z"/>
        <path class="29435854-82bc-423d-92eb-dd420bd3d33f" d="M77.5,12.9c.1-.3.2-.4.5-.3s.6.5,0,.7S77.5,13.2,77.5,12.9Z"/>
        <path class="11b3d743-7ac1-48e6-baec-5cf2a8e22cc6" d="M73.9,13.5l.4.2a1.3,1.3,0,0,0,.1.6h-.1c-.3.3-.5.5-.9.1s-.1-.5.3-.8Z"/>
        <path class="8261d448-6e4e-446d-ba68-e9652b78353f" d="M75.5,17.3l.5.9h-.5c-.3.2-.4,0-.5-.2S75.3,17.5,75.5,17.3Z"/>
        <path class="20a0a955-5e4c-4424-a576-867ea7bac88e" d="M76.6,17.1h-.2a.5.5,0,0,1-.3-.6.9.9,0,0,1,.7-.3h0C77.3,16.5,77.3,16.8,76.6,17.1Z"/>
        <path class="dec75f7c-98db-4818-b6ae-e24aa27ed539" d="M76.1,16.5c.2.2.2.4.3.6h-.8c0-.2.2-.3.3-.4H76A.1.1,0,0,0,76.1,16.5Z"/>
        <path class="c8f4fbcf-fbb7-4588-b7b2-3014fe74ebb7" d="M76,16.6h-.2c-.1-.1-.3-.2-.2-.4s.1-.1.2-.1S76,16.4,76,16.6Z"/>
        <path class="fb2a8603-5d58-4618-bd2b-7490264497ec" d="M95.8,39.2h.3a1,1,0,0,1-1.3.3c0-.4-.3-.5-.8-.6s.9-.1,1.2.1A.7.7,0,0,0,95.8,39.2Z"/>
        <path class="c4a2fb4e-60e6-42d6-ac15-ce491af2000b" d="M91.2,38.5c.1-.2.8,0,.4-.5h.1c.3.2.9.2.6.7s-.6,0-.9-.1Z"/>
        <path class="eb427bed-6cc5-4100-afc9-579d1d2c203b" d="M96.1,39.3H96a.8.8,0,0,1,1.1-.2c0,.3-.1.5-.5.5Z"/>
        <path class="f210dc4e-55d3-40d2-b1be-cf2ae13d4501" d="M94.4,40.9a.6.6,0,0,1,.9.1A1,1,0,0,1,94.4,40.9Z"/>
        <path class="1f3cdb2c-15e7-45f8-9fda-335abdcee455" d="M76.6,17.1c.2-.3.5-.6.2-.9s.7.4,1.1.2,0,.5-.4.6-.5.5-.9.1Z"/>
        <path class="5a7105cc-df66-4a4f-805f-c76977be3b85" d="M78.5,18.2c.2-.1.4-.3.2-.5s.5-.5,1-.4a.9.9,0,0,1-.1.7c-.2.1-.3.4-.5.5a.6.6,0,0,1-.7-.1Z"/>
        <path class="20a0a955-5e4c-4424-a576-867ea7bac88e" d="M76.6,17.1c.4.1.6-.1.9-.1s-.6.5-1,.8A.6.6,0,0,0,76.6,17.1Z"/>
        <path class="717d5966-7796-4300-a681-e76fe08166a7" d="M81.1,16.3c-.2.5-.7.6-1.1.8h-.3A2.5,2.5,0,0,1,81.1,16.3Z"/>
        <path class="f622c4f2-274f-4f8e-a02a-b11deae4dbe5" d="M78.5,18.2h0l-.3.4a.5.5,0,0,0-.5.3l-.3.2C77.4,18.6,77.7,18.3,78.5,18.2Z"/>
        <path class="a56c977f-3d11-4f88-9a68-ef264baed0e5" d="M77.9,16.4c-.3-.3-.6-.6-.4-1s.6.4.5.8Z"/>
        <path class="3ed7e0a0-cd09-4b9f-aae1-1b0f3884571a" d="M79.7,17.1H80c0,.2-.1.3-.4.2l-.9.4c0-.3.1-.5.4-.5Z"/>
        <path class="a8ec9440-9570-42c5-9d2a-a0423b2e7603" d="M93.7,31.3h.1c.1.2,0,.3,0,.5a4.2,4.2,0,0,1-1.6.4c-.1-.2-.4-.1-.5-.3a.3.3,0,0,1,.1-.2,2.9,2.9,0,0,0,1-.3c.5-.2-.1-.2-.1-.4h.1C93.2,30.8,93.4,31.1,93.7,31.3Z"/>
        <path class="dec75f7c-98db-4818-b6ae-e24aa27ed539" d="M91.8,32c.2,0,.7-.2.4.3h-.3c-.7.1-.7.1-.6-.4A.4.4,0,0,1,91.8,32Z"/>
        <path class="a244a34c-4d5e-45e2-afce-133948089077" d="M93.7,31.3c-.2.1-.4.3-.5,0s-.2-.2-.4-.2.6-.3.9-.3Z"/>
        <path class="a244a34c-4d5e-45e2-afce-133948089077" d="M93.8,31.9c-.2-.2-.2-.3,0-.5s.6.3.9,0,.1.2,0,.4S94.1,31.6,93.8,31.9Z"/>
        <path class="fb2a8603-5d58-4618-bd2b-7490264497ec" d="M91.8,32h-.5c-.2-.3.1-.4.3-.5s.3.1.2.3Z"/>
        <path class="045c3ff5-ab1c-421b-ac66-6c70e50ed26a" d="M7.2,38.1l-.9-.2c0-.4.2-.3.5-.3H7C7.2,37.8,7.4,37.9,7.2,38.1Z"/>
        <path class="0fc5c830-6b77-4284-a354-2c8d7817d260" d="M89.6,26.1c0,.4.5.5.5.9a.5.5,0,0,1-.5,0h-.8c-.5.3-1.1.1-1.6.4a4.5,4.5,0,0,1-1.1.3h-.4c-.5-.1-.5-.5-.4-.8s.3-.4.6-.4.3.1.4.1-.3.1-.4-.1.7-.5,1.2-.3a.4.4,0,0,0,.5-.2c.1-.1,0-.3-.1-.5h-.4c-.4.1-.7.5-1.2.3s.3-.4.4-.5a1.2,1.2,0,0,1,.5-.5c.5,0,.6-.4,1-.5s.6.3.6.7a.3.3,0,0,1,.3-.3c.2.2.6.2.3.6s.2.3.4.5S89.7,25.9,89.6,26.1Z"/>
        <path class="f594de48-e0a9-4c54-8f02-60b8b46b7465" d="M85.8,27.3c-.1.3-.4.2-.6.2a.4.4,0,0,1,.1-.7C85.4,26.9,85.3,27.4,85.8,27.3Z"/>
        <path class="b4e059f7-50fb-4c6e-ab51-8e698edf574a" d="M61,4.2c-.4-.1-.9-.1-1.1-.4a.4.4,0,0,1,.4-.4h1.1c.3.1.6,0,.8.4h0C61.9,4.4,61.5,4.3,61,4.2Z"/>
        <path class="16134f34-6224-4b2c-bf1c-6b4159d76d7d" d="M61,4.2c.3-.3.8,0,1.2-.3h0l-.4.6a.6.6,0,0,1-.7.5C61,4.8,61.3,4.5,61,4.2Z"/>
        <path class="6ae1c4e8-098c-49e6-a0fb-f08382b64baa" d="M62.2,3.8l-.9-.3c-.2-.1-.5,0-.7,0s-.3-.1-.2-.3.7.1,1-.2.4,0,.5.1,0,.2.1.3S62.3,3.6,62.2,3.8Z"/>
        <path class="95fdb57f-2a8a-48ec-8b9b-8c3a4d58d4d1" d="M62.3,2.6l.3-.4h0c.3-.2.5-.1.8.1s0,.2-.1.2l-.2.2A1.1,1.1,0,0,0,62.3,2.6Z"/>
        <path class="7c69f1dc-a3ed-4401-8923-e59bd2b1697d" d="M60.4,3.2c.2.4.7.1.9.3a7,7,0,0,0-1.4.3.6.6,0,0,1,.1-.6Z"/>
        <path class="0fc5c830-6b77-4284-a354-2c8d7817d260" d="M6.8,37.6c-.2.1-.4.1-.5.3H4.9C5.5,37.3,6.1,37.6,6.8,37.6Z"/>
        <path class="af1d2dca-b1f8-4883-8644-97ca07b9dc75" d="M73.9,13.5v.2c-.1.2-.5.3-.3.6s.5,0,.7,0,0,.6-.4.8-.5.5-.7.8-.2.1-.3,0-.2-.5-.4-.6-.4-.3-.5-.5v-.3c0-.7.2-1,1.1-1.1h.8Z"/>
        <path class="4124c354-4813-4cfa-beed-f91e342bfb27" d="M72.7,15.1c.4.2.5.4.2.8s-.4,0-.6,0v-.4h0C72.4,15.4,72.5,15.1,72.7,15.1Z"/>
        <path class="834d2106-df73-41d0-988d-2c22533406c5" d="M72.8,11c-.2.2-.4.5-.8.4S72,10.9,72.8,11Z"/>
        <path class="76218cc7-578b-4bff-9321-3e4a151231bb" d="M10.6,32.4a1.1,1.1,0,0,1-.8,0c.1-.3.4-.3.7-.3S10.7,32.3,10.6,32.4Z"/>
        <path class="cd8be5a9-1e7e-4555-ad57-f7ef5d07c8a6" d="M96.4,44.4H96c-.1-.1,0-.2.1-.3s1.1.1.9.7S96.7,44.4,96.4,44.4Z"/>
        <path class="cd8be5a9-1e7e-4555-ad57-f7ef5d07c8a6" d="M95.3,43.6h0c.1-.4.4.1.6-.1s.1.4-.1.6-.3.2-.5,0S95.1,43.8,95.3,43.6Z"/>
        <path class="c555480d-1d26-4272-bd41-bbd20b31ed2a" d="M96.3,43.4a.5.5,0,0,1,.6-.4H97C97.1,43.5,97,43.6,96.3,43.4Z"/>
        <path class="a492d6c3-1254-49c5-9853-f1edbcb52e61" d="M46.7,3.5a3.3,3.3,0,0,1,.4,1.4c-.2-.5-.7-.8-.6-1.4Z"/>
        <path class="a6ba8a71-ce6f-495d-b82b-f56e0b3371bb" d="M49.1,6.6c-.3,0-.6-.3-.9.1s.1-.3.2-.5S49,6.2,49.1,6.6Z"/>
        <path class="bc7b171f-ee93-4fb1-b17e-924272c289fc" d="M48.2,3.2c-.5-.1-.7-.1-.7-.4s.1-.3.2-.2S47.9,3,48.2,3.2Z"/>
        <path class="73d5aabf-53dc-45db-8359-35f6360a5554" d="M70.6,14.9c.3-.1.7.5.8-.2s.9.4.9.8h-.1a1.2,1.2,0,0,0-1,0C71.1,15.2,70.8,15.1,70.6,14.9Z"/>
        <path class="1998b298-f078-4df5-b23d-da8deabe6a47" d="M66.9,4.1c.3-.2.5-.3.5-.7s.3.1.3.2a1.2,1.2,0,0,0,.5.5c.1.2,0,.3-.2.4h-.4a1,1,0,0,1-.7-.4Z"/>
        <path class="14aca0a5-ca9b-4048-8d46-96a0d1205d9a" d="M66.9,4.2c.3.2.6-.1.8,0s0,.4-.3.5-.3.2-.4.4V4.2Z"/>
        <path class="a8ec9440-9570-42c5-9d2a-a0423b2e7603" d="M38.1,7.3h-.2c-.2-.3-.3-.5.2-.7S38.1,7.1,38.1,7.3Z"/>
        <path class="045c3ff5-ab1c-421b-ac66-6c70e50ed26a" d="M25.3,10.7a1,1,0,0,1-.5-.9c.3-.1.5-.2.7.1S25.4,10.4,25.3,10.7Z"/>
        <path class="e2a3c369-c19f-4907-b0b4-edbc49762c69" d="M25.5,9.9c-.2,0-.5.1-.7-.1l.4-.5A.9.9,0,0,1,25.5,9.9Z"/>
        <path class="5993c818-18ce-49c8-8290-50f874b752b9" d="M23.9,10.4a.4.4,0,0,1,.3-.4c0,.2.2.3.1.5S24,10.6,23.9,10.4Z"/>
        <path class="7521ef12-d03f-438e-900f-9889bafa2109" d="M88.7,28.3c.3,0,.4.3.6.4s-.9.5-1.5.2v-.2C88,28.3,88.5,28.4,88.7,28.3Z"/>
        <path class="64ce87ab-d940-4c59-893a-246913101997" d="M83.8,24.9l-.4-.3a.4.4,0,0,1,0-.6.6.6,0,0,1,.7-.2h.4c.5.1.7.3.5.8l-.4.3A.8.8,0,0,1,83.8,24.9Z"/>
        <path class="6ae1c4e8-098c-49e6-a0fb-f08382b64baa" d="M84.4,24.1c-.5-.2-.9-.2-1,.5h-.2l-.4-.5c-.3-.1-.5-.2-.4-.6a.1.1,0,0,1,.1-.1c.4-.2.9.2,1.3.1a.7.7,0,0,1,.7.4C84.5,24,84.5,24,84.4,24.1Z"/>
        <path class="a4c77dea-90de-4b8e-b01f-924fdac01143" d="M83.8,24.9c.2.1.5,0,.7,0s.2.1.2.2v.2l-.5.2C84.3,25.2,83.9,25.1,83.8,24.9Z"/>
        <path class="4f8b5475-582c-4022-b9c8-34fd99708c3a" d="M95.3,43.6V44h0a1.1,1.1,0,0,1-.8.1c-.1,0-.3-.2-.4-.1a.4.4,0,0,1-.4-.4v-.2l.4-.3c.2,0,.3.7.7.2Z"/>
        <path class="f46ca843-9dc7-4a86-9279-8db55dd99280" d="M82.4,23.6l.4.5a.9.9,0,0,1-1.1-.1c0-.2.3-.3.2-.6h.4A.4.4,0,0,1,82.4,23.6Z"/>
        <path class="95fdb57f-2a8a-48ec-8b9b-8c3a4d58d4d1" d="M20.7,12a1.5,1.5,0,0,1,.9.4c0,.2,0,.3-.1.4S20.7,12.5,20.7,12Z"/>
        <path class="29435854-82bc-423d-92eb-dd420bd3d33f" d="M88.7,28.3c-.1.4-.5.3-.8.4a.6.6,0,0,0-.8.2c-.4-.1-.9.1-1.1-.5s.7-.1.9-.3.4-.5.8-.5l.6-.2a.5.5,0,0,1,.6.1C88.9,27.8,88.3,28,88.7,28.3Z"/>
        <path class="23651960-ea5d-403a-b301-539d5d097b27" d="M38.3,8.3c0,.2,0,.3-.2.3s-.2-.1-.2-.3.1-.1.2-.1S38.3,8.2,38.3,8.3Z"/>
        <path class="23651960-ea5d-403a-b301-539d5d097b27" d="M80.8,22.8H81a1,1,0,0,1-.8.4C80.2,22.9,80.4,22.8,80.8,22.8Z"/>
        <path class="d321e1ef-7720-4ebc-b062-fedd789fcf5e" d="M77.1,20.6l.4-.4c-.1-.4,0-.6.6-.5s.1.1.1.2.4.3.4.5A2.5,2.5,0,0,1,77.1,20.6Z"/>
        <path class="3c772970-d9e7-43d2-b66c-96b00416df3c" d="M78.7,20.8v-.4l.2-.2c.3-.1.6-.3.9,0s-.1.6-.4.7A.6.6,0,0,1,78.7,20.8Z"/>
        <path class="361c2b94-c912-4421-bc24-ea4bfc88494c" d="M78.9,20.3h-.3a.6.6,0,0,1-.6-.5h.2a.5.5,0,0,1,.7-.1A.4.4,0,0,1,78.9,20.3Z"/>
        <path class="a8ec9440-9570-42c5-9d2a-a0423b2e7603" d="M78.7,20.8h.5c.3.3-.1.3-.2.5h-.5C78.6,21.2,78.4,20.9,78.7,20.8Z"/>
        <path class="834d2106-df73-41d0-988d-2c22533406c5" d="M79,21.3c-.1-.3.2-.3.2-.5a.6.6,0,0,0,.5-.6.6.6,0,0,1,.3-.9c.4-.3.8-.4,1.1.1s.2.2.4.2.8-.1.7.6-.1.2-.3.3h-1a5,5,0,0,0-1.3.4.9.9,0,0,1-.5.3Z"/>
        <path class="1832450c-23cd-4c4e-ac3f-7935a4ed77f0" d="M79.1,21.3a3.5,3.5,0,0,1,1.7-.9h.7c.1.1.1.3.3.2s.4.2.4.4-.5.5-.8.7a2.2,2.2,0,0,0-.8,0h-.4c-.1-.2.1-.3.3-.4s-.3-.2-.4-.3S79.6,21.6,79.1,21.3Z"/>
        <path class="a6f7ae09-09a6-4c03-95c3-f04ef6173956" d="M80.1,21h.2c.1,0,.3-.2.4,0s0,.3-.2.4Z"/>
        <path class="5993c818-18ce-49c8-8290-50f874b752b9" d="M90.3,41.9h0Z"/>
        <path class="21fa109b-e1e7-4de5-b3d5-ea64c58196a0" d="M6.8,30.9l.7-.2c.2.4.2.4-.3.6l-.8.4c-.2,0-.4,0-.5-.2h0c.1,0,.1,0,.1-.1H5.9l.2-.3A1,1,0,0,0,6.8,30.9Z"/>
        <path class="39de380d-e52c-4356-857f-c9ad1e095f63" d="M81.3,23.2h.3c-.1.3-.5.4-.6.8a.2.2,0,0,1-.3.1c-.3-.1-.3-.3-.2-.4A1.4,1.4,0,0,1,81.3,23.2Z"/>
        <path class="10e6c994-0c23-49c7-b863-c89d9e85451c" d="M5.9,31.4h0Z"/>
        <path class="f71f47e1-9da3-41bc-a178-c1d134f0c115" d="M84.4,23.9a.9.9,0,0,1-.6-.3c-.4-.2-.2-.4,0-.6s1.3-.6,2-.8l.5-.2.5-.2c.4-.2.7,0,1.1.2a.5.5,0,0,0,.5,0c.2-.4.6-.4,1-.6a.8.8,0,0,0,.8-.1c.2,0,.5-.1.6.1s-.1.3-.2.5a.3.3,0,0,0,.1.2c-.1.3-.6.5-.2,1h-.2c-.1.1-.3,0-.2.2s.2.2.4.2h.4c.5-.3.7-.1.8.4s-.8.5-1.4.4h-.6c-.4-.2-.6.3-1,.3a.8.8,0,0,1-.7.8c.2-.4,0-.7-.2-1.1s.2-.5.4-.7.3-.3.6-.2h0c-.1-.5-.5-.3-.8-.3s-1.3.1-1.9.2-.7,0-.7.4-.4.2-.7.4Z"/>
        <path class="42701b45-bc69-44f4-b5c6-76d0590d2b11" d="M78,19.9l.3-.4c0-.3.4-.3.5-.5h.3c.3.1.6.2.7-.1s0-.3.1-.4,1-.9,1.7-1.1-.2.4.2.5.2-.4.4-.5h.3c-.1.6.2.8.8.6s.6,0,.4.4.1.4,0,.7-.8.7-1.1,1.1,0,.3-.2.3h-.3c0-.3,0-.6-.5-.3a.4.4,0,0,1-.5-.1c-.7-.5-.9-.4-1.3.3s0,.1-.1.2-.5.1-.8.1-.1-.6-.9-.4Z"/>
        <path class="eb427bed-6cc5-4100-afc9-579d1d2c203b" d="M75.2,11.1l-.5.2-.4-.4c.7.2.8-.4,1.1-.7s0-.2-.2-.3-.6-.2-.2-.6-.1-.6-.4-.7-.5-.4-.6-.8a.7.7,0,0,0-.2-.6c-.4-.3-.2-.5.3-.7s.1.1.1.2.2.7.7.8h.2c-.2.6.5.6.7,1s.2.8.8.8.5.5.7.7,0,.3,0,.4-.3.2-.5.1-.3-.1-.4.2S75.7,11.3,75.2,11.1Z"/>
        <path class="8d5b62bc-2efb-47e0-9633-c06b316a400e" d="M81.6,17.2l-.5.6c-.2.1-.5.3.1.3a.5.5,0,0,1-.5.1c-.3,0-.8-.1-.5.5H80c-.2.1-.3-.1-.4-.2s-.2-.1-.2-.3.1-.3,0-.4.1-.4.2-.6l.4-.2c.3.5.7.3,1,0S81.4,17,81.6,17.2Z"/>
        <path class="f622c4f2-274f-4f8e-a02a-b11deae4dbe5" d="M84.2,19.9l.2.3a.1.1,0,0,1,.1.1,1,1,0,0,1-.8.7l-.4.4c-.2.1-.4.5-.7.3h-.2c-.1-.2.1-.4-.1-.6s.6-.7,1.1-1S83.8,19.6,84.2,19.9Z"/>
        <path class="7a98582e-52f6-4254-a912-67f06d16a1ae" d="M86.9,22.1h-.5c-.5-.2-.3-.7-.4-1s.9,0,1.4-.1.4-.1.5.2l.2.2a.7.7,0,0,1-.8.3C87,21.8,87,21.9,86.9,22.1Z"/>
        <path class="52a8abad-9dba-4e03-a7fa-5348c41b03c2" d="M85.9,20.9l-.5.3c-.1.2,0,.3-.1.5v.2c-.1.4-.3.4-.7.3s-.5-.3-.6-.5.4-.3.3-.6.3-.6.7-.7l.8.2C85.9,20.7,86,20.8,85.9,20.9Z"/>
        <path class="42701b45-bc69-44f4-b5c6-76d0590d2b11" d="M75.2,11.1c.1-.1.3-.2.4-.4s.5-.2.8.1-.1.5,0,.7a.4.4,0,0,1-.5.2Z"/>
        <path class="834d2106-df73-41d0-988d-2c22533406c5" d="M82.4,20.1c.1-1,.4-1.3,1.3-1.3s-.7.4-.3.7.2.3.1.4a1.2,1.2,0,0,1-1,.3Z"/>
        <path class="3ed7e0a0-cd09-4b9f-aae1-1b0f3884571a" d="M86,21.2c.7.2.3.7.4,1l-.5.2c-.4,0-.7-.2-.7-.6h0c.1-.2.3-.1.5-.2Z"/>
        <path class="93ef9f1a-d39b-48f0-866a-8f1d9b3e6199" d="M85.9,20.9v-.3c-.7,0-.5-.4-.4-.7s.6-.4.8,0A.6.6,0,0,1,85.9,20.9Z"/>
        <path class="76218cc7-578b-4bff-9321-3e4a151231bb" d="M85.4,19.9c.4.1,0,.6.4.7s-.5-.1-.8-.1-.4.1-.6-.2h0Z"/>
        <path class="eb427bed-6cc5-4100-afc9-579d1d2c203b" d="M86.9,22.1c.2-.6.7-.6,1.2-.6s0,.4-.2.5S87.2,21.8,86.9,22.1Z"/>
        <path class="7528690b-856e-4665-bfae-e9df0c07956e" d="M84.4,16.3v.5H84a.2.2,0,0,1-.4-.1c-.1-.2,0-.4.2-.4Z"/>
        <path class="6ccaf7fd-b213-474b-86ef-58608b1cb80f" d="M83.8,19.6c0-.1,0-.1.1-.2s.4-.3.6-.1-.1.4-.3.5S83.8,19.9,83.8,19.6Z"/>
        <path class="05028aca-a2b3-4d7d-9623-8c7ecd0e0eb3" d="M77.3,12.2h-1a.4.4,0,0,1-.2-.4,2.5,2.5,0,0,1,1.2.2h0Z"/>
        <path class="eb427bed-6cc5-4100-afc9-579d1d2c203b" d="M87.9,21.3l-.5-.2c.1-.4.4-.2.7-.1v.2C88.2,21.4,88,21.3,87.9,21.3Z"/>
        <path class="29435854-82bc-423d-92eb-dd420bd3d33f" d="M77.3,12a2.5,2.5,0,0,1-1.2-.2h-.2l.5-.2C76.7,11.7,77,11.7,77.3,12Z"/>
        <path class="20a0a955-5e4c-4424-a576-867ea7bac88e" d="M83.8,19.6l.4.2h0c-.3,0-.4.2-.7.3s-.2-.2-.1-.3v-.4Z"/>
        <path class="30dfdf6f-1676-40ce-ba2c-55bc0e757b9c" d="M85.7,21.5c-.2.2-.3.3-.5.2s-.1-.4.2-.5Z"/>
        <path class="7528690b-856e-4665-bfae-e9df0c07956e" d="M85,16.1h.2c.1,0,.3.1.2.3h-.2c-.2,0-.2-.1-.2-.2v-.2Z"/>
        <path class="0e3cb297-0e22-4b4f-8080-4ee4d869d278" d="M88.7,26.7c.6-.4,1,0,1.4.3a.2.2,0,0,1,0,.3h-.9C88.6,27.3,88.5,27.2,88.7,26.7Z"/>
        <path class="24af7333-b7a3-427b-bd87-e7daf7a079c3" d="M63.3,2.4V2.2c-.2-.1-.5-.2-.7,0h0c-.5-.1-.9-.4-1.4-.2V1.8c.5-.5,1-.3,1.5-.2h1c.3.2.3.5.6.7Z"/>
        <path class="0a18e039-a395-4473-a179-99678fe3f8e1" d="M69.2,3.9c.6,0,.5.3.5.6s.2.4.1.5-.3.4-.5.3-.4-.1-.4-.3a.7.7,0,0,0-.4-.6c-.2-.4.1-.5.4-.5Z"/>
        <path class="14aca0a5-ca9b-4048-8d46-96a0d1205d9a" d="M68.9,3.9c-.1.1-.4.1-.2.3s-.4,0-.7,0a2.4,2.4,0,0,1-.6-.8V3.2c.5-.1.7.3,1,.6Z"/>
        <path class="c1eec256-8b10-4555-a578-634fe209ad59" d="M65.3,3h.2c.3.2.7-.1.9.2h0C65.9,3.4,65.5,3.3,65.3,3Z"/>
        <path class="39de380d-e52c-4356-857f-c9ad1e095f63" d="M69.7,5c-.3-.2-.2-.3,0-.5s1,.1,1.3.9l-.2.3-.6.5H70l-.4.2c-.4-.1-.3-.5-.6-.8s.2-.2.4-.2S69.8,5.3,69.7,5Z"/>
        <path class="871250a1-0f9d-40a5-8f3e-e594518754f5" d="M61.2,1.8V2a5.9,5.9,0,0,1-1.9-.5c-.1,0-.3,0-.3-.1s.2-.1.3-.1h.4A6.8,6.8,0,0,0,61.2,1a.9.9,0,0,1,.6.4c0,.2-.2.2-.4.2S61.1,1.6,61.2,1.8Z"/>
        <path class="e9934135-7dfa-44e2-8841-953d24acbceb" d="M61.2,1.8c.1-.4.4-.3.6-.4s1-.4,1.5-.3l-.4.2c.1.1.3,0,.4.2h-.7Z"/>
        <path class="b4a8f15e-af1f-4f57-8fa3-50b8bfb94d44" d="M92.4,36.4a.8.8,0,0,1,.5-.5l.3.3Z"/>
        <path class="c555480d-1d26-4272-bd41-bbd20b31ed2a" d="M96.9,42.8l-.7-.2h.3c0-.1-.1-.1-.2-.1l-.3-.2C96.7,42,96.9,42.1,96.9,42.8Z"/>
        <path class="f210dc4e-55d3-40d2-b1be-cf2ae13d4501" d="M73,14c-.1-.2-.2-.4-.5-.2s-.4.2-.3.5.1.3,0,.4-.4.1-.5-.4V14c0-.4.6-.6.6-1.1l.3-.3v.2c.1.2.1,0,.2-.1s.5-.4.9-.1a.6.6,0,0,1-.2.9C73.3,13.6,73.2,13.8,73,14Z"/>
        <path class="eee15b1c-a97e-4aaf-b32e-45d6a0615c4e" d="M73,14c.1-.5.7-.8.7-1.4h.1a.9.9,0,0,1,0,1C73.6,13.7,73.2,13.7,73,14Z"/>
        <path class="73d5aabf-53dc-45db-8359-35f6360a5554" d="M74,10a.5.5,0,0,1-.4.5c-.1,0-.1-.1-.1-.2a1,1,0,0,1,.4-.5C74,9.8,74,9.9,74,10Z"/>
        <path class="4f8b5475-582c-4022-b9c8-34fd99708c3a" d="M72.3,12.9c.1.5-.4.7-.6,1.1s-.4-1.2.3-1.6a.6.6,0,0,1,0,.6c-.2.1-.3.2-.2.5S72.1,13,72.3,12.9Z"/>
        <path class="7528690b-856e-4665-bfae-e9df0c07956e" d="M70.6,6.1c-.2.1-.3,0-.5,0l.3-.4c.1-.3.3-.2.4,0Z"/>
        <path class="79f531f5-95fd-47d8-86b9-f7e96118421c" d="M88.7,26.7c0,.4.4.5.5.7h-.3c-.4,0-.7.4-1.2.2h-.4a.4.4,0,0,1-.2-.5A4.7,4.7,0,0,1,88.7,26.7Z"/>
        <path class="c3fa91b7-6c6e-4bbd-a3da-fdcbcc063108" d="M65.3,3c.3.3.7.2,1.1.1s-1,.2-1.5.3S64.9,3,65.3,3Z"/>
        <path class="79f531f5-95fd-47d8-86b9-f7e96118421c" d="M79,19c-.1.3-.4.4-.7.5l-.2-.2c.2-.5-.1-.4-.4-.3a1,1,0,0,1,.4-.5C78.6,18.4,78.8,18.7,79,19Z"/>
        <path class="8260b1b0-0403-4eeb-b889-aa9ade68e982" d="M79,19c-.5.1-.5-.4-.9-.5l.4-.2H79c.2,0,.2.1.3.2a.5.5,0,0,1-.3.5Z"/>
        <path class="f46ca843-9dc7-4a86-9279-8db55dd99280" d="M79.1,18.5v-.2l.4-.4h.2c.1-.1.3-.2.4,0s-.1.2-.2.3l-.3.2C79.5,18.5,79.4,18.7,79.1,18.5Z"/>
        <path class="1998b298-f078-4df5-b23d-da8deabe6a47" d="M86.4,25.3a.5.5,0,0,0-.4-.2v-.4c0-.5.3-.7,1-.8s.6-.1.7.2-.2.4-.4.6L87,25Z"/>
        <path class="a492d6c3-1254-49c5-9853-f1edbcb52e61" d="M87,25c0-.2.1-.3.2-.5l.3-.4h-.6c0-.6.2-.7,1-.6s.5,0,.5.3l-.6.5A2.7,2.7,0,0,1,87,25Z"/>
        <path class="07c70756-c781-4109-abc0-b524ab351329" d="M85.9,26.4h1c.1.1.2.1.2.2h-.2c-.4,0-.8,0-1-.3Z"/>
        <path class="39c942c1-3141-496d-bf28-55792d2b3590" d="M87.9,23.6c-.4.1-.8.1-1,.5l-1,.6c-.5,0-.7.5-1.2.4l-.2-.2.3-.3c.2,0,.3-.2.4-.3s.3-.4.1-.6-.5-.2-.3-.4.1-.5.5-.4a1.5,1.5,0,0,0,1.3-.2H87c.2.1,0,.6.4.3s.2-.3.5-.4.4.4.5.6S88.1,23.5,87.9,23.6Z"/>
        <path class="819e00a2-4260-48d3-be80-13e79c725c60" d="M62.6,2.2c.3-.4.7-.1,1.1-.2s-.3.2-.4.2Z"/>
        <path class="7528690b-856e-4665-bfae-e9df0c07956e" d="M69.7,5c.3.2.6.3.2.7s-.3.3-.5,0-.3-.1-.4-.1-.1.6-.5.3-.3-.1-.3-.3.1-.3-.2-.2l-.3.2a.4.4,0,0,1-.1-.3c0-.3-.2-.7.3-.9s.2-.1.1-.2.5.2.7,0,.4.3.5.6S69.4,5.2,69.7,5Z"/>
        <path class="53011de2-a05b-4d50-8040-ad83ba15a68f" d="M67.9,4.4a1.6,1.6,0,0,1-.3.9c-.2,0-.2-.5-.6-.2s.4-.7.7-.9Z"/>
        <path class="df343a04-4a80-4290-b851-4fce33b9e91c" d="M68,5.4c.1-.2.2-.4.5-.2a.2.2,0,0,1,0,.4c-.1.1,0,.2,0,.3s-.4,0-.3-.2S68.1,5.4,68,5.4Z"/>
        <path class="11b3d743-7ac1-48e6-baec-5cf2a8e22cc6" d="M85.3,24.4a.4.4,0,0,1-.5.2c.2-.3,0-.5-.4-.5v-.2h.4C85.5,23.8,85.5,23.8,85.3,24.4Z"/>
        <path class="23651960-ea5d-403a-b301-539d5d097b27" d="M83.9,23.1c-.1.2-.2.3-.1.5a.5.5,0,0,1-.8.1c-.1-.2-.3-.2-.5-.2s.3-.4.6-.5S83.6,22.8,83.9,23.1Z"/>
        <path class="7a68bc81-bd68-4ec7-ba07-3faa21ac20d0" d="M83,23.2l-.5.3h-.1v-.2c.2-.1.1-.4.3-.5h.3c.1.1.2.1.2.3Z"/>
        <path class="23651960-ea5d-403a-b301-539d5d097b27" d="M82.8,23h-.2l-.4-.4c.1-.1,0-.2.2-.3h.3c.2-.1.3,0,.5.1s.4.2.4.4S83.1,22.9,82.8,23Z"/>
        <path class="9c488b8d-30d0-4a46-8dcc-21eb52e9ab0b" d="M82.4,22.3l-.2.2H82l-.3-.2c0-.3.3-.4.6-.4S82.6,22.1,82.4,22.3Z"/>
        <path class="9862cbf0-a8df-4b9d-aed1-064223824f44" d="M82.4,21c.5.1.3.3.2.6s-.6.5-1.1.5h-.1v-.2h0a1.2,1.2,0,0,1,.8-.6C82.2,21.1,82.2,21,82.4,21Z"/>
        <path class="30dfdf6f-1676-40ce-ba2c-55bc0e757b9c" d="M81.5,22.1c.4-.1.6-.5,1.1-.5h0c.1.3-.1.2-.3.2l-.6.3Z"/>
        <path class="7a68bc81-bd68-4ec7-ba07-3faa21ac20d0" d="M81.3,21.8h0c-.2,0-.5.3-.7-.1S81.1,21.5,81.3,21.8Z"/>
        <path class="6ccaf7fd-b213-474b-86ef-58608b1cb80f" d="M82.1,20.1h.3c.2.5.1.6-.7.8h-.1c-.2.1-.4.3-.5.2s.2-.3.3-.5a.3.3,0,0,0,.1-.2l.3-.2Z"/>
        <path class="6ae1c4e8-098c-49e6-a0fb-f08382b64baa" d="M81.8,20.3l-.3.2a.6.6,0,0,1-.7-.1C81.1,20,81.5,20.4,81.8,20.3Z"/>
        <path class="c1eec256-8b10-4555-a578-634fe209ad59" d="M81.7,20.9c.2-.3.8-.3.7-.8a1.2,1.2,0,0,1,1-.2v.3c-.3.3-.9.3-1.1.8s-.2.2-.3.2S81.9,20.9,81.7,20.9Z"/>
        <path class="6a4299f0-6f03-4c06-8d4e-53ce577481e9" d="M83.4,22.7l-.3-.4a.7.7,0,0,1,.4-.5l.2-.2h.4l.7.2c.2.2.3,0,.4-.1s.5.3.7.6a6.8,6.8,0,0,0-2,.7H83C83.1,22.9,83.5,23,83.4,22.7Z"/>
        <path class="30dfdf6f-1676-40ce-ba2c-55bc0e757b9c" d="M87.9,23.6c.2-.3.6-.7,0-1.1s.4.1.6.3.1-.6.4-.4.5.5.2.8l-.2.2h0l-.5.4A.6.6,0,0,0,87.9,23.6Z"/>
        <path class="b6a79d52-3351-47ad-9008-0210bd44905c" d="M85.3,24.4c0-.4-.3-.5-.7-.5s.5-.1.7-.2h.8Z"/>
        <path class="30dfdf6f-1676-40ce-ba2c-55bc0e757b9c" d="M88.9,23.4H89c.2,0,.4-.2.5.1v.2a.4.4,0,0,1-.5-.2c-.1,0-.1,0-.1-.1Z"/>
        <path class="3a9630f3-5a87-46a4-a6de-f95bb90f344d" d="M83,18.6l-1.4.8c.2-.5.8-.7,1.3-1Z"/>
        <path class="c8f4fbcf-fbb7-4588-b7b2-3014fe74ebb7" d="M79.7,18.5l.3.3c-.2.3-.5.6-.9.2S79.3,18.5,79.7,18.5Z"/>
        <path class="bdebfca3-8fdb-4b12-b89a-57873d002aa1" d="M79.7,18.5l-.6.5H79v-.5l.4-.2Z"/>
        <path class="73d5aabf-53dc-45db-8359-35f6360a5554" d="M84.4,20.3l.6.2c-.4.1-.5.3-.3.7l-.9.2c-.2,0-.5.1-.6-.1S84,20.7,84.4,20.3Z"/>
        <path class="4261ee59-cddc-4be5-8464-3a2e31680579" d="M83.2,21.3h.6a.3.3,0,0,1,0,.4c-.1.1-.4.2-.5.4s-.5,0-.6.2h-.3a.6.6,0,0,0-.1-.4c.1-.1.3-.1.3-.2Z"/>
        <path class="6248da60-dac9-4235-b284-999c53b5d6a3" d="M83.7,21.5v-.3c.3,0,.6-.3.9,0s-.4.3-.6.5h-.3A.4.4,0,0,1,83.7,21.5Z"/>
        <path class="8a0d450d-dfc5-4a28-ba53-696d4f67f078" d="M83.4,22.7c.1,0,.6.1.1.2l-.5.2h-.2c.1-.2,0-.4.3-.2S83.4,22.8,83.4,22.7Z"/>
        <path class="10e6c994-0c23-49c7-b863-c89d9e85451c" d="M82.7,22.2c0-.2.3-.2.5-.3a.5.5,0,0,1,.6.1l-.7.3Z"/>
        <path class="6248da60-dac9-4235-b284-999c53b5d6a3" d="M83.8,22h-.6c0-.3.2-.4.5-.4V22Z"/>
      </g>
    </g>
  </g>
</svg>
