<svg xmlns="http://www.w3.org/2000/svg" viewBox="0 0 316.3 113.1">
  <defs>
    <style>
      .\35 fe6ad0c-2b10-4202-8796-304ac985475c {
        fill: none;
      }

      .f6c4fb78-69a4-4197-bcff-55f4864853b0 {
        fill: #fefefe;
      }

      .bf9883b6-4c81-4ac6-a446-c0c3afa54c77 {
        fill: #b7b8bc;
      }

      .a811b684-fd4f-4ae1-9587-d04b1e3599ba {
        fill: #b7b8bc;
      }
    </style>
  </defs>
  <title>Sina-logo</title>
  <g id="b29d5b98-8729-44bd-8e6d-a8b47bbedc3d" data-name="Слой 2">
    <g id="1e3a313d-eb93-4ccf-86ee-1b77128778c9" data-name="Layer 1">
      <path class="5fe6ad0c-2b10-4202-8796-304ac985475c" d="M70.2.2A9.3,9.3,0,0,0,66,2.8a32.1,32.1,0,0,0-5.9,7.8c-1,1.4-1.9,3-3.5,3.8s-2.3.1-2.5-1A32.4,32.4,0,0,1,54.3,9c0-.8,0-1.7-.7-2.1s-2.1.3-2.8.9-2.9,4.3-3.9,6.7-1.1,3.6-2.5,4.9a1.4,1.4,0,0,1-2.1-.5c-.7-1.7.1-3.5-.3-5.2s-1.3-.6-1.8-.1-2.6,3.6-3.5,5.6S35,23.9,33.9,26a25.7,25.7,0,0,0-2.8,11.5,14.4,14.4,0,0,0,3.8,9.7c3.2,3.6,7.7,5.7,12.2,7.1a54.6,54.6,0,0,0,21.3,1.4,61.2,61.2,0,0,0,17.2-4.8,33.5,33.5,0,0,0,10.6-7.3,17,17,0,0,0,4.7-9.1,19.9,19.9,0,0,0-1.9-12,3.3,3.3,0,0,1-.3-2.9c1.4-3.1,4.7-5.2,5.5-8.6.4-1.3-1-2.3-2.2-2.1-4,.4-7.4,2.7-10.5,5.1-1.1.8-2.5,1.7-3.9,1.3a1.2,1.2,0,0,1-1-1.5,10.7,10.7,0,0,1,1.7-4.6c.7-1.6,1.9-3,2.2-4.7a1.9,1.9,0,0,0-.6-1.9,4.2,4.2,0,0,0-2.7,0A16,16,0,0,0,81,6.7l-3.7,3.7a11.8,11.8,0,0,1-2.6,2.4,3.2,3.2,0,0,1-2.7.4,2.3,2.3,0,0,1-.8-2.2c.2-3.1,2.1-5.8,2.4-8.8.1-.7,0-1.7-.7-2A5,5,0,0,0,70.2.2Z"/>
      <path class="f6c4fb78-69a4-4197-bcff-55f4864853b0" d="M246.2,54.8l-.7,2.5H234.6l-9.1,30.1c-.4,1.4-.7,3,.4,4.2s2.8,1.2,4.3,1.3H238l1.2-4.5H234a1.8,1.8,0,0,1-1.3-.3,1.7,1.7,0,0,1,0-1.7c.9-3.2,1.9-6.4,2.9-9.6h23.7l4.5-14.7a3.6,3.6,0,0,0-.5-3.2,6.1,6.1,0,0,0-4.3-1.7h-6.8a24.1,24.1,0,0,1,.8-2.5Z"/>
      <path class="f6c4fb78-69a4-4197-bcff-55f4864853b0" d="M73,59.4,62.8,92.6h13c2.7-8.8,5.3-17.5,8.1-26.2a17.2,17.2,0,0,1,9.7-2.2,4.4,4.4,0,0,1,3.1,1.3,3.5,3.5,0,0,1,.6,2.8,37.4,37.4,0,0,1-1.6,6.6c-1.8,5.9-3.6,11.8-5.5,17.7h13l7.7-24.8c.7-2.8,1.2-6-.2-8.7a6.9,6.9,0,0,0-4-3.1c-3.8-1.3-7.9-1.3-11.8-1.1A74.3,74.3,0,0,0,73,59.4Z"/>
      <path class="f6c4fb78-69a4-4197-bcff-55f4864853b0" d="M122.8,56.5l-2.7,8.8A39.4,39.4,0,0,1,138.4,63a8,8,0,0,1,4.1,1.3,3.3,3.3,0,0,1,.8,3.5c-1.5,4.8-2.9,9.7-4.4,14.5a15.6,15.6,0,0,1-9.2,2.5c-1.5,0-3.3-.2-4.4-1.5s-.3-2.2.1-3.2,2.7-3.2,4.7-3.8a44.3,44.3,0,0,1,7.3-1.1c.7-2.2,1.4-4.5,2-6.8-5.9.4-12,.7-17.6,2.9a16.5,16.5,0,0,0-8.6,6.8,12.8,12.8,0,0,0-1.8,6.6,6.9,6.9,0,0,0,3.8,6.2c4.4,2.1,9.4,2,14,1.5a40.6,40.6,0,0,0,21.4-8.7,2.3,2.3,0,0,0,1-1.4c1.5-5.1,3.1-10.2,4.7-15.3.6-2.3.9-5-.4-7.2s-3.3-3.1-5.5-3.7a39.3,39.3,0,0,0-11.3-1.3A81.3,81.3,0,0,0,122.8,56.5Z"/>
      <path class="f6c4fb78-69a4-4197-bcff-55f4864853b0" d="M177,54.8c-.3.9-.5,1.7-.8,2.5H167l-1.2,4.2h25.5c.4-1.4.9-2.8,1.3-4.2h-9.8c.3-.8.5-1.6.8-2.5Z"/>
      <path class="f6c4fb78-69a4-4197-bcff-55f4864853b0" d="M14.6,58.8c-3,1.7-5.9,4.1-7.2,7.4s-1.3,4.9-.1,7.1,3.5,3.4,5.7,4.2c3.9,1.3,8.2,1.3,12.2,2.5.7.3,1.6.6,1.8,1.4a2.9,2.9,0,0,1-1.8,2.8c-1.8,1-4,1.1-6.1,1.2-5.7.1-11.7-1.6-16-5.4C2,83.4,1,86.8,0,90.2a38.4,38.4,0,0,0,14.6,2.9,40.2,40.2,0,0,0,15-2.2c3.8-1.5,7.6-3.8,9.8-7.4a10.2,10.2,0,0,0,1.4-7.6,7.1,7.1,0,0,0-4.4-4.4c-3.4-1.4-7.1-1.7-10.7-2.4a16.9,16.9,0,0,1-4.4-1.2,2,2,0,0,1-.2-2.9,5.9,5.9,0,0,1,3.3-1.7,23.8,23.8,0,0,1,12.4.8,18,18,0,0,1,5.9,3.6c.9-3.4,1.9-6.7,2.9-10.1A41.5,41.5,0,0,0,33,55.1C26.7,54.9,20.2,55.7,14.6,58.8Z"/>
      <path class="f6c4fb78-69a4-4197-bcff-55f4864853b0" d="M271,62.1,260.9,92.9h7c3.5-10.6,6.9-21.3,10.4-31.9a1.9,1.9,0,0,1,1.9-1.4h27.5a1.3,1.3,0,0,1,1.1,1.9c-2.7,8.3-5.5,16.6-8.2,25a2.3,2.3,0,0,1-2,1.9c-2,0-4-.1-6,0l-1.5,4.5h9a8.8,8.8,0,0,0,5.7-2,10.2,10.2,0,0,0,2.4-4.6L316,62c.4-1.6.6-3.5-.5-5a5.4,5.4,0,0,0-4.2-1.6H279.5C275.5,55.3,272.2,58.5,271,62.1Z"/>
      <path class="f6c4fb78-69a4-4197-bcff-55f4864853b0" d="M198.9,56.3c-2.7.9-4.7,3.5-5.6,6.2-3,10.1-6.1,20.2-9.1,30.3h6.6c2.1-7.1,4.3-14.3,6.5-21.5h5.2c-2.2,7.2-4.4,14.4-6.5,21.5h6.5l6.6-21.6h2.6c.5-1.4.9-2.8,1.3-4.2H198.6c.5-1.9,1.1-3.7,1.6-5.6s.9-1.5,1.7-1.5h13.3l1.2-4.2H203.7A13.1,13.1,0,0,0,198.9,56.3Z"/>
      <path class="f6c4fb78-69a4-4197-bcff-55f4864853b0" d="M221.8,63.1c1.8,2.4,4.8,3.4,7.7,3.7.5-1.6.9-3.3,1.4-4.9a6.5,6.5,0,0,1-2.6-1.7,5.7,5.7,0,0,1-1.2-4.4h-6.3C220.2,58.2,220.2,61,221.8,63.1Z"/>
      <path class="f6c4fb78-69a4-4197-bcff-55f4864853b0" d="M50.5,59.3C48.1,69.7,45.9,80.1,44,90.6c-.9,5.5-1.8,11-2.2,16.6A25.7,25.7,0,0,0,42,112c.1.4.1,1,.6,1.1a2.8,2.8,0,0,0,1.7-.9,27.5,27.5,0,0,0,2.6-4,175.9,175.9,0,0,0,7.3-16.7c4-10.4,7.6-20.9,11.1-31.5A36.9,36.9,0,0,1,50.5,59.3Z"/>
      <path class="f6c4fb78-69a4-4197-bcff-55f4864853b0" d="M167.4,63c.2,1.4.4,2.8.5,4.1h-3.8l-1.2,4.1h9.7c-.4,1.1-.7,2.2-1,3.3h-9.8l-1.2,4.2h9.7c-1.5,4.7-2.9,9.4-4.4,14.1h6.3c1.4-4.7,2.9-9.4,4.3-14.1h9.6l1.2-4.2h-9.5a29.9,29.9,0,0,1,1-3.2h9.5c.4-1.3.8-2.7,1.3-4.1h-3.7l2.9-4c-2.2,0-4.3-.1-6.4,0s-1.9,2.7-2.9,4h-5.2l-.6-4.1Z"/>
      <path class="f6c4fb78-69a4-4197-bcff-55f4864853b0" d="M279.8,63.1a31.2,31.2,0,0,0,0,13.6,43.2,43.2,0,0,1-5.1,4.5c-.3.2-.5.3-.6.7l-1.4,4.2a20,20,0,0,0,8.8-4.8,16.9,16.9,0,0,0,3.5,4.9l2.1-6.4a11.7,11.7,0,0,1-1.7-2.8,47.3,47.3,0,0,0,6.8-13.9h-4.7a32.4,32.4,0,0,1-3.7,8.3,25.6,25.6,0,0,1,.3-8.3Z"/>
      <path class="f6c4fb78-69a4-4197-bcff-55f4864853b0" d="M293.7,63.1a28.1,28.1,0,0,0-.4,13.5,28.4,28.4,0,0,1-5.4,5l-1.5,4.6a19.5,19.5,0,0,0,8.4-5,16.4,16.4,0,0,0,3.6,5l2.1-6.4a9.7,9.7,0,0,1-1.8-3.1,48.7,48.7,0,0,0,6.5-13.6h-4.8a41.8,41.8,0,0,1-3.1,7.6,27.6,27.6,0,0,1,.6-7.6Z"/>
      <path class="f6c4fb78-69a4-4197-bcff-55f4864853b0" d="M217.4,67.1c-.7,2.4-.8,5.2.7,7.3s4.8,3.7,7.8,4l1.5-4.9a4.9,4.9,0,0,1-2.8-1.8,5.8,5.8,0,0,1-1-4.6Z"/>
      <path class="f6c4fb78-69a4-4197-bcff-55f4864853b0" d="M237.5,78.4a18.5,18.5,0,0,0,4.3,8.6,19.4,19.4,0,0,0,12.6,5.9l1.6-5.2a15.7,15.7,0,0,1-5.5-1.9,21.3,21.3,0,0,0,7.8-7.4h-5.9a16.7,16.7,0,0,1-5.2,4.7,16.6,16.6,0,0,1-2.9-4.8Z"/>
      <path class="f6c4fb78-69a4-4197-bcff-55f4864853b0" d="M158.5,85.5c-.6,1.8-1.2,3.7-1.7,5.6a10.8,10.8,0,0,0,6.4-2.7,16.7,16.7,0,0,0,5.1-8.3h-4.8A9.2,9.2,0,0,1,158.5,85.5Z"/>
      <path class="f6c4fb78-69a4-4197-bcff-55f4864853b0" d="M177,80.1a17.5,17.5,0,0,0,.4,4.6,9.9,9.9,0,0,0,4.9,6.4c.5-1.8,1.2-3.7,1.6-5.6a7.6,7.6,0,0,1-2.2-5.4Z"/>
      <path class="f6c4fb78-69a4-4197-bcff-55f4864853b0" d="M219,80.5c-1.6,2.8-4.5,4.5-7.4,5.5-.7,2.3-1.5,4.6-2,6.9,6.9-.8,13.4-5.6,15.6-12.4Z"/>
      <path class="f6c4fb78-69a4-4197-bcff-55f4864853b0" d="M61.7,36.7A1,1,0,0,1,63,37c.6,1-.7,2.4-1.7,1.8A1.2,1.2,0,0,1,61.7,36.7Z"/>
      <path class="f6c4fb78-69a4-4197-bcff-55f4864853b0" d="M57.1,37.4a3.1,3.1,0,0,1,3.7,1.9c1,2.5-1.3,5.6-4,5.6a3,3,0,0,1-2.9-2.3A4.4,4.4,0,0,1,57.1,37.4Z"/>
      <path class="f6c4fb78-69a4-4197-bcff-55f4864853b0" d="M240.2,61.6c5.2,0,10.4-.1,15.5,0a.9.9,0,0,1,1.1.9,14.2,14.2,0,0,1-.5,2.2H239.2C239.6,63.7,239.9,62.6,240.2,61.6Z"/>
      <path class="f6c4fb78-69a4-4197-bcff-55f4864853b0" d="M236.9,72.6c.3-1.2.7-2.4,1.1-3.6h17c-.4,1.2-.8,2.3-1.1,3.5Z"/>
      <path class="bf9883b6-4c81-4ac6-a446-c0c3afa54c77" d="M70.2.2a5,5,0,0,1,2.7,0c.7.3.8,1.3.7,2-.3,3-2.2,5.7-2.4,8.8a2.3,2.3,0,0,0,.8,2.2,3.2,3.2,0,0,0,2.7-.4,11.8,11.8,0,0,0,2.6-2.4L81,6.7a16,16,0,0,1,6.2-4.1,4.2,4.2,0,0,1,2.7,0,1.9,1.9,0,0,1,.6,1.9c-.3,1.7-1.5,3.1-2.2,4.7a10.7,10.7,0,0,0-1.7,4.6,1.2,1.2,0,0,0,1,1.5c1.4.4,2.8-.5,3.9-1.3C94.6,11.6,98,9.3,102,8.9c1.2-.2,2.6.8,2.2,2.1-.8,3.4-4.1,5.5-5.5,8.6a3.3,3.3,0,0,0,.3,2.9,19.9,19.9,0,0,1,1.9,12,17,17,0,0,1-4.7,9.1,33.5,33.5,0,0,1-10.6,7.3,61.2,61.2,0,0,1-17.2,4.8,54.6,54.6,0,0,1-21.3-1.4c-4.5-1.4-9-3.5-12.2-7.1a14.4,14.4,0,0,1-3.8-9.7A25.7,25.7,0,0,1,33.9,26c1.1-2.1,1.8-4.6,2.8-6.8s1.7-4.2,3.5-5.6,1.6-.7,1.8.1-.4,3.5.3,5.2a1.4,1.4,0,0,0,2.1.5c1.4-1.3,1.7-3.3,2.5-4.9s2-4.9,3.9-6.7,1.8-1.4,2.8-.9.7,1.3.7,2.1a32.4,32.4,0,0,0-.2,4.4c.2,1.1,1.6,1.4,2.5,1s2.5-2.4,3.5-3.8A32.1,32.1,0,0,1,66,2.8,9.3,9.3,0,0,1,70.2.2Zm-8,22.1a34,34,0,0,0-16.8,6.4,15,15,0,0,0-5.6,7.5,9.7,9.7,0,0,0,.6,7.1,14.8,14.8,0,0,0,6.8,6.3,31.5,31.5,0,0,0,13.9,2.9,37.6,37.6,0,0,0,17.4-4.3c3.3-1.9,6.4-4.4,8.1-7.8a10.2,10.2,0,0,0,.5-8.7c-1.5-3.3-4.5-5.5-7.6-7A33.1,33.1,0,0,0,62.2,22.3Z"/>
      <path class="a811b684-fd4f-4ae1-9587-d04b1e3599ba" d="M60.4,28.4a10.3,10.3,0,0,1,7.3,1.2,8.3,8.3,0,0,1,4,5.3,10.4,10.4,0,0,1-1.3,7.9c-2.8,5-9.2,7.9-14.7,6.1a8.6,8.6,0,0,1-5.4-4.6,9.7,9.7,0,0,1,0-8A13.4,13.4,0,0,1,60.4,28.4Zm1.3,8.3a1.2,1.2,0,0,0-.4,2.1c1,.6,2.3-.8,1.7-1.8A1,1,0,0,0,61.7,36.7Zm-4.6.7a4.4,4.4,0,0,0-3.2,5.2,3,3,0,0,0,2.9,2.3c2.7,0,5-3.1,4-5.6A3.1,3.1,0,0,0,57.1,37.4Z"/>
      <path class="a811b684-fd4f-4ae1-9587-d04b1e3599ba" d="M246.2,54.8H253a24.1,24.1,0,0,0-.8,2.5H259a6.1,6.1,0,0,1,4.3,1.7,3.6,3.6,0,0,1,.5,3.2l-4.5,14.7H235.6c-1,3.2-2,6.4-2.9,9.6a1.7,1.7,0,0,0,0,1.7,1.8,1.8,0,0,0,1.3.3h5.2L238,92.9h-7.8c-1.5-.1-3.2-.2-4.3-1.3s-.8-2.8-.4-4.2l9.1-30.1h10.9Zm-6,6.8c-.3,1-.6,2.1-1,3.2h17.1a14.2,14.2,0,0,0,.5-2.2.9.9,0,0,0-1.1-.9C250.6,61.5,245.4,61.6,240.2,61.6Zm-3.3,11h17c.3-1.2.7-2.3,1.1-3.5H238C237.6,70.2,237.2,71.4,236.9,72.6Z"/>
      <path class="a811b684-fd4f-4ae1-9587-d04b1e3599ba" d="M73,59.4a74.3,74.3,0,0,1,21.9-4.5c3.9-.2,8-.2,11.8,1.1a6.9,6.9,0,0,1,4,3.1c1.4,2.7.9,5.9.2,8.7l-7.7,24.8h-13c1.9-5.9,3.7-11.8,5.5-17.7a37.4,37.4,0,0,0,1.6-6.6,3.5,3.5,0,0,0-.6-2.8,4.4,4.4,0,0,0-3.1-1.3,17.2,17.2,0,0,0-9.7,2.2c-2.8,8.7-5.4,17.4-8.1,26.2h-13Z"/>
      <path class="a811b684-fd4f-4ae1-9587-d04b1e3599ba" d="M122.8,56.5a81.3,81.3,0,0,1,16.3-1.7,39.3,39.3,0,0,1,11.3,1.3c2.2.6,4.4,1.7,5.5,3.7s1,4.9.4,7.2c-1.6,5.1-3.2,10.2-4.7,15.3a2.3,2.3,0,0,1-1,1.4,40.6,40.6,0,0,1-21.4,8.7c-4.6.5-9.6.6-14-1.5a6.9,6.9,0,0,1-3.8-6.2,12.8,12.8,0,0,1,1.8-6.6,16.5,16.5,0,0,1,8.6-6.8c5.6-2.2,11.7-2.5,17.6-2.9-.6,2.3-1.3,4.6-2,6.8a44.3,44.3,0,0,0-7.3,1.1c-2,.6-4,1.8-4.7,3.8s-.8,2.3-.1,3.2,2.9,1.5,4.4,1.5a15.6,15.6,0,0,0,9.2-2.5c1.5-4.8,2.9-9.7,4.4-14.5a3.3,3.3,0,0,0-.8-3.5,8,8,0,0,0-4.1-1.3,39.4,39.4,0,0,0-18.3,2.3Z"/>
      <path class="a811b684-fd4f-4ae1-9587-d04b1e3599ba" d="M177,54.8h6.6c-.3.9-.5,1.7-.8,2.5h9.8c-.4,1.4-.9,2.8-1.3,4.2H165.8l1.2-4.2h9.2C176.5,56.5,176.7,55.7,177,54.8Z"/>
      <path class="a811b684-fd4f-4ae1-9587-d04b1e3599ba" d="M14.6,58.8c5.6-3.1,12.1-3.9,18.4-3.7a41.5,41.5,0,0,1,12.6,2.5c-1,3.4-2,6.7-2.9,10.1a18,18,0,0,0-5.9-3.6,23.8,23.8,0,0,0-12.4-.8A5.9,5.9,0,0,0,21.1,65a2,2,0,0,0,.2,2.9,16.9,16.9,0,0,0,4.4,1.2c3.6.7,7.3,1,10.7,2.4a7.1,7.1,0,0,1,4.4,4.4,10.2,10.2,0,0,1-1.4,7.6c-2.2,3.6-6,5.9-9.8,7.4a40.2,40.2,0,0,1-15,2.2A38.4,38.4,0,0,1,0,90.2C1,86.8,2,83.4,3.1,80c4.3,3.8,10.3,5.5,16,5.4,2.1-.1,4.3-.2,6.1-1.2A2.9,2.9,0,0,0,27,81.4c-.2-.8-1.1-1.1-1.8-1.4-4-1.2-8.3-1.2-12.2-2.5-2.2-.8-4.5-2-5.7-4.2s-.8-4.9.1-7.1S11.6,60.5,14.6,58.8Z"/>
      <path class="a811b684-fd4f-4ae1-9587-d04b1e3599ba" d="M271,62.1c1.2-3.6,4.5-6.8,8.5-6.7h31.8a5.4,5.4,0,0,1,4.2,1.6c1.1,1.5.9,3.4.5,5l-7.8,24.3a10.2,10.2,0,0,1-2.4,4.6,8.8,8.8,0,0,1-5.7,2h-9l1.5-4.5c2-.1,4,0,6,0a2.3,2.3,0,0,0,2-1.9c2.7-8.4,5.5-16.7,8.2-25a1.3,1.3,0,0,0-1.1-1.9H280.2a1.9,1.9,0,0,0-1.9,1.4c-3.5,10.6-6.9,21.3-10.4,31.9h-7Z"/>
      <path class="a811b684-fd4f-4ae1-9587-d04b1e3599ba" d="M198.9,56.3a13.1,13.1,0,0,1,4.8-.5h12.7L215.2,60H201.9c-.8,0-1.4.8-1.7,1.5s-1.1,3.7-1.6,5.6H213c-.4,1.4-.8,2.8-1.3,4.2h-2.6l-6.6,21.6H196c2.1-7.1,4.3-14.3,6.5-21.5h-5.2c-2.2,7.2-4.4,14.4-6.5,21.5h-6.6c3-10.1,6.1-20.2,9.1-30.3C194.2,59.8,196.2,57.2,198.9,56.3Z"/>
      <path class="a811b684-fd4f-4ae1-9587-d04b1e3599ba" d="M221.8,63.1c-1.6-2.1-1.6-4.9-1-7.3h6.3a5.7,5.7,0,0,0,1.2,4.4,6.5,6.5,0,0,0,2.6,1.7c-.5,1.6-.9,3.3-1.4,4.9C226.6,66.5,223.6,65.5,221.8,63.1Z"/>
      <path class="a811b684-fd4f-4ae1-9587-d04b1e3599ba" d="M50.5,59.3a36.9,36.9,0,0,0,14.8.7c-3.5,10.6-7.1,21.1-11.1,31.5a175.9,175.9,0,0,1-7.3,16.7,27.5,27.5,0,0,1-2.6,4,2.8,2.8,0,0,1-1.7.9c-.5-.1-.5-.7-.6-1.1a25.7,25.7,0,0,1-.2-4.8c.4-5.6,1.3-11.1,2.2-16.6C45.9,80.1,48.1,69.7,50.5,59.3Z"/>
      <path class="a811b684-fd4f-4ae1-9587-d04b1e3599ba" d="M167.4,63h6.3l.6,4.1h5.2c1-1.3,2-2.6,2.9-4s4.2,0,6.4,0l-2.9,4h3.7c-.5,1.4-.9,2.8-1.3,4.1h-9.5a29.9,29.9,0,0,0-1,3.2h9.5l-1.2,4.2h-9.6c-1.4,4.7-2.9,9.4-4.3,14.1h-6.3c1.5-4.7,2.9-9.4,4.4-14.1h-9.7l1.2-4.2h9.8c.3-1.1.6-2.2,1-3.3h-9.7l1.2-4.1h3.8C167.8,65.8,167.6,64.4,167.4,63Z"/>
      <path class="a811b684-fd4f-4ae1-9587-d04b1e3599ba" d="M279.8,63.1h4.3a25.6,25.6,0,0,0-.3,8.3,32.4,32.4,0,0,0,3.7-8.3h4.7A47.3,47.3,0,0,1,285.4,77a11.7,11.7,0,0,0,1.7,2.8L285,86.2a16.9,16.9,0,0,1-3.5-4.9,20,20,0,0,1-8.8,4.8l1.4-4.2c.1-.4.3-.5.6-.7a43.2,43.2,0,0,0,5.1-4.5A31.2,31.2,0,0,1,279.8,63.1Z"/>
      <path class="a811b684-fd4f-4ae1-9587-d04b1e3599ba" d="M293.7,63.1h4.2a27.6,27.6,0,0,0-.6,7.6,41.8,41.8,0,0,0,3.1-7.6h4.8a48.7,48.7,0,0,1-6.5,13.6,9.7,9.7,0,0,0,1.8,3.1l-2.1,6.4a16.4,16.4,0,0,1-3.6-5,19.5,19.5,0,0,1-8.4,5l1.5-4.6a28.4,28.4,0,0,0,5.4-5A28.1,28.1,0,0,1,293.7,63.1Z"/>
      <path class="a811b684-fd4f-4ae1-9587-d04b1e3599ba" d="M217.4,67.1h6.2a5.8,5.8,0,0,0,1,4.6,4.9,4.9,0,0,0,2.8,1.8l-1.5,4.9c-3-.3-6.1-1.4-7.8-4S216.7,69.5,217.4,67.1Z"/>
      <path class="a811b684-fd4f-4ae1-9587-d04b1e3599ba" d="M237.5,78.4h6.8a16.6,16.6,0,0,0,2.9,4.8,16.7,16.7,0,0,0,5.2-4.7h5.9a21.3,21.3,0,0,1-7.8,7.4,15.7,15.7,0,0,0,5.5,1.9l-1.6,5.2A19.4,19.4,0,0,1,241.8,87,18.5,18.5,0,0,1,237.5,78.4Z"/>
      <path class="a811b684-fd4f-4ae1-9587-d04b1e3599ba" d="M158.5,85.5a9.2,9.2,0,0,0,5-5.4h4.8a16.7,16.7,0,0,1-5.1,8.3,10.8,10.8,0,0,1-6.4,2.7C157.3,89.2,157.9,87.3,158.5,85.5Z"/>
      <path class="a811b684-fd4f-4ae1-9587-d04b1e3599ba" d="M177,80.1h4.7a7.6,7.6,0,0,0,2.2,5.4c-.4,1.9-1.1,3.8-1.6,5.6a9.9,9.9,0,0,1-4.9-6.4A17.5,17.5,0,0,1,177,80.1Z"/>
      <path class="a811b684-fd4f-4ae1-9587-d04b1e3599ba" d="M219,80.5h6.2c-2.2,6.8-8.7,11.6-15.6,12.4.5-2.3,1.3-4.6,2-6.9C214.5,85,217.4,83.3,219,80.5Z"/>
    </g>
  </g>
</svg>
