<svg xmlns="http://www.w3.org/2000/svg" viewBox="0 0 1252.4 524.1">
  <title>Pingan-logo</title>
  <g id="53f10593-a015-44fe-8ac9-c64639375a39" data-name="Слой 2">
    <g id="adcfc97c-242b-48b1-96db-3b0f69238a97" data-name="图层 1">
      <path d="M503,323.5H473.1a4.7,4.7,0,0,0-4.7,4.7V464.7C452.8,447,349.4,329.8,346.8,327a12,12,0,0,0-9-3.5H308.2a4.6,4.6,0,0,0-4.7,4.7V516.7a4.6,4.6,0,0,0,4.7,4.7h30a4.8,4.8,0,0,0,4.7-4.7V379.1c11.3,12.8,120,136,122.7,138.8a12,12,0,0,0,9,3.5h28.5a4.7,4.7,0,0,0,4.7-4.7V328.2a4.8,4.8,0,0,0-4.8-4.7m-241.6,0H228.1a4.7,4.7,0,0,0-4.8,4.7V516.7a4.7,4.7,0,0,0,4.8,4.7h33.3a4.7,4.7,0,0,0,4.7-4.7V328.2a4.7,4.7,0,0,0-4.7-4.7m-112.3,98a4.7,4.7,0,0,1-4.7,4.7H43.3V358.3H144.5a4.8,4.8,0,0,1,4.7,4.8v58.4Zm-22.4-98H4.8A4.8,4.8,0,0,0,0,328.2V516.7a4.7,4.7,0,0,0,4.8,4.7H38.5a4.7,4.7,0,0,0,4.7-4.7V461h83.4c37.3,0,67.6-22,67.6-55.3V383.6c.1-33.2-30.2-60.1-67.5-60.1m1120.8,0h-29.9a4.7,4.7,0,0,0-4.7,4.7V464.7c-15.6-17.7-119-134.9-121.6-137.7a12,12,0,0,0-9-3.5h-29.6a4.8,4.8,0,0,0-4.8,4.7V516.7a4.8,4.8,0,0,0,4.8,4.7h29.9a4.8,4.8,0,0,0,4.8-4.7V379.1c11.2,12.8,119.9,136,122.6,138.8a12,12,0,0,0,9,3.5h28.6a4.8,4.8,0,0,0,4.8-4.7V328.2a4.9,4.9,0,0,0-4.9-4.7m-571.4-2.7H607.2c-37.4,0-67.7,26.9-67.7,60.2v82.9c0,33.2,30.3,60.2,67.7,60.2h68.9c37.4,0,67.8-27,67.8-60.2V410.8H639.1v27.9a4.8,4.8,0,0,0,4.8,4.8h57.3V482a4.7,4.7,0,0,1-4.7,4.7H586.8A4.7,4.7,0,0,1,582,482V363.1a4.8,4.8,0,0,1,4.8-4.8H696.5a4.7,4.7,0,0,1,4.7,4.8v22.7a4.7,4.7,0,0,0,4.8,4.7h33.1a4.8,4.8,0,0,0,4.8-4.7V381c0-33.3-30.4-60.2-67.8-60.2m484.8-187.2c0,9.3-1.7,16.5-13.5,22.4-9.4,4.7-24.9,12.1-39,18.7-14-6.6-29.5-14-38.9-18.7-11.8-5.9-13.5-13.1-13.5-22.4v-10h104.8v10Zm86.3-43h-45V71.4a5.4,5.4,0,0,0-5.3-5.4h-30.7a5.4,5.4,0,0,0-5.4,5.4V90.6H1056V71.4a5.4,5.4,0,0,0-5.4-5.4h-30.5a5.4,5.4,0,0,0-5.4,5.4V90.6H969.8a5.2,5.2,0,0,0-5.2,5.2v22.6a5.2,5.2,0,0,0,5.2,5.2h44.9v14.1c0,16.4,7.5,32,27.7,41.7l27.2,13.1c-18,7.3-33.7,10.6-50.4,10.6H976.7a5.4,5.4,0,0,0-5.4,5.4v22.3a5.4,5.4,0,0,0,5.4,5.4h41.8a163.4,163.4,0,0,0,54.4-10c7-2.7,20.3-8.5,35.6-15.5,15.3,7,28.6,12.8,35.7,15.5a163.4,163.4,0,0,0,54.4,10h41.8a5.4,5.4,0,0,0,5.4-5.4V208.5a5.4,5.4,0,0,0-5.4-5.4H1198c-16.8,0-32.6-3.3-50.5-10.6,10.1-4.8,19.5-9.3,27.1-13.1,20.2-9.8,27.7-25.3,27.7-41.7V123.6h44.9a5.2,5.2,0,0,0,5.2-5.2V95.8a5.3,5.3,0,0,0-5.2-5.2M934.6,328.7c-1.8-3.3-4.8-5.5-8.6-5.5H896.5c-3.7,0-6.7,2.2-8.6,5.5L794.8,512c-3.1,6-.4,9.5,5.1,9.5h29.5c4.4,0,5.9-1.1,8.1-5.2l73.7-147.6L985,516.2c2.2,4.1,3.8,5.2,8.1,5.2h29.4c5.6,0,8.2-3.5,5.1-9.5ZM876.9,63.9a10,10,0,0,0-8.9,4.8l-35.1,68.4c-1.3,2.7.4,4.8,3.1,4.8h35.2a10,10,0,0,0,8.9-4.8l35-68.4c1.3-2.6-.3-4.8-3-4.8ZM580.4,203.6H374.9V38.8H580.4ZM590.6,8.8h-226a30.6,30.6,0,0,0-30.5,30.6V205.5a30.6,30.6,0,0,0,30.5,30.6h226a30.6,30.6,0,0,0,30.6-30.6V39.4A30.6,30.6,0,0,0,590.6,8.8M971.7,67.4h24.4a5.2,5.2,0,0,0,5.2-5.2V47h214.5V62.2a5.1,5.1,0,0,0,5.1,5.2h24.3a5.2,5.2,0,0,0,5.3-5.2V44.8a26.9,26.9,0,0,0-26.9-26.9h-92.4V5.3A5.2,5.2,0,0,0,1126,0h-35.1a5.3,5.3,0,0,0-5.2,5.3V17.9H993.3a26.9,26.9,0,0,0-26.9,26.9V62.3a5.2,5.2,0,0,0,5.3,5.1M249.2,160.7H170.1V67.4h79.1Zm-126.7,0H43.3V67.4h79.2v93.3ZM261.8,33.5H170V6.2A5.2,5.2,0,0,0,164.8.9H127.6a5.2,5.2,0,0,0-5.2,5.3V33.5H30.6A30.7,30.7,0,0,0,0,64.1V164a30.7,30.7,0,0,0,30.6,30.6h91.8v43a5.2,5.2,0,0,0,5.2,5.2h37.2a5.2,5.2,0,0,0,5.2-5.2v-43h91.8A30.6,30.6,0,0,0,292.4,164V64.1a30.6,30.6,0,0,0-30.6-30.6m297.6,111h-31v12H497.8v-27h52.8V104H497.8V85.3h61.6V57.5H395.9V85.2h61.6v18.7H404.7v25.5h52.8v27H395.9v27.8H559.4Zm161-2.6h35.2c2.8,0,4.5-2.2,3.1-4.8l-35-68.4a9.9,9.9,0,0,0-8.8-4.8H679.7c-2.8,0-4.4,2.2-3,4.8l35,68.4c1.2,2.6,4.4,4.8,8.7,4.8M932.9,160H818.5V45.9h105a5.2,5.2,0,0,0,5.2-5.3v-22a5.2,5.2,0,0,0-5.2-5.2H668.1a5.2,5.2,0,0,0-5.2,5.2v22a5.2,5.2,0,0,0,5.2,5.3h105V160H658.8a5.2,5.2,0,0,0-5.2,5.2v23.2a5.2,5.2,0,0,0,5.2,5.2H773.1v44a5.2,5.2,0,0,0,5.2,5.2h35a5.2,5.2,0,0,0,5.2-5.2v-44H932.8a5.2,5.2,0,0,0,5.2-5.2V165.2a5.1,5.1,0,0,0-5.1-5.2"/>
      <path d="M936.7,462.2H885.8a4.8,4.8,0,0,0-4.7,4.8v49.7a4.8,4.8,0,0,0,4.7,4.8h50.9a4.7,4.7,0,0,0,4.7-4.8V467a4.8,4.8,0,0,0-4.7-4.8"/>
    </g>
  </g>
</svg>
